<?xml version="1.0" standalone="no"?>
<!DOCTYPE svg PUBLIC "-//W3C//DTD SVG 1.1//EN" "http://www.w3.org/Graphics/SVG/1.1/DTD/svg11.dtd" >
<svg xmlns="http://www.w3.org/2000/svg" xmlns:xlink="http://www.w3.org/1999/xlink" version="1.1">
<metadata>
Created by FontForge 20170731 at Sun Feb 19 15:18:41 2023
 By Aleksey,,,
Copyright (c) 1987, 1988, 1990, 1991, 1995, 1998, 2001 Adobe Systems Incorporated.  All Rights Reserved.
</metadata>
<defs>
<font id="LetterGothicStd-Bold" horiz-adv-x="1228" >
  <font-face 
    font-family="Letter Gothic Std"
    font-weight="700"
    font-stretch="normal"
    units-per-em="2048"
    panose-1="2 11 5 9 2 2 2 3 3 4"
    ascent="1520"
    descent="-528"
    x-height="1096"
    cap-height="1475"
    bbox="-385 -590 1352 1993"
    underline-thickness="102"
    underline-position="-307"
    unicode-range="U+0020-FB02"
  />
<missing-glyph 
d="M102 0v1434h1024v-1434h-1024zM614 809l349 522h-697zM676 717l348 -522v1044zM266 102h697l-349 523zM205 1239v-1044l348 522z" />
    <glyph glyph-name=".notdef" 
d="M102 0v1434h1024v-1434h-1024zM614 809l349 522h-697zM676 717l348 -522v1044zM266 102h697l-349 523zM205 1239v-1044l348 522z" />
    <glyph glyph-name=".null" horiz-adv-x="0" 
 />
    <glyph glyph-name="nonmarkingreturn" 
 />
    <glyph glyph-name="space" unicode=" " 
 />
    <glyph glyph-name="exclam" unicode="!" 
d="M715 1475l-29 -1026h-137l-35 1026h201zM451 131q0 67 49 112.5t116 45.5t115.5 -45.5t48.5 -112.5t-48.5 -113.5t-115.5 -46.5q-68 0 -116.5 46.5t-48.5 113.5z" />
    <glyph glyph-name="quotedbl" unicode="&#x22;" 
d="M231 1475h283v-267l-86 -264h-111l-86 264v267zM715 1475h282v-267l-86 -264h-110l-86 264v267z" />
    <glyph glyph-name="numbersign" unicode="#" 
d="M522 1649h154l-340 -1846h-154l123 668h-272l30 135h267l49 271h-268l24 135h271zM698 -197h-153l340 1846h153l-116 -637h272l-27 -135h-272l-49 -271h274l-24 -135h-275z" />
    <glyph glyph-name="dollar" unicode="$" 
d="M686 684v-420q67 21 106 71t39 122q0 150 -145 227zM532 266v463q-119 41 -196 121q-86 93 -86 211q0 119 81.5 202.5t200.5 104.5v152h154v-150q156 -21 295 -143l-90 -117q-104 104 -205 125v-406q142 -52 220.5 -138.5t78.5 -229.5q0 -138 -81 -224t-218 -108v-190
h-154v190q-171 11 -325 162l94 110q61 -57 115.5 -91t115.5 -44zM535 874v355q-70 -37 -101 -71t-31 -101q0 -57 38.5 -105.5t93.5 -77.5z" />
    <glyph glyph-name="percent" unicode="%" 
d="M961 377q0 104 -76 104q-45 0 -80 -31t-54 -78.5t-28.5 -95t-9.5 -88.5q0 -104 80 -104q43 0 77 32t53 80t28.5 95t9.5 86zM911 1503h148l-774 -1532h-148zM496 1286q0 44 -17.5 74.5t-58.5 30.5q-46 0 -81 -31t-54 -78.5t-28 -94.5t-9 -89q0 -50 16.5 -77.5t63.5 -27.5
q43 0 77 32t53 80t28.5 95t9.5 86zM567 209q0 96 34.5 182t108.5 144.5t173 58.5q102 0 162.5 -58.5t60.5 -160.5q0 -72 -20.5 -142.5t-58.5 -129.5t-100 -95.5t-139 -36.5q-109 0 -165 64t-56 174zM102 1118q0 96 34.5 182t108.5 144.5t173 58.5q102 0 162.5 -58.5
t60.5 -160.5q0 -57 -12.5 -114t-38.5 -109t-62.5 -92t-89 -64t-114.5 -24q-109 0 -165.5 64t-56.5 173z" />
    <glyph glyph-name="ampersand" unicode="&#x26;" 
d="M770 246l-281 426q-82 -99 -128 -183.5t-46 -179.5t51.5 -152t145.5 -57q162 0 258 146zM934 264l178 -203l-104 -108l-156 180q-137 -162 -340 -162q-156 0 -253 90.5t-97 245.5q0 73 19 141t58 132.5t75.5 112t93.5 112.5q-33 54 -52 87.5t-42 83t-33.5 96.5t-10.5 95
q0 88 27.5 156.5t70.5 105.5t87.5 55.5t85.5 18.5q118 0 190 -84t72 -202q0 -64 -15.5 -119.5t-53 -114t-62.5 -90.5t-82 -98l241 -389q9 46 15 102q8 86 8 246h150q-2 -154 -15.5 -269.5t-54.5 -220.5zM510 922q9 14 37 54.5t40 60.5t30 54.5t25 66.5t7 67q0 32 -10.5 65
t-35.5 58.5t-60 25.5q-41 0 -69.5 -33t-39 -73t-10.5 -80q0 -71 21.5 -132.5t64.5 -133.5z" />
    <glyph glyph-name="quotesingle" unicode="'" 
d="M473 1475h283v-267l-86 -266h-111l-86 266v267z" />
    <glyph glyph-name="parenleft" unicode="(" 
d="M842 -59l-74 -101q-136 86 -230 224.5t-137 293.5t-43 322q0 256 104 482.5t306 357.5l74 -103q-172 -122 -251 -314t-79 -423t79 -423t251 -316z" />
    <glyph glyph-name="parenright" unicode=")" 
d="M387 1417l74 103q202 -131 305.5 -357t103.5 -483q0 -167 -42.5 -321.5t-136.5 -293t-230 -225.5l-74 101q172 122 251 314.5t79 424.5q0 230 -79 422.5t-251 314.5z" />
    <glyph glyph-name="asterisk" unicode="*" 
d="M541 1475h145v-379l369 108l43 -133l-379 -108l237 -299l-108 -86l-234 292l-227 -292l-113 86l236 299l-379 108l41 133l369 -108v379z" />
    <glyph glyph-name="plus" unicode="+" 
d="M1178 805v-135h-492v-486h-143v486h-492v135h492v485h143v-485h492z" />
    <glyph glyph-name="comma" unicode="," 
d="M475 -229v139q79 16 131 65q-58 5 -96.5 44.5t-38.5 97.5q0 70 46 114.5t116 44.5q74 0 122 -55.5t48 -130.5q0 -62 -29.5 -117t-78.5 -94.5t-105 -66.5t-115 -41z" />
    <glyph glyph-name="hyphen" unicode="-" 
d="M881 670h-533v129h533v-129z" />
    <glyph glyph-name="period" unicode="." 
d="M451 131q0 67 49 112.5t116 45.5t115.5 -45.5t48.5 -112.5t-48.5 -113.5t-115.5 -46.5q-68 0 -116.5 46.5t-48.5 113.5z" />
    <glyph glyph-name="slash" unicode="/" 
d="M383 -55h-154l617 1585h153z" />
    <glyph glyph-name="zero" unicode="0" 
d="M1042 737v-8q0 -68 -1 -111t-9 -130.5t-23 -147.5t-47 -135.5t-76 -122t-114 -79t-158 -32.5q-69 0 -127.5 21.5t-100 54.5t-74.5 85.5t-53.5 100.5t-35.5 115t-22 113t-10.5 111t-4 92.5t-0.5 72.5v17q2 24 -0.5 62t2.5 87.5t10 105t20.5 114t35 113t53.5 103.5
t75.5 85.5t101 57.5t130.5 21q88 0 157.5 -33t113.5 -80t76 -123t47 -137.5t23.5 -149t9.5 -132.5t1 -111zM340 737q0 -238 26 -363q58 -274 248 -274q45 0 81 14t73.5 55t63 109.5t41.5 185t16 273.5q0 152 -15 266.5t-39.5 184t-60.5 112.5t-74.5 58.5t-85.5 15.5
q-45 0 -82.5 -15.5t-64 -43t-48 -64.5t-34 -79.5t-23 -89t-13.5 -92t-6.5 -88.5t-2.5 -79t0 -64v-22z" />
    <glyph glyph-name="one" unicode="1" 
d="M698 1520v-1391h265v-129h-695v129h277v1223l-289 -88v116z" />
    <glyph glyph-name="two" unicode="2" 
d="M358 129h672v-129h-825v66q0 96 17 175.5t43.5 140t76.5 123.5t99 110.5t128 115.5q43 36 55 46.5t54.5 48.5t60 58t49.5 58t46 66.5t26 65.5t12 71q0 104 -58 166.5t-161 62.5q-86 0 -146.5 -44.5t-88 -111.5t-31.5 -151h-154q11 195 120.5 315.5t301.5 120.5
q166 0 268.5 -95.5t102.5 -260.5q0 -32 -5.5 -64t-13.5 -58.5t-24.5 -56.5t-29 -51t-36.5 -49.5t-39.5 -45.5t-45 -45t-44 -41.5t-47 -42t-45.5 -40.5l-106 -96q-111 -101 -168.5 -198.5t-63.5 -229.5z" />
    <glyph glyph-name="three" unicode="3" 
d="M508 725v129q129 -6 225 71t96 205q0 106 -75.5 175t-180.5 69q-90 0 -165 -62t-115 -151l-129 74q65 126 176 197t250 71q164 0 278.5 -111.5t114.5 -273.5q0 -195 -195 -317q125 -55 194 -154t69 -233q0 -201 -132 -322t-335 -121q-148 0 -253.5 72.5t-187.5 208.5
l136 80q49 -112 123 -172t188 -60q136 0 221.5 79.5t85.5 213.5q0 115 -52.5 194.5t-139.5 113.5t-197 24z" />
    <glyph glyph-name="four" unicode="4" 
d="M866 1503v-993h211v-129h-211v-381h-153v381h-588v100l543 1022h198zM713 510v784h-4l-408 -784h412z" />
    <glyph glyph-name="five" unicode="5" 
d="M942 1475v-129h-522l-41 -517q106 95 246 95q176 0 292.5 -128t116.5 -343q0 -96 -30 -182.5t-84.5 -153.5t-137 -106.5t-180.5 -39.5q-234 0 -397 246l119 88q44 -89 120 -147t168 -58q63 0 115.5 31t85.5 81t50.5 109t17.5 119q0 89 -23 159.5t-61 111.5t-81 62.5
t-87 21.5q-150 0 -252 -168l-156 30l62 818h659z" />
    <glyph glyph-name="six" unicode="6" 
d="M893 479q0 63 -13.5 120t-42 105.5t-79 77.5t-117.5 29q-80 0 -146 -55t-101.5 -138.5t-35.5 -173.5q0 -61 15 -119.5t44 -110t80 -83t115 -31.5q74 0 130.5 34t88 90.5t47 120.5t15.5 134zM1030 1413l-74 -127q-45 31 -66.5 44t-62.5 28.5t-79 15.5q-74 0 -139.5 -40.5
t-110.5 -104t-79 -142.5t-51 -154.5t-20 -141.5q69 77 142 113t172 36q74 0 137.5 -25.5t108 -70t76.5 -103t47.5 -125t15.5 -135.5q0 -96 -27.5 -186t-78.5 -163t-133.5 -117t-184.5 -44q-86 0 -155.5 28t-115 79t-77.5 113.5t-49 139.5t-24 148t-7 148q0 177 32 324.5
t86 248t126 170t151.5 101.5t163.5 32q131 0 276 -90z" />
    <glyph glyph-name="seven" unicode="7" 
d="M190 1475h828l-576 -1475h-166l541 1346h-627v129z" />
    <glyph glyph-name="eight" unicode="8" 
d="M297 401q0 -142 87 -221.5t230 -79.5t230.5 79.5t87.5 221.5q0 140 -88.5 220.5t-229.5 80.5t-229 -80.5t-88 -220.5zM881 1104q0 124 -71 197t-196 73q-129 0 -198.5 -77.5t-69.5 -209.5q0 -117 75 -186.5t193 -69.5q124 0 195.5 74t71.5 199zM864 772q107 -41 164 -145
t57 -226q0 -188 -123 -309t-348 -121q-119 0 -211.5 35t-148 96t-83.5 136.5t-28 162.5q0 122 57.5 226t164.5 145q-94 81 -133 154t-39 190q0 176 121 281.5t300 105.5q187 0 303.5 -107.5t116.5 -293.5q0 -110 -39.5 -181.5t-130.5 -148.5z" />
    <glyph glyph-name="nine" unicode="9" 
d="M334 995q0 -63 14 -119.5t42.5 -105.5t79 -77.5t116.5 -28.5q120 0 202 113t82 255q0 60 -15 118t-44.5 109.5t-80 83t-114.5 31.5q-74 0 -130.5 -34t-88.5 -90.5t-47.5 -120.5t-15.5 -134zM199 61l73 127q122 -88 209 -88q74 0 139 40.5t110 104t79 143t51 155.5t21 143
q-70 -78 -142.5 -114.5t-171.5 -36.5q-92 0 -167 39t-122 104.5t-72.5 146.5t-25.5 168q0 96 27.5 186t79.5 163t134.5 117t184.5 44q103 0 181.5 -41.5t124 -106t74.5 -155t38.5 -174.5t9.5 -178q0 -211 -46 -380.5t-124 -276.5t-177.5 -163.5t-211.5 -56.5q-131 0 -276 90
z" />
    <glyph glyph-name="colon" unicode=":" 
d="M451 131q0 67 49 112.5t116 45.5t115.5 -45.5t48.5 -112.5t-48.5 -113.5t-115.5 -46.5q-68 0 -116.5 46.5t-48.5 113.5zM451 825q0 67 49 112.5t116 45.5t115.5 -45.5t48.5 -112.5t-48.5 -113t-115.5 -46q-68 0 -116.5 46t-48.5 113z" />
    <glyph glyph-name="semicolon" unicode=";" 
d="M475 -229v139q79 16 131 65q-58 5 -96.5 44.5t-38.5 97.5q0 70 46 114.5t116 44.5q74 0 122 -55.5t48 -130.5q0 -62 -29.5 -117t-78.5 -94.5t-105 -66.5t-115 -41zM471 825q0 66 49.5 112t116.5 46t115.5 -45.5t48.5 -112.5t-48.5 -113t-115.5 -46q-68 0 -117 46t-49 113
z" />
    <glyph glyph-name="less" unicode="&#x3c;" 
d="M973 1475l86 -107l-682 -631l682 -631l-86 -106l-805 737z" />
    <glyph glyph-name="equal" unicode="=" 
d="M1178 926v-135h-1127v135h1127zM1178 684v-135h-1127v135h1127z" />
    <glyph glyph-name="greater" unicode="&#x3e;" 
d="M168 1368l86 107l805 -738l-805 -737l-86 106l682 631z" />
    <glyph glyph-name="question" unicode="?" 
d="M680 442h-154v217q0 90 35.5 142.5t147.5 136.5q59 45 84.5 90t25.5 115q0 103 -58.5 167t-160.5 64q-101 0 -157 -62.5t-56 -162.5h-154q8 163 106.5 258.5t262.5 95.5q170 0 270.5 -98.5t100.5 -267.5q0 -94 -31.5 -155.5t-99.5 -121.5q-29 -26 -62.5 -52.5t-48 -38
t-28.5 -28t-18.5 -35t-4.5 -47.5v-217zM455 131q0 66 49.5 112t116.5 46t115 -45.5t48 -112.5t-48 -113.5t-115 -46.5q-68 0 -117 46.5t-49 113.5z" />
    <glyph glyph-name="at" unicode="@" 
d="M1061 281l55 -138q-266 -172 -547 -172q-86 0 -167 23t-155.5 74t-130.5 123.5t-89 180t-33 236.5q0 123 26 247.5t81.5 241.5t133.5 207t190.5 144.5t244.5 54.5q108 0 210 -47t181 -128.5t126.5 -201t47.5 -254.5q0 -64 -11 -130.5t-37 -134t-63.5 -120t-95.5 -85.5
t-129 -33q-63 0 -97 18.5t-85 71.5q-42 -34 -65 -49.5t-59.5 -28t-80.5 -12.5q-88 0 -143.5 55.5t-55.5 144.5q0 92 38 198t98 173q100 109 356 109h92l-55 -336q0 -1 -8.5 -49.5t-8.5 -65.5q0 -41 19.5 -70.5t56.5 -29.5q49 0 87 40.5t56.5 101t27.5 116.5t9 102
q0 107 -28 194t-71 141t-99.5 90.5t-110 51.5t-104.5 15q-105 0 -194 -47t-148 -122.5t-100.5 -173t-60 -196.5t-18.5 -195q0 -242 111 -366.5t324 -124.5q129 0 244 39.5t235 116.5zM719 858l8 64q-114 -3 -187 -105.5t-73 -234.5q0 -32 14.5 -58t42.5 -26q26 0 51.5 15
t53.5 51.5t52 112t38 181.5z" />
    <glyph glyph-name="A" unicode="A" 
d="M616 1597l523 -1597h-166l-131 434h-449l-131 -434h-166zM616 1159l-186 -596h375z" />
    <glyph glyph-name="B" unicode="B" 
d="M643 0h-422v1475h309q44 0 79.5 -2t86 -10.5t89 -23.5t79.5 -43t67.5 -66t44 -96.5t17.5 -131.5q0 -104 -50.5 -185t-143.5 -133q130 -64 194 -154.5t64 -228.5q0 -168 -113.5 -284.5t-300.5 -116.5zM375 1346v-515h178q52 0 102.5 19t92 53t67 87.5t25.5 117.5
q0 49 -12 88t-28.5 63.5t-45 42t-50.5 26t-56.5 13t-52.5 5t-47 0.5h-7h-166zM375 129h258q111 0 190.5 67.5t79.5 196.5q0 133 -85.5 221t-250.5 88h-192v-573z" />
    <glyph glyph-name="C" unicode="C" 
d="M1034 1155h-153q-2 93 -62 156t-153 63q-64 0 -116 -25t-86 -63.5t-59 -96.5t-38.5 -112.5t-21 -124t-9.5 -119t-2 -108.5q0 -625 317 -625q112 0 179 74t69 186h154q-12 -182 -118.5 -285.5t-289.5 -103.5q-84 0 -153.5 26t-116.5 69t-83 105.5t-57 127.5t-33.5 143.5
t-17 145.5t-4.5 141q0 76 5 145.5t18.5 149.5t35.5 146.5t60 129.5t87 106.5t120.5 70t157.5 26.5q154 0 257.5 -97t112.5 -251z" />
    <glyph glyph-name="D" unicode="D" 
d="M229 0v1475h375q89 0 159 -21.5t130.5 -73t100.5 -135t62.5 -211.5t22.5 -297t-21 -294.5t-60.5 -210t-101.5 -136.5t-138 -74t-176 -22h-353zM383 1346v-1217h188q50 0 87 5t76 20t66.5 41.5t52.5 72t40 109t24 154t9 206.5q0 119 -10 211.5t-26 156.5t-43.5 109
t-55 70.5t-67.5 39.5t-74.5 18t-82.5 4h-184z" />
    <glyph glyph-name="E" unicode="E" 
d="M1051 1475v-129h-613v-525h441v-129h-441v-563h627v-129h-780v1475h766z" />
    <glyph glyph-name="F" unicode="F" 
d="M1102 1475v-129h-637v-512h477v-129h-477v-705h-154v1475h791z" />
    <glyph glyph-name="G" unicode="G" 
d="M936 608h-348v129h502v-766h-154v144q-57 -69 -137.5 -106.5t-171.5 -37.5q-26 0 -47 1.5t-57 9t-65 21t-65.5 40t-64.5 62.5t-56.5 93t-47.5 127t-30.5 167.5t-11.5 212.5q0 215 32 370.5t93.5 248.5t145 136t194.5 43q180 0 274 -112t97 -293h-154q6 70 -13.5 131.5
t-70.5 103t-125 41.5q-63 0 -114 -25.5t-83.5 -63.5t-56.5 -97.5t-36 -113t-19 -124.5t-8.5 -117t-1.5 -106q0 -57 1 -100.5t7.5 -112.5t18 -121t33.5 -110t53 -95.5t78.5 -62.5t107.5 -25q56 0 107.5 23.5t96 70t71 128.5t26.5 188v98z" />
    <glyph glyph-name="H" unicode="H" 
d="M358 1475v-646h512v646h154v-1475h-154v700h-512v-700h-153v1475h153z" />
    <glyph glyph-name="I" unicode="I" 
d="M891 1475v-129h-201v-1217h201v-129h-553v129h199v1217h-199v129h553z" />
    <glyph glyph-name="J" unicode="J" 
d="M537 1346v129h426v-949v-5q0 -56 -1 -89.5t-9 -98.5t-22.5 -107t-45.5 -95t-74 -84.5t-111.5 -53.5t-154.5 -22q-187 0 -289 111.5t-102 343.5v207h153v-264q0 -128 60.5 -198.5t173.5 -70.5q268 0 268 312v934h-272z" />
    <glyph glyph-name="K" unicode="K" 
d="M418 1475v-650q32 4 78.5 35.5t103 91t112.5 137t111.5 183.5t96.5 221l151 -80l-121 -203q-92 -154 -168 -253t-120.5 -139t-100.5 -75l637 -743h-205l-563 694h-12v-694h-154v1475h154z" />
    <glyph glyph-name="L" unicode="L" 
d="M471 1475v-1346h639v-129h-793v1475h154z" />
    <glyph glyph-name="M" unicode="M" 
d="M614 739l310 736h151v-1475h-153v1122h-4l-304 -723l-301 723l-4 -4v-1118h-153v1475h149z" />
    <glyph glyph-name="N" unicode="N" 
d="M236 0v1475h178l448 -1102h6v1102h154v-1489h-145l-484 1190l-4 -5v-1171h-153z" />
    <glyph glyph-name="O" unicode="O" 
d="M162 737q0 180 23.5 316t63.5 220.5t99 137t123 72.5t143 20q70 0 129 -18t102 -47t77.5 -73.5t57.5 -90.5t39.5 -105.5t25.5 -110.5t14 -114.5t6.5 -107.5t1.5 -99q0 -210 -20 -327q-75 -439 -433 -439q-93 0 -167 33t-120.5 79.5t-80 122.5t-49.5 136.5t-24.5 148.5
t-9.5 131t-1 111v2v2zM614 100q50 0 90.5 14.5t81 56t67 110.5t43.5 185t17 271q0 177 -11 262q-48 374 -288 375q-56 0 -101.5 -21t-75.5 -57t-53.5 -83t-35.5 -99t-21 -105t-9.5 -101t-3 -87.5t0.5 -63.5v-20q0 -221 25 -341q61 -296 274 -296z" />
    <glyph glyph-name="P" unicode="P" 
d="M274 0v1475h355q201 0 311.5 -117t110.5 -334q0 -224 -133 -334t-361 -110h-129v-580h-154zM428 709h170q137 0 218 80.5t81 232.5q0 324 -289 324h-180v-637z" />
    <glyph glyph-name="Q" unicode="Q" 
d="M614 -29q-94 0 -168.5 32.5t-121 79t-80 122t-49.5 135.5t-24.5 147t-9.5 128.5t-1 106.5v15q0 180 24 316.5t64 220.5t99.5 136.5t123.5 72.5t143 20q74 0 137 -19.5t106.5 -53.5t79.5 -79.5t57 -98t37.5 -108.5t22.5 -111.5t11.5 -106.5t3.5 -93t0 -73v-23
q0 -232 -29.5 -379.5t-117.5 -246.5l180 -234h-189l-102 143q-88 -49 -197 -49zM313 737q0 -152 17 -267t44.5 -184t67.5 -112t81 -58.5t91 -15.5q70 0 123.5 32.5t94 104.5t62 197.5t21.5 302.5q0 152 -16.5 267t-44 184t-67.5 112t-81.5 58.5t-91.5 15.5q-57 0 -103.5 -22
t-77 -59t-54.5 -85.5t-35 -101.5t-20 -107t-9.5 -101.5t-2.5 -85t1 -58.5v-17z" />
    <glyph glyph-name="R" unicode="R" 
d="M268 0v1475h383q76 0 138.5 -19t103 -48.5t71.5 -70.5t47.5 -79.5t26.5 -80.5t12.5 -69.5t2.5 -50.5q0 -124 -58.5 -224.5t-203.5 -183.5l397 -649h-187l-358 614q-37 -1 -110.5 -2t-110.5 -2v-610h-154zM422 741h145q159 0 245.5 82t86.5 242q0 150 -73 215.5t-253 65.5
h-151v-605z" />
    <glyph glyph-name="S" unicode="S" 
d="M1028 1319l-92 -111q-57 51 -96.5 81t-102 57.5t-121.5 27.5q-100 0 -168.5 -63t-68.5 -162q0 -35 6 -59t25.5 -57.5t64.5 -70.5t117 -81l117 -72q207 -127 275.5 -208t68.5 -208q0 -196 -119.5 -309t-315.5 -113q-258 0 -446 240l119 94q58 -92 142 -148.5t185 -56.5
q117 0 199 78t82 195q0 35 -1.5 54t-10 45t-25 45t-47 46t-74.5 56t-110 69l-133 80q-49 29 -85 54t-73.5 60.5t-61 71.5t-38.5 84t-15 101q0 168 113 266t285 98q205 0 405 -184z" />
    <glyph glyph-name="T" unicode="T" 
d="M1108 1475v-129h-420v-1346h-153v1346h-412v129h985z" />
    <glyph glyph-name="U" unicode="U" 
d="M868 1475h154v-1088q0 -101 -35.5 -182t-94 -131t-130.5 -76.5t-148 -26.5q-53 0 -104.5 12t-108 46.5t-99 87.5t-70 144t-27.5 208v1006h153v-1088q0 -76 23 -134t61 -90t81.5 -47.5t90.5 -15.5q132 0 193 84.5t61 221.5v1069z" />
    <glyph glyph-name="V" unicode="V" 
d="M608 223l264 1252h170l-333 -1489h-211l-328 1489h168l266 -1252h4z" />
    <glyph glyph-name="W" unicode="W" 
d="M608 1063l232 -739h4l74 1151h165l-112 -1489h-176l-187 639l-188 -639h-170l-123 1489h166l78 -1151h4z" />
    <glyph glyph-name="X" unicode="X" 
d="M188 1475h177l249 -572l250 572h178l-348 -732l359 -743h-179l-260 590l-260 -590h-176l361 745z" />
    <glyph glyph-name="Y" unicode="Y" 
d="M578 807l282 668h170l-377 -852v-623h-153v623l-377 852h170z" />
    <glyph glyph-name="Z" unicode="Z" 
d="M233 1475h768v-109l-606 -1237h656v-129h-840v111l614 1235h-592v129z" />
    <glyph glyph-name="bracketleft" unicode="[" 
d="M942 -229h-598v1749h598v-129h-444v-1491h444v-129z" />
    <glyph glyph-name="backslash" unicode="\" 
d="M846 -55l-617 1585h154l616 -1585h-153z" />
    <glyph glyph-name="bracketright" unicode="]" 
d="M285 -229v129h444v1491h-444v129h598v-1749h-598z" />
    <glyph glyph-name="asciicircum" unicode="^" 
d="M362 731h-151l336 662h135l336 -662h-152l-252 496z" />
    <glyph glyph-name="underscore" unicode="_" 
d="M1229 -256h-1229v102h1229v-102z" />
    <glyph glyph-name="grave" unicode="`" 
d="M444 1587l363 -291l-78 -100l-395 264z" />
    <glyph glyph-name="a" unicode="a" 
d="M322 907l-35 135q96 38 166.5 57t148.5 19q101 0 179 -51t117.5 -131t39.5 -172v-475q0 -163 47 -297l-143 -19l-39 138q-113 -134 -273 -134q-151 0 -238 103t-87 256q0 165 95 280t255 115q101 0 229 -53v104q0 92 -51.5 149.5t-136.5 57.5q-23 0 -48.5 -4t-44.5 -8.5
t-48.5 -15t-42.5 -16t-47 -20t-43 -18.5zM784 295v254q-121 53 -209 53q-109 0 -163 -79t-54 -195q0 -86 44.5 -154t127.5 -68q34 0 66.5 12.5t55.5 27.5t50.5 45.5t41.5 49t40 54.5z" />
    <glyph glyph-name="b" unicode="b" 
d="M233 1520h154v-463q116 61 234 61q56 0 114 -17.5t118.5 -60t107.5 -104.5t76.5 -160.5t29.5 -218.5q0 -124 -27.5 -225t-71.5 -165.5t-103 -108.5t-118 -62.5t-120 -18.5q-87 0 -138 26.5t-131 98.5l-32 -122l-146 18q53 152 53 408v1114zM387 901v-602q42 -89 97 -141
t141 -52q33 0 68.5 11.5t76 42.5t71.5 79t51.5 129t20.5 183q0 110 -26 196t-71 138t-101 78t-119 26q-99 0 -209 -88z" />
    <glyph glyph-name="c" unicode="c" 
d="M963 287l104 -109q-93 -100 -182.5 -150.5t-208.5 -50.5q-53 0 -105.5 11.5t-107 36.5t-100.5 69.5t-82.5 104t-57 146.5t-20.5 192q0 127 28 228.5t73 166t107 107.5t126 61t133 18q241 0 403 -244l-133 -88q-101 203 -270 203q-62 0 -115.5 -23.5t-99.5 -73t-72.5 -137
t-26.5 -204.5q0 -99 20 -177.5t51.5 -127.5t74 -81.5t85 -45.5t87.5 -13q82 0 151 49.5t138 131.5z" />
    <glyph glyph-name="d" unicode="d" 
d="M1044 -4l-145 -19l-33 123q-79 -71 -129.5 -97t-138.5 -26q-61 0 -120 18.5t-117.5 62t-102.5 108t-71 165t-27 224.5q0 120 29.5 218.5t75.5 161t106 105t118.5 60.5t114.5 18q115 0 232 -63v465h153v-1129q0 -235 55 -395zM836 295v604q-108 90 -207 90q-63 0 -119 -27
t-100.5 -79t-70.5 -138t-26 -196q0 -102 20.5 -182.5t51.5 -128t71.5 -78.5t76 -42.5t69.5 -11.5q83 0 141.5 52.5t92.5 136.5z" />
    <glyph glyph-name="e" unicode="e" 
d="M1061 508h-729q6 -213 90 -307.5t221 -94.5q150 0 342 117l66 -137q-119 -53 -217 -81t-203 -28q-117 0 -206.5 47.5t-142 128.5t-78.5 179t-26 209q0 89 16 170.5t52 156.5t88.5 130t131 87.5t173.5 32.5q75 0 138 -23t105.5 -60t75.5 -87t52 -99t31 -101t16 -89t4 -67
v-84zM330 637h577q-5 143 -81 247.5t-199 104.5q-124 0 -194.5 -89t-102.5 -263z" />
    <glyph glyph-name="f" unicode="f" 
d="M1096 1427v-155q-17 7 -82 39.5t-110 47.5t-87 15q-194 0 -194 -225v-123h352v-129h-352v-897h-154v897h-272v129h272v104q0 94 29.5 167.5t79 117t108 66t121.5 22.5q122 0 289 -76z" />
    <glyph glyph-name="g" unicode="g" 
d="M899 1118h145q-47 -169 -47 -409v-603q0 -98 -27.5 -176.5t-70 -126.5t-98.5 -80t-108 -44.5t-103 -12.5q-93 0 -186.5 47t-161.5 121l108 94q47 -61 115 -97t143 -36q77 0 132 44t79.5 111t24.5 148v86q-73 -47 -130 -69.5t-132 -22.5q-97 0 -175 43.5t-125.5 115
t-72.5 157.5t-25 178q0 81 14 155.5t46 144t79.5 120.5t119 81.5t159.5 30.5q136 0 268 -96zM844 365v489q-38 57 -104.5 96t-135.5 39q-58 0 -105 -24t-76.5 -62.5t-49 -90.5t-27.5 -103.5t-8 -104.5q0 -162 70.5 -272.5t181.5 -110.5q71 0 145 42t109 102z" />
    <glyph glyph-name="h" unicode="h" 
d="M242 0v1520h153v-582q61 82 147 131t183 49q32 0 57 -3.5t56 -15t54 -32t45.5 -57.5t37.5 -87.5t24 -125t9 -168.5v-629h-154v641q0 27 -0.5 44t-2 52t-5 59t-9.5 56t-17 54t-25 42.5t-34.5 30.5t-45.5 10q-81 0 -153 -59t-111 -139q-28 -57 -41 -129.5t-14 -114
t-1 -139.5v-408h-153z" />
    <glyph glyph-name="i" unicode="i" 
d="M565 0v967h-311v129h465v-1096h-154zM637 1503q54 0 91.5 -37t37.5 -92t-37.5 -92t-91.5 -37t-91.5 37t-37.5 92t37.5 92t91.5 37z" />
    <glyph glyph-name="j" unicode="j" 
d="M150 106h153q0 -161 42 -236t151 -75q45 0 81.5 20.5t57 48t34.5 58t18.5 48.5t4.5 22v975h-317v129h471v-1073q0 -87 -32.5 -158t-84.5 -113t-111.5 -64t-119.5 -22q-172 0 -260 117t-88 323zM758 1503q54 0 90.5 -37t36.5 -92t-36.5 -92t-90.5 -37q-56 0 -93.5 37
t-37.5 92t38 92t93 37z" />
    <glyph glyph-name="k" unicode="k" 
d="M852 1096h195q-59 -69 -134.5 -158t-110.5 -130t-87.5 -98.5t-110.5 -115.5l539 -594h-203l-430 504l-70 -70v-434h-153v1520h153v-904q101 104 151.5 158t128.5 147t132 175z" />
    <glyph glyph-name="l" unicode="l" 
d="M549 0v1391h-311v129h464v-1520h-153z" />
    <glyph glyph-name="m" unicode="m" 
d="M139 0v756q0 71 -7 138t-14.5 110t-23.5 114h154l22 -98q58 50 105 74t110 24q72 0 106 -19.5t81 -80.5q57 51 103.5 76.5t107.5 25.5q110 0 175.5 -66.5t65.5 -176.5v-877h-153v877q0 55 -27 84.5t-74 29.5q-49 0 -91 -33t-70 -81v-877h-154v864q0 125 -86 125
q-53 0 -103 -39.5t-73 -93.5v-856h-154z" />
    <glyph glyph-name="n" unicode="n" 
d="M381 457v-457h-154v551q0 337 -49 545h148l34 -201q60 100 160 161.5t213 61.5q125 0 194.5 -99.5t69.5 -246.5v-772h-153v727q0 31 -0.5 48t-3 48.5t-7 51t-14.5 43.5t-24 38t-36 23.5t-50 9.5q-45 0 -90 -18t-88 -59t-76 -101t-53.5 -151.5t-20.5 -202.5z" />
    <glyph glyph-name="o" unicode="o" 
d="M614 -23q-61 0 -118.5 16.5t-116 57.5t-102 103.5t-70.5 164t-27 228.5q0 123 25.5 222t67 163t98.5 107t117.5 61t125.5 18q80 0 146 -22.5t110 -59t78 -87.5t53 -102t31 -109.5t15.5 -102.5t3.5 -88q0 -123 -25.5 -221.5t-67.5 -162.5t-99.5 -107t-118 -61t-126.5 -18z
M614 106q58 0 104 19t76 54t51 76.5t32 94t15.5 99t4.5 98.5t-4.5 98.5t-15.5 99t-32 94.5t-51 77t-76 54t-104 19q-69 0 -121 -28.5t-81.5 -72t-47.5 -105.5t-24 -117.5t-6 -118.5t6 -118.5t24 -117t47.5 -105t81.5 -72t121 -28.5z" />
    <glyph glyph-name="p" unicode="p" 
d="M326 1122l32 -127q79 71 130 97t139 26q61 0 120 -18t118 -61.5t103 -108t71.5 -165t27.5 -224.5q0 -119 -29.5 -217.5t-76.5 -161.5t-107 -106t-118.5 -61t-114.5 -18q-112 0 -234 64v-461h-154v1112q0 255 -53 412zM387 799v-602q113 -91 209 -91q140 0 228.5 116.5
t88.5 324.5q0 102 -20.5 183t-51.5 128t-71.5 78t-76 42t-68.5 11q-86 0 -141.5 -51t-96.5 -139z" />
    <glyph glyph-name="q" unicode="q" 
d="M989 -420h-153v461q-61 -33 -114 -48.5t-118 -15.5q-39 0 -80.5 9t-85.5 30t-84 51.5t-76 76.5t-62.5 102.5t-42 132t-15.5 162.5q0 124 27.5 224.5t71.5 165t103 108t118 61.5t120 18q88 0 138.5 -26t129.5 -97l33 127l145 -18q-55 -165 -55 -399v-1125zM836 197v612
q-47 87 -99 133.5t-135 46.5q-34 0 -69.5 -11t-76.5 -42t-72 -78t-52 -128t-21 -183q0 -208 89 -324.5t229 -116.5q97 0 207 91z" />
    <glyph glyph-name="r" unicode="r" 
d="M475 457v-457h-153v629q0 264 -43 467h149l35 -209q35 54 66.5 91.5t72.5 71.5t91.5 51t109.5 17q73 0 125.5 -33t79 -89t38 -115.5t11.5 -128.5h-154q0 9 -1 38t-2 45.5t-4.5 43.5t-10.5 43.5t-18 33.5t-29.5 25t-42.5 8q-35 0 -76.5 -20t-85 -64t-78.5 -104.5
t-57.5 -150.5t-22.5 -193z" />
    <glyph glyph-name="s" unicode="s" 
d="M950 991l-67 -125q-82 58 -150 90.5t-143 32.5q-71 0 -124.5 -47.5t-53.5 -118.5q0 -30 14.5 -57.5t35 -46t52 -36.5t54.5 -28t55 -22q46 -17 74.5 -28.5t70 -31t67 -37.5t55 -45t46.5 -56.5t28 -69t11 -84.5q0 -131 -101 -217.5t-233 -86.5q-119 0 -237 52.5t-214 138.5
l84 123q71 -76 168.5 -130.5t188.5 -54.5q81 0 135.5 44t54.5 124q0 40 -13.5 73t-30.5 53.5t-51.5 40.5t-57.5 30t-66 26q-5 2 -8 3q-42 16 -68.5 26.5t-65.5 29.5t-64 36t-54 43t-45.5 53t-27.5 63.5t-11 77.5q0 120 98 204.5t240 84.5q177 0 354 -127z" />
    <glyph glyph-name="t" unicode="t" 
d="M946 1096v-129h-391v-625q0 -35 1 -55.5t4.5 -52t13 -51t24 -39t39.5 -29t59 -9.5q146 0 232 193l147 -37q-60 -129 -156.5 -207t-226.5 -78q-70 0 -121 19t-90.5 64.5t-59.5 128t-20 202.5v576h-235v129h235v336h154v-336h391z" />
    <glyph glyph-name="u" unicode="u" 
d="M850 647v449h154v-531q0 -362 47 -565h-146l-35 211q-57 -96 -158 -165t-202 -69q-93 0 -157.5 50.5t-92 129t-27.5 177.5v762h154v-717q0 -36 1 -56.5t4 -58.5t12 -61t23 -48t38.5 -37t56.5 -12q47 0 92.5 20t88.5 64t75.5 106t52 153t19.5 198z" />
    <glyph glyph-name="v" unicode="v" 
d="M879 1096h159l-340 -1110h-174l-340 1110h160l266 -850z" />
    <glyph glyph-name="w" unicode="w" 
d="M264 -14l-192 1110h172l125 -822h4l157 553h150l158 -553h4l125 822h172l-193 -1110h-164l-178 594l-176 -594h-164z" />
    <glyph glyph-name="x" unicode="x" 
d="M1038 1096l-340 -504l432 -592h-194l-324 473l-319 -473h-195l430 586l-348 510h178l256 -385l250 385h174z" />
    <glyph glyph-name="y" unicode="y" 
d="M911 1096h164l-405 -1028q-20 -52 -34.5 -86t-40.5 -87t-53.5 -88.5t-62.5 -70.5t-78.5 -52.5t-91.5 -17.5q-101 0 -174 67.5t-104 170.5l129 67q11 -28 17.5 -44.5t21.5 -45t29.5 -44.5t36 -29t44.5 -13q30 0 56.5 17.5t49 52.5t33 56t27.5 59l72 165l-352 951h165
l267 -746z" />
    <glyph glyph-name="z" unicode="z" 
d="M1016 1096v-115l-629 -852h653v-129h-852v113l633 854h-542v129h737z" />
    <glyph glyph-name="braceleft" unicode="{" 
d="M999 1520v-58h-67q-142 0 -201 -49t-59 -139v-369q0 -52 -1.5 -76.5t-10.5 -60.5t-31.5 -60.5t-59.5 -45.5q37 -20 59.5 -44.5t31.5 -60.5t10.5 -60.5t1.5 -76.5v-369q0 -90 59 -139t201 -49h67v-58h-112q-109 0 -180.5 18t-113.5 58.5t-58.5 98t-16.5 145.5v346
q0 40 -10.5 69t-25.5 45.5t-41.5 29t-48.5 17.5t-58.5 13.5t-59.5 16.5q24 8 59.5 17t58 14.5t49 17.5t41.5 28.5t25.5 45.5t10.5 69v346q0 88 16.5 145.5t58.5 98t113.5 58.5t180.5 18h112z" />
    <glyph glyph-name="bar" unicode="|" 
d="M547 -590v2212h135v-2212h-135z" />
    <glyph glyph-name="braceright" unicode="}" 
d="M233 1462v58h113q109 0 180.5 -18t113.5 -58.5t58.5 -98t16.5 -145.5v-346q0 -40 10.5 -69t25 -45.5t41 -28.5t49 -17.5t58 -14.5t59.5 -17q-23 -7 -59 -16t-58.5 -14t-49 -17.5t-41 -29t-25 -45.5t-10.5 -69v-346q0 -88 -16.5 -145.5t-58.5 -98t-113.5 -58.5t-180.5 -18
h-113v58h68q142 0 201 49t59 139v369q0 52 1.5 76.5t10.5 60.5t31.5 60.5t59.5 44.5q-37 21 -59.5 45.5t-31.5 60.5t-10.5 60.5t-1.5 76.5v369q0 90 -59 139t-201 49h-68z" />
    <glyph glyph-name="asciitilde" unicode="~" 
d="M375 889q89 0 260 -76t219 -76q71 0 132 62t97 139l107 -78q-54 -107 -141.5 -182.5t-192.5 -75.5q-23 0 -52 5.5t-67 18.5t-60 21t-66 26t-50 21q-3 1 -27.5 12t-33 14.5t-30 12t-34.5 11.5t-30 6.5t-31 3.5q-29 0 -56 -11t-45.5 -24.5t-40 -41t-32 -44t-31 -51
t-27.5 -45.5l-106 79q29 50 49 80.5t53.5 71.5t65 64t76 40t94.5 17z" />
    <glyph glyph-name="uni00A0" unicode="&#xa0;" 
 />
    <glyph glyph-name="exclamdown" unicode="&#xa1;" 
d="M514 0l29 1026h137l35 -1026h-201zM449 1346q0 66 49 111.5t116 45.5t115.5 -45t48.5 -112t-48.5 -113.5t-115.5 -46.5q-68 0 -116.5 46.5t-48.5 113.5z" />
    <glyph glyph-name="cent" unicode="&#xa2;" 
d="M1077 1092l-139 -93q-44 82 -86.5 129t-110.5 68v-864q107 33 222 172l104 -109q-160 -167 -326 -194v-262h-153v260q-196 41 -290.5 191t-94.5 364q0 490 385 573v193h153v-191q112 -22 185 -77t151 -160zM588 336v858q-232 -68 -232 -426q0 -357 232 -432z" />
    <glyph glyph-name="sterling" unicode="&#xa3;" 
d="M504 879h409v-129h-370q2 -6 9 -33t9 -35.5t7.5 -32.5t7.5 -35.5t6 -32.5t5.5 -35.5t3 -33t1.5 -35.5q0 -19 -1 -37t-6 -38.5t-7 -32.5t-11.5 -35t-12 -30.5t-15.5 -34t-15 -31t-18.5 -36t-18.5 -34.5q97 18 131 18q66 0 154 -39q64 -28 117 -28q17 0 33.5 5t34.5 16.5
t28.5 19.5t31 25.5t25.5 21.5l88 -98q-111 -119 -229 -119q-58 0 -156 35q-84 32 -147 32q-45 0 -92.5 -14t-76.5 -28t-83 -44l-82 105q25 51 76.5 134t74.5 139t23 118q0 106 -51 283h-237v129h200q-47 147 -47 243q0 158 116.5 255.5t278.5 97.5q126 0 233 -69t152 -185
l-143 -47q-83 172 -246 172q-101 0 -172 -68q-65 -60 -65 -172q0 -17 1 -32.5t4 -33.5t5 -29.5t8 -33.5t8.5 -29.5t10.5 -34.5t10 -34z" />
    <glyph glyph-name="currency" unicode="&#xa4;" 
d="M246 1036l-223 219l67 66l221 -219q130 106 303 106q174 0 304 -106l221 219l67 -66l-223 -219q102 -138 102 -299t-102 -299l223 -219l-67 -65l-221 219q-131 -107 -304 -107q-172 0 -303 107l-221 -219l-67 65l223 219q-103 139 -103 299t103 299zM614 346
q166 0 279 112.5t113 278.5t-113 279.5t-279 113.5t-278.5 -113.5t-112.5 -279.5t112.5 -278.5t278.5 -112.5z" />
    <glyph glyph-name="yen" unicode="&#xa5;" 
d="M653 592h244v-129h-244v-463h-153v463h-238v129h238v31l-377 852h176l281 -666l274 666h176l-377 -852v-31z" />
    <glyph glyph-name="brokenbar" unicode="&#xa6;" 
d="M547 666v716h135v-716h-135zM547 -358v716h135v-716h-135z" />
    <glyph glyph-name="section" unicode="&#xa7;" 
d="M799 692l-359 279q-39 -19 -61.5 -53.5t-22.5 -75.5q0 -67 74 -127l358 -277q37 17 59.5 51.5t22.5 75.5q0 71 -71 127zM598 1028l121 -90q15 -11 53.5 -38t60 -43.5t55.5 -44.5t54 -52t41.5 -54t31 -63t9.5 -68q0 -73 -37.5 -123t-109.5 -100q47 -71 57 -101t10 -61
q0 -136 -91.5 -211t-231.5 -75q-73 0 -135.5 20.5t-113 62t-75 112.5t-14.5 163h147q-14 -229 186 -229q72 0 123.5 36t51.5 105q0 25 -8 48t-16.5 37.5t-30 35t-31.5 28.5t-39.5 29.5t-36.5 26.5l-119 90q-17 13 -63 46t-71 52t-63 54t-58 63.5t-36 67.5t-16 79
q0 73 37.5 123.5t109.5 100.5q-24 36 -34 53t-20.5 47.5t-10.5 61.5q0 136 90.5 211t230.5 75q73 0 136 -20.5t113.5 -61.5t75.5 -112t15 -164h-149q14 229 -185 229q-72 0 -123 -35.5t-51 -103.5q0 -21 4 -40t16 -37.5t19 -29.5t29 -29.5t28 -23.5t34 -25t30 -22z" />
    <glyph glyph-name="dieresis" unicode="&#xa8;" 
d="M289 1389q0 58 41.5 97.5t99.5 39.5t99.5 -39.5t41.5 -97.5t-41.5 -98t-99.5 -40t-99.5 40t-41.5 98zM655 1389q0 58 42 97.5t100 39.5t99.5 -39.5t41.5 -97.5t-41.5 -98t-99.5 -40t-100 40t-42 98z" />
    <glyph glyph-name="copyright" unicode="&#xa9;" 
d="M614 1503q121 0 231 -61t189.5 -163.5t126.5 -244.5t47 -297t-47 -297t-126.5 -244.5t-189.5 -163.5t-231 -61q-162 0 -299 103t-216 279t-79 384t79 384t216 279t299 103zM614 1350q-83 0 -162 -45t-141 -124t-99.5 -195t-37.5 -249q0 -166 58 -306.5t159.5 -223
t222.5 -82.5q82 0 162 48t141.5 128.5t99.5 195.5t38 240q0 123 -27 226.5t-71.5 173.5t-102.5 119t-118.5 71.5t-121.5 22.5zM774 600h141q-10 -137 -89 -220t-187 -83q-146 0 -237 128.5t-91 317.5q0 196 88 319.5t238 123.5q108 0 184.5 -77.5t93.5 -209.5h-141
q-9 69 -46 107t-93 38q-61 0 -103 -43t-60.5 -108t-18.5 -145q0 -76 20 -145t64 -117t102 -48q54 0 93 46.5t42 115.5z" />
    <glyph glyph-name="ordfeminine" unicode="&#xaa;" 
d="M866 805l-125 -17l-20 64q-47 -34 -78 -46.5t-82 -12.5q-104 0 -162.5 67t-58.5 172q0 113 71 179.5t183 66.5q45 0 106 -14q3 47 -20.5 82.5t-69.5 35.5q-28 0 -60.5 -10t-76 -28t-63.5 -25l-23 145q7 2 31 8t33.5 8t30.5 6.5t33.5 7t30.5 5t34 3.5t32 1q110 0 167 -74
t57 -198v-234q0 -103 30 -192zM700 1014v121q-64 22 -108 22q-58 0 -87.5 -38.5t-29.5 -96.5q0 -42 23.5 -75.5t64.5 -33.5q63 0 137 101zM870 653v-121h-534v121h534z" />
    <glyph glyph-name="guillemotleft" unicode="&#xab;" 
d="M1094 1260l96 -99l-459 -432l459 -432l-94 -102l-561 534zM598 1260l96 -99l-458 -432l458 -432l-96 -102l-559 534z" />
    <glyph glyph-name="logicalnot" unicode="&#xac;" 
d="M1034 330v461h-983v135h1127v-596h-144z" />
    <glyph glyph-name="uni00AD" unicode="&#xad;" 
d="M881 670h-533v129h533v-129z" />
    <glyph glyph-name="registered" unicode="&#xae;" 
d="M614 -29q-162 0 -299 102.5t-216 278.5t-79 385t79 385t216 278.5t299 102.5q161 0 298 -102.5t216.5 -279t79.5 -384.5t-79.5 -384.5t-216.5 -279t-298 -102.5zM614 125q49 0 104.5 19t116 66t109 114.5t80 175t31.5 237.5q0 134 -39 251t-101.5 195t-141.5 122.5
t-159 44.5q-64 0 -127.5 -26.5t-119.5 -80t-99.5 -126t-68.5 -171t-25 -209.5q0 -127 38 -242t99 -195t141 -127.5t162 -47.5zM754 672l155 -350h-145l-143 350h-123v-350h-129v825h311q136 0 193 -57.5t57 -194.5q0 -111 -43.5 -162.5t-132.5 -60.5zM498 793h184
q59 0 89 26.5t30 98.5q0 26 -6 45.5t-20 31t-25.5 18.5t-33 9.5t-32.5 3t-33 0.5h-153v-233z" />
    <glyph glyph-name="macron" unicode="&#xaf;" 
d="M932 1249h-637v129h637v-129z" />
    <glyph glyph-name="degree" unicode="&#xb0;" 
d="M178 1139q0 118 59.5 217t159.5 155t217 56q180 0 308.5 -124t128.5 -304q0 -118 -59.5 -216t-159.5 -154t-218 -56q-179 0 -307.5 124t-128.5 302zM342 1139q0 -112 79.5 -191.5t192.5 -79.5t193 79.5t80 191.5q0 114 -80 193t-193 79t-192.5 -79t-79.5 -193z" />
    <glyph glyph-name="plusminus" unicode="&#xb1;" 
d="M1178 909v-135h-492v-485h-143v485h-492v135h492v486h143v-486h492zM1178 215v-135h-1127v135h1127z" />
    <glyph glyph-name="twosuperior" unicode="&#xb2;" 
d="M182 803h353v-86h-455v45q0 81 26 144t63 104t107 98q30 25 39.5 33t38 35t40.5 44t24 42.5t12 48.5q0 50 -26.5 78t-75.5 28q-64 0 -94.5 -44.5t-32.5 -110.5h-105q5 107 65 174t167 67q93 0 148.5 -51.5t55.5 -142.5q0 -50 -25 -97t-63 -81.5t-82.5 -73.5t-83.5 -74
t-66 -82t-30 -98z" />
    <glyph glyph-name="threesuperior" unicode="&#xb3;" 
d="M240 1085v86q66 -3 117 33t51 101q0 49 -36 80.5t-85 31.5q-46 0 -83.5 -33t-58.5 -79l-88 49q35 67 96 108t134 41q95 0 159 -57t64 -150q0 -100 -92 -159q61 -28 94 -79.5t33 -119.5q0 -104 -70 -170t-176 -66q-89 0 -146 38t-108 118l92 53q29 -63 64 -93t98 -30
t103 38.5t40 101.5q0 85 -47.5 120t-154.5 37z" />
    <glyph glyph-name="acute" unicode="&#xb4;" 
d="M784 1587l111 -127l-395 -264l-78 100z" />
    <glyph glyph-name="mu" unicode="&#xb5;" 
d="M840 0v92q-38 -54 -97 -84.5t-125 -30.5q-69 0 -128.5 27.5t-98.5 79.5v-555h-153v1567h153v-637q0 -84 14 -148.5t36 -102t52 -61.5t57.5 -32.5t57.5 -8.5q29 0 57 7.5t61 32t57 63t40.5 107t16.5 157.5v623h153v-1096h-153z" />
    <glyph glyph-name="paragraph" unicode="&#xb6;" 
d="M543 -223v882q-185 -6 -315 108t-130 298q0 60 14 115t50 110t92 95t147 65t207 25h535v-129h-94v-1569h-154v1569h-199v-1569h-153z" />
    <glyph glyph-name="periodcentered" unicode="&#xb7;" 
d="M451 737q0 66 48.5 115t114.5 49t115 -49t49 -115t-49 -115t-115 -49t-114.5 49t-48.5 115z" />
    <glyph glyph-name="cedilla" unicode="&#xb8;" 
d="M719 78l-47 -141q76 -3 127 -43.5t51 -114.5q0 -75 -64 -120.5t-143 -45.5q-96 0 -225 59l45 113q95 -43 162 -43q71 0 71 45q0 29 -30.5 38.5t-118.5 18.5q-27 2 -41 4l82 230h131z" />
    <glyph glyph-name="onesuperior" unicode="&#xb9;" 
d="M360 1520v-725h140v-86h-385v86h143v600l-149 -45v92z" />
    <glyph glyph-name="ordmasculine" unicode="&#xba;" 
d="M883 653v-121h-535v121h535zM614 793q-135 0 -213.5 96.5t-78.5 257.5q0 74 17.5 137.5t52 113t91.5 77.5t131 28q138 0 215.5 -98t77.5 -256q0 -100 -30 -178.5t-97.5 -128t-165.5 -49.5zM614 913q46 0 78.5 21.5t49 58t23.5 74t7 80.5t-7 81t-23.5 74.5t-49 58
t-78.5 21.5t-78.5 -21.5t-48.5 -58t-23 -74t-7 -81.5q0 -43 7 -80.5t23 -74t48.5 -58t78.5 -21.5z" />
    <glyph glyph-name="guillemotright" unicode="&#xbb;" 
d="M135 1260l559 -531l-559 -534l-96 102l459 432l-459 432zM631 1260l561 -531l-561 -534l-96 102l458 432l-458 432z" />
    <glyph glyph-name="onequarter" unicode="&#xbc;" 
d="M961 281v344h-5l-180 -344h185zM948 1475h119l-676 -1475h-115zM1063 786v-505h111v-86h-111v-195h-102v195h-306v63l287 528h121zM360 1520v-725h140v-86h-385v86h143v600l-149 -45v92z" />
    <glyph glyph-name="onehalf" unicode="&#xbd;" 
d="M913 1475h119l-676 -1475h-114zM801 86h352v-86h-455v45q0 116 46 188t151 158q30 25 39.5 33t38 35t40.5 44t24 42.5t12 48.5q0 50 -27 78t-76 28q-64 0 -94.5 -44.5t-32.5 -110.5h-104q5 107 65 174t166 67q94 0 149.5 -51.5t55.5 -142.5q0 -50 -25 -97t-63 -81.5
t-82.5 -73.5t-83.5 -74t-66 -82t-30 -98zM360 1520v-725h140v-86h-385v86h143v600l-149 -45v92z" />
    <glyph glyph-name="threequarters" unicode="&#xbe;" 
d="M961 281v344h-5l-180 -344h185zM1063 786v-505h111v-86h-111v-195h-102v195h-306v63l287 528h121zM942 1475h119l-676 -1475h-115zM240 1085v86q66 -3 117 33t51 101q0 49 -36 80.5t-85 31.5q-46 0 -83.5 -33t-58.5 -79l-88 49q35 67 96 108t134 41q95 0 159 -57t64 -150
q0 -100 -92 -159q61 -28 94 -79.5t33 -119.5q0 -104 -70 -170t-176 -66q-89 0 -146 38t-108 118l92 53q29 -63 64 -93t98 -30t103 38.5t40 101.5q0 85 -47.5 120t-154.5 37z" />
    <glyph glyph-name="questiondown" unicode="&#xbf;" 
d="M551 1032h154v-217q0 -90 -35.5 -142t-147.5 -136q-59 -45 -84.5 -90t-25.5 -115q0 -103 58.5 -167.5t160.5 -64.5q101 0 157 63t56 163h153q-8 -163 -106 -259t-262 -96q-170 0 -270.5 99t-100.5 268q0 94 31.5 155t99.5 121q29 26 62.5 52.5t48 38t28.5 28t18.5 35
t4.5 47.5v217zM446 1346q0 66 49.5 111.5t116.5 45.5t115.5 -45t48.5 -112t-48.5 -113.5t-115.5 -46.5q-68 0 -117 46.5t-49 113.5z" />
    <glyph glyph-name="Agrave" unicode="&#xc0;" 
d="M616 1597l523 -1597h-166l-131 434h-449l-131 -434h-166zM616 1159l-186 -596h375zM444 1966l363 -291l-78 -100l-395 264z" />
    <glyph glyph-name="Aacute" unicode="&#xc1;" 
d="M616 1597l523 -1597h-166l-131 434h-449l-131 -434h-166zM616 1159l-186 -596h375zM784 1966l111 -127l-395 -264l-78 100z" />
    <glyph glyph-name="Acircumflex" unicode="&#xc2;" 
d="M616 1597l523 -1597h-166l-131 434h-449l-131 -434h-166zM616 1159l-186 -596h375zM614 1780l-284 -211l-82 88l366 313l367 -313l-80 -88z" />
    <glyph glyph-name="Atilde" unicode="&#xc3;" 
d="M616 1597l523 -1597h-166l-131 434h-449l-131 -434h-166zM616 1159l-186 -596h375zM895 1882l125 -51q-30 -84 -92.5 -139.5t-145.5 -55.5q-47 0 -86 16t-92 48q-2 1 -15.5 10t-17 11.5t-16 10t-18.5 10.5t-17.5 8t-19 7t-18 4t-19.5 2q-24 0 -45 -13t-37.5 -38
t-25.5 -42.5t-21 -45.5l-127 45q22 48 43.5 83.5t52.5 69.5t72.5 52t91.5 18q34 0 68 -10.5t51.5 -20t58.5 -34.5q2 -1 36 -21.5t56.5 -30.5t40.5 -10q20 0 37 8.5t26.5 16.5t22.5 30t16 29t15 33z" />
    <glyph glyph-name="Adieresis" unicode="&#xc4;" 
d="M616 1597l523 -1597h-166l-131 434h-449l-131 -434h-166zM616 1159l-186 -596h375zM289 1767q0 58 41.5 98t99.5 40t99.5 -40t41.5 -98t-41.5 -97.5t-99.5 -39.5t-99.5 39.5t-41.5 97.5zM655 1767q0 58 42 98t100 40t99.5 -40t41.5 -98t-41.5 -97.5t-99.5 -39.5
t-100 39.5t-42 97.5z" />
    <glyph glyph-name="Aring" unicode="&#xc5;" 
d="M616 1597l523 -1597h-166l-131 434h-449l-131 -434h-166zM616 1159l-186 -596h375zM428 1798q0 79 57.5 137t135.5 58t135 -58t57 -137t-57 -136.5t-135 -57.5t-135.5 57.5t-57.5 136.5zM557 1798q0 -26 19 -45.5t45 -19.5t44.5 19.5t18.5 45.5q0 27 -18.5 46.5
t-44.5 19.5t-45 -20t-19 -46z" />
    <glyph glyph-name="AE" unicode="&#xc6;" 
d="M1124 1475v-129h-415v-519h282v-129h-282v-569h432v-129h-586v440h-238l-116 -440h-160l408 1475h675zM555 569v777h-4l-199 -777h203z" />
    <glyph glyph-name="Ccedilla" unicode="&#xc7;" 
d="M1034 1155h-153q-2 93 -62 156t-153 63q-64 0 -116 -25t-86 -63.5t-59 -96.5t-38.5 -112.5t-21 -124t-9.5 -119t-2 -108.5q0 -625 317 -625q112 0 179 74t69 186h154q-12 -171 -108 -273t-261 -112l-12 -38q76 -3 127 -43.5t51 -114.5q0 -75 -64 -120.5t-143 -45.5
q-96 0 -225 59l45 113q95 -43 162 -43q71 0 71 45q0 29 -30.5 38.5t-118.5 18.5q-27 2 -41 4l47 134q-373 68 -373 747q0 76 5 145.5t18.5 149.5t35.5 146.5t60 129.5t87 106.5t120.5 70t157.5 26.5q154 0 257.5 -97t112.5 -251z" />
    <glyph glyph-name="Egrave" unicode="&#xc8;" 
d="M1051 1475v-129h-613v-525h441v-129h-441v-563h627v-129h-780v1475h766zM485 1966l363 -291l-78 -100l-395 264z" />
    <glyph glyph-name="Eacute" unicode="&#xc9;" 
d="M1051 1475v-129h-613v-525h441v-129h-441v-563h627v-129h-780v1475h766zM784 1966l111 -127l-395 -264l-78 100z" />
    <glyph glyph-name="Ecircumflex" unicode="&#xca;" 
d="M1051 1475v-129h-613v-525h441v-129h-441v-563h627v-129h-780v1475h766zM645 1780l-285 -211l-81 88l366 313l367 -313l-80 -88z" />
    <glyph glyph-name="Edieresis" unicode="&#xcb;" 
d="M1051 1475v-129h-613v-525h441v-129h-441v-563h627v-129h-780v1475h766zM319 1767q0 58 42 98t100 40t99.5 -40t41.5 -98t-41.5 -97.5t-99.5 -39.5t-100 39.5t-42 97.5zM686 1767q0 58 41.5 98t99.5 40t100 -40t42 -98t-42 -97.5t-100 -39.5t-99.5 39.5t-41.5 97.5z" />
    <glyph glyph-name="Igrave" unicode="&#xcc;" 
d="M891 1475v-129h-201v-1217h201v-129h-553v129h199v1217h-199v129h553zM444 1966l363 -291l-78 -100l-395 264z" />
    <glyph glyph-name="Iacute" unicode="&#xcd;" 
d="M891 1475v-129h-201v-1217h201v-129h-553v129h199v1217h-199v129h553zM784 1966l111 -127l-395 -264l-78 100z" />
    <glyph glyph-name="Icircumflex" unicode="&#xce;" 
d="M891 1475v-129h-201v-1217h201v-129h-553v129h199v1217h-199v129h553zM614 1780l-284 -211l-82 88l366 313l367 -313l-80 -88z" />
    <glyph glyph-name="Idieresis" unicode="&#xcf;" 
d="M891 1475v-129h-201v-1217h201v-129h-553v129h199v1217h-199v129h553zM289 1767q0 58 41.5 98t99.5 40t99.5 -40t41.5 -98t-41.5 -97.5t-99.5 -39.5t-99.5 39.5t-41.5 97.5zM655 1767q0 58 42 98t100 40t99.5 -40t41.5 -98t-41.5 -97.5t-99.5 -39.5t-100 39.5t-42 97.5z
" />
    <glyph glyph-name="Eth" unicode="&#xd0;" 
d="M229 829v646h375q89 0 159 -21.5t130.5 -73t100.5 -135t62.5 -211.5t22.5 -297t-21 -294.5t-60.5 -210t-101.5 -136.5t-138 -74t-176 -22h-353v700h-196v129h196zM383 1346v-517h248v-129h-248v-571h188q50 0 87 5t76 20t66.5 41.5t52.5 72t40 109t24 154t9 206.5
q0 119 -10 211.5t-26 156.5t-43.5 109t-55 70.5t-67.5 39.5t-74.5 18t-82.5 4h-184z" />
    <glyph glyph-name="Ntilde" unicode="&#xd1;" 
d="M236 0v1475h178l448 -1102h6v1102h154v-1489h-145l-484 1190l-4 -5v-1171h-153zM895 1882l125 -51q-30 -84 -92.5 -139.5t-145.5 -55.5q-47 0 -86 16t-92 48q-2 1 -15.5 10t-17 11.5t-16 10t-18.5 10.5t-17.5 8t-19 7t-18 4t-19.5 2q-24 0 -45 -13t-37.5 -38t-25.5 -42.5
t-21 -45.5l-127 45q22 48 43.5 83.5t52.5 69.5t72.5 52t91.5 18q34 0 68 -10.5t51.5 -20t58.5 -34.5q2 -1 36 -21.5t56.5 -30.5t40.5 -10q20 0 37 8.5t26.5 16.5t22.5 30t16 29t15 33z" />
    <glyph glyph-name="Ograve" unicode="&#xd2;" 
d="M162 737q0 180 23.5 316t63.5 220.5t99 137t123 72.5t143 20q70 0 129 -18t102 -47t77.5 -73.5t57.5 -90.5t39.5 -105.5t25.5 -110.5t14 -114.5t6.5 -107.5t1.5 -99q0 -210 -20 -327q-75 -439 -433 -439q-93 0 -167 33t-120.5 79.5t-80 122.5t-49.5 136.5t-24.5 148.5
t-9.5 131t-1 111v2v2zM614 100q50 0 90.5 14.5t81 56t67 110.5t43.5 185t17 271q0 177 -11 262q-48 374 -288 375q-56 0 -101.5 -21t-75.5 -57t-53.5 -83t-35.5 -99t-21 -105t-9.5 -101t-3 -87.5t0.5 -63.5v-20q0 -221 25 -341q61 -296 274 -296zM485 1966l363 -291
l-78 -100l-395 264z" />
    <glyph glyph-name="Oacute" unicode="&#xd3;" 
d="M162 737q0 180 23.5 316t63.5 220.5t99 137t123 72.5t143 20q70 0 129 -18t102 -47t77.5 -73.5t57.5 -90.5t39.5 -105.5t25.5 -110.5t14 -114.5t6.5 -107.5t1.5 -99q0 -210 -20 -327q-75 -439 -433 -439q-93 0 -167 33t-120.5 79.5t-80 122.5t-49.5 136.5t-24.5 148.5
t-9.5 131t-1 111v2v2zM614 100q50 0 90.5 14.5t81 56t67 110.5t43.5 185t17 271q0 177 -11 262q-48 374 -288 375q-56 0 -101.5 -21t-75.5 -57t-53.5 -83t-35.5 -99t-21 -105t-9.5 -101t-3 -87.5t0.5 -63.5v-20q0 -221 25 -341q61 -296 274 -296zM784 1966l111 -127
l-395 -264l-78 100z" />
    <glyph glyph-name="Ocircumflex" unicode="&#xd4;" 
d="M162 737q0 180 23.5 316t63.5 220.5t99 137t123 72.5t143 20q70 0 129 -18t102 -47t77.5 -73.5t57.5 -90.5t39.5 -105.5t25.5 -110.5t14 -114.5t6.5 -107.5t1.5 -99q0 -210 -20 -327q-75 -439 -433 -439q-93 0 -167 33t-120.5 79.5t-80 122.5t-49.5 136.5t-24.5 148.5
t-9.5 131t-1 111v2v2zM614 100q50 0 90.5 14.5t81 56t67 110.5t43.5 185t17 271q0 177 -11 262q-48 374 -288 375q-56 0 -101.5 -21t-75.5 -57t-53.5 -83t-35.5 -99t-21 -105t-9.5 -101t-3 -87.5t0.5 -63.5v-20q0 -221 25 -341q61 -296 274 -296zM614 1780l-284 -211l-82 88
l366 313l367 -313l-80 -88z" />
    <glyph glyph-name="Otilde" unicode="&#xd5;" 
d="M162 737q0 180 23.5 316t63.5 220.5t99 137t123 72.5t143 20q70 0 129 -18t102 -47t77.5 -73.5t57.5 -90.5t39.5 -105.5t25.5 -110.5t14 -114.5t6.5 -107.5t1.5 -99q0 -210 -20 -327q-75 -439 -433 -439q-93 0 -167 33t-120.5 79.5t-80 122.5t-49.5 136.5t-24.5 148.5
t-9.5 131t-1 111v2v2zM614 100q50 0 90.5 14.5t81 56t67 110.5t43.5 185t17 271q0 177 -11 262q-48 374 -288 375q-56 0 -101.5 -21t-75.5 -57t-53.5 -83t-35.5 -99t-21 -105t-9.5 -101t-3 -87.5t0.5 -63.5v-20q0 -221 25 -341q61 -296 274 -296zM895 1882l125 -51
q-30 -84 -92.5 -139.5t-145.5 -55.5q-47 0 -86 16t-92 48q-2 1 -15.5 10t-17 11.5t-16 10t-18.5 10.5t-17.5 8t-19 7t-18 4t-19.5 2q-24 0 -45 -13t-37.5 -38t-25.5 -42.5t-21 -45.5l-127 45q22 48 43.5 83.5t52.5 69.5t72.5 52t91.5 18q34 0 68 -10.5t51.5 -20t58.5 -34.5
q2 -1 36 -21.5t56.5 -30.5t40.5 -10q20 0 37 8.5t26.5 16.5t22.5 30t16 29t15 33z" />
    <glyph glyph-name="Odieresis" unicode="&#xd6;" 
d="M162 737q0 180 23.5 316t63.5 220.5t99 137t123 72.5t143 20q70 0 129 -18t102 -47t77.5 -73.5t57.5 -90.5t39.5 -105.5t25.5 -110.5t14 -114.5t6.5 -107.5t1.5 -99q0 -210 -20 -327q-75 -439 -433 -439q-93 0 -167 33t-120.5 79.5t-80 122.5t-49.5 136.5t-24.5 148.5
t-9.5 131t-1 111v2v2zM614 100q50 0 90.5 14.5t81 56t67 110.5t43.5 185t17 271q0 177 -11 262q-48 374 -288 375q-56 0 -101.5 -21t-75.5 -57t-53.5 -83t-35.5 -99t-21 -105t-9.5 -101t-3 -87.5t0.5 -63.5v-20q0 -221 25 -341q61 -296 274 -296zM289 1767q0 58 41.5 98
t99.5 40t99.5 -40t41.5 -98t-41.5 -97.5t-99.5 -39.5t-99.5 39.5t-41.5 97.5zM655 1767q0 58 42 98t100 40t99.5 -40t41.5 -98t-41.5 -97.5t-99.5 -39.5t-100 39.5t-42 97.5z" />
    <glyph glyph-name="multiply" unicode="&#xd7;" 
d="M614 639l-464 -467l-99 98l467 467l-467 467l99 99l464 -467l465 467l99 -99l-467 -467l467 -467l-99 -98z" />
    <glyph glyph-name="Oslash" unicode="&#xd8;" 
d="M340 391l487 858q-81 125 -213 125q-50 0 -90.5 -14.5t-81 -56t-67 -110.5t-43.5 -185t-17 -271q0 -223 25 -346zM889 1090l-488 -861q35 -59 91 -94t122 -35q49 0 88.5 13.5t80.5 55t69 109.5t45.5 185t17.5 274q0 223 -26 353zM903 1386l58 101l114 -68l-88 -153
q51 -110 66.5 -236t15.5 -293q0 -54 -1 -98t-6.5 -107t-14 -114t-25.5 -111t-39.5 -106t-57.5 -91t-78.5 -74t-103 -47t-129.5 -18q-169 0 -290 121l-86 -149l-115 67l117 205q-49 109 -63.5 233t-14.5 289q0 170 11 259q49 405 305 487q62 20 136 20q172 0 289 -117z" />
    <glyph glyph-name="Ugrave" unicode="&#xd9;" 
d="M868 1475h154v-1088q0 -101 -35.5 -182t-94 -131t-130.5 -76.5t-148 -26.5q-53 0 -104.5 12t-108 46.5t-99 87.5t-70 144t-27.5 208v1006h153v-1088q0 -76 23 -134t61 -90t81.5 -47.5t90.5 -15.5q132 0 193 84.5t61 221.5v1069zM444 1966l363 -291l-78 -100l-395 264z
" />
    <glyph glyph-name="Uacute" unicode="&#xda;" 
d="M868 1475h154v-1088q0 -101 -35.5 -182t-94 -131t-130.5 -76.5t-148 -26.5q-53 0 -104.5 12t-108 46.5t-99 87.5t-70 144t-27.5 208v1006h153v-1088q0 -76 23 -134t61 -90t81.5 -47.5t90.5 -15.5q132 0 193 84.5t61 221.5v1069zM784 1966l111 -127l-395 -264l-78 100z
" />
    <glyph glyph-name="Ucircumflex" unicode="&#xdb;" 
d="M868 1475h154v-1088q0 -101 -35.5 -182t-94 -131t-130.5 -76.5t-148 -26.5q-53 0 -104.5 12t-108 46.5t-99 87.5t-70 144t-27.5 208v1006h153v-1088q0 -76 23 -134t61 -90t81.5 -47.5t90.5 -15.5q132 0 193 84.5t61 221.5v1069zM614 1780l-284 -211l-82 88l366 313
l367 -313l-80 -88z" />
    <glyph glyph-name="Udieresis" unicode="&#xdc;" 
d="M868 1475h154v-1088q0 -101 -35.5 -182t-94 -131t-130.5 -76.5t-148 -26.5q-53 0 -104.5 12t-108 46.5t-99 87.5t-70 144t-27.5 208v1006h153v-1088q0 -76 23 -134t61 -90t81.5 -47.5t90.5 -15.5q132 0 193 84.5t61 221.5v1069zM289 1767q0 58 41.5 98t99.5 40t99.5 -40
t41.5 -98t-41.5 -97.5t-99.5 -39.5t-99.5 39.5t-41.5 97.5zM655 1767q0 58 42 98t100 40t99.5 -40t41.5 -98t-41.5 -97.5t-99.5 -39.5t-100 39.5t-42 97.5z" />
    <glyph glyph-name="Yacute" unicode="&#xdd;" 
d="M578 807l282 668h170l-377 -852v-623h-153v623l-377 852h170zM784 1966l111 -127l-395 -264l-78 100z" />
    <glyph glyph-name="Thorn" unicode="&#xde;" 
d="M274 0v1475h154v-289h201q201 0 311.5 -117t110.5 -334q0 -224 -133 -334t-361 -110h-129v-291h-154zM428 420h170q137 0 218 80.5t81 232.5q0 324 -289 324h-180v-637z" />
    <glyph glyph-name="germandbls" unicode="&#xdf;" 
d="M512 721v129q128 -2 214.5 73.5t86.5 202.5q0 99 -58 173.5t-153 74.5q-86 0 -128 -60t-42 -202v-1112h-153v1176q0 54 23 110t64.5 105t109 80.5t147.5 31.5q145 0 244.5 -113t99.5 -260q0 -106 -44.5 -186t-134.5 -145q236 -102 236 -387q0 -100 -22.5 -178.5
t-57.5 -125.5t-81 -77.5t-89.5 -42t-87.5 -11.5q-102 0 -197 72l70 113q79 -56 133 -56q49 0 86 28t56 72.5t27.5 90t8.5 90.5q0 340 -358 334z" />
    <glyph glyph-name="agrave" unicode="&#xe0;" 
d="M322 907l-35 135q96 38 166.5 57t148.5 19q101 0 179 -51t117.5 -131t39.5 -172v-475q0 -163 47 -297l-143 -19l-39 138q-113 -134 -273 -134q-151 0 -238 103t-87 256q0 165 95 280t255 115q101 0 229 -53v104q0 92 -51.5 149.5t-136.5 57.5q-23 0 -48.5 -4t-44.5 -8.5
t-48.5 -15t-42.5 -16t-47 -20t-43 -18.5zM784 295v254q-121 53 -209 53q-109 0 -163 -79t-54 -195q0 -86 44.5 -154t127.5 -68q34 0 66.5 12.5t55.5 27.5t50.5 45.5t41.5 49t40 54.5zM444 1587l363 -291l-78 -100l-395 264z" />
    <glyph glyph-name="aacute" unicode="&#xe1;" 
d="M322 907l-35 135q96 38 166.5 57t148.5 19q101 0 179 -51t117.5 -131t39.5 -172v-475q0 -163 47 -297l-143 -19l-39 138q-113 -134 -273 -134q-151 0 -238 103t-87 256q0 165 95 280t255 115q101 0 229 -53v104q0 92 -51.5 149.5t-136.5 57.5q-23 0 -48.5 -4t-44.5 -8.5
t-48.5 -15t-42.5 -16t-47 -20t-43 -18.5zM784 295v254q-121 53 -209 53q-109 0 -163 -79t-54 -195q0 -86 44.5 -154t127.5 -68q34 0 66.5 12.5t55.5 27.5t50.5 45.5t41.5 49t40 54.5zM784 1587l111 -127l-395 -264l-78 100z" />
    <glyph glyph-name="acircumflex" unicode="&#xe2;" 
d="M322 907l-35 135q96 38 166.5 57t148.5 19q101 0 179 -51t117.5 -131t39.5 -172v-475q0 -163 47 -297l-143 -19l-39 138q-113 -134 -273 -134q-151 0 -238 103t-87 256q0 165 95 280t255 115q101 0 229 -53v104q0 92 -51.5 149.5t-136.5 57.5q-23 0 -48.5 -4t-44.5 -8.5
t-48.5 -15t-42.5 -16t-47 -20t-43 -18.5zM784 295v254q-121 53 -209 53q-109 0 -163 -79t-54 -195q0 -86 44.5 -154t127.5 -68q34 0 66.5 12.5t55.5 27.5t50.5 45.5t41.5 49t40 54.5zM614 1401l-284 -211l-82 88l366 313l367 -313l-80 -88z" />
    <glyph glyph-name="atilde" unicode="&#xe3;" 
d="M322 907l-35 135q96 38 166.5 57t148.5 19q101 0 179 -51t117.5 -131t39.5 -172v-475q0 -163 47 -297l-143 -19l-39 138q-113 -134 -273 -134q-151 0 -238 103t-87 256q0 165 95 280t255 115q101 0 229 -53v104q0 92 -51.5 149.5t-136.5 57.5q-23 0 -48.5 -4t-44.5 -8.5
t-48.5 -15t-42.5 -16t-47 -20t-43 -18.5zM784 295v254q-121 53 -209 53q-109 0 -163 -79t-54 -195q0 -86 44.5 -154t127.5 -68q34 0 66.5 12.5t55.5 27.5t50.5 45.5t41.5 49t40 54.5zM895 1503l125 -51q-30 -84 -92.5 -139.5t-145.5 -55.5q-47 0 -86 16t-92 48
q-2 1 -15.5 10t-17 11.5t-16 10t-18.5 10.5t-17.5 8t-19 7t-18 4t-19.5 2q-24 0 -45 -13t-37.5 -38t-25.5 -42.5t-21 -45.5l-127 45q22 48 43.5 83.5t52.5 69.5t72.5 52t91.5 18q34 0 68 -10.5t51.5 -20t58.5 -34.5q2 -1 36 -21.5t56.5 -30.5t40.5 -10q20 0 37 8.5
t26.5 16.5t22.5 30t16 29t15 33z" />
    <glyph glyph-name="adieresis" unicode="&#xe4;" 
d="M322 907l-35 135q96 38 166.5 57t148.5 19q101 0 179 -51t117.5 -131t39.5 -172v-475q0 -163 47 -297l-143 -19l-39 138q-113 -134 -273 -134q-151 0 -238 103t-87 256q0 165 95 280t255 115q101 0 229 -53v104q0 92 -51.5 149.5t-136.5 57.5q-23 0 -48.5 -4t-44.5 -8.5
t-48.5 -15t-42.5 -16t-47 -20t-43 -18.5zM784 295v254q-121 53 -209 53q-109 0 -163 -79t-54 -195q0 -86 44.5 -154t127.5 -68q34 0 66.5 12.5t55.5 27.5t50.5 45.5t41.5 49t40 54.5zM655 1389q0 58 42 97.5t100 39.5t99.5 -39.5t41.5 -97.5t-41.5 -98t-99.5 -40t-100 40
t-42 98zM289 1389q0 58 41.5 97.5t99.5 39.5t99.5 -39.5t41.5 -97.5t-41.5 -98t-99.5 -40t-99.5 40t-41.5 98z" />
    <glyph glyph-name="aring" unicode="&#xe5;" 
d="M322 907l-35 135q96 38 166.5 57t148.5 19q101 0 179 -51t117.5 -131t39.5 -172v-475q0 -163 47 -297l-143 -19l-39 138q-113 -134 -273 -134q-151 0 -238 103t-87 256q0 165 95 280t255 115q101 0 229 -53v104q0 92 -51.5 149.5t-136.5 57.5q-23 0 -48.5 -4t-44.5 -8.5
t-48.5 -15t-42.5 -16t-47 -20t-43 -18.5zM784 295v254q-121 53 -209 53q-109 0 -163 -79t-54 -195q0 -86 44.5 -154t127.5 -68q34 0 66.5 12.5t55.5 27.5t50.5 45.5t41.5 49t40 54.5zM414 1411q0 79 57 137t135 58t135.5 -58t57.5 -137t-57.5 -136.5t-135.5 -57.5t-135 57.5
t-57 136.5zM543 1411q0 -26 18.5 -45.5t44.5 -19.5t45 19.5t19 45.5t-19 46t-45 20t-44.5 -19.5t-18.5 -46.5z" />
    <glyph glyph-name="ae" unicode="&#xe6;" 
d="M684 639h297q-1 42 -5.5 84t-17.5 92t-33.5 87t-56.5 62t-82 25q-55 0 -78.5 -38.5t-23.5 -131.5v-180zM530 324v237q-50 35 -116 35q-50 0 -87.5 -25.5t-57.5 -67.5t-29 -86.5t-9 -90.5q0 -56 18 -104.5t59 -82t98 -33.5q30 0 52.5 8t35.5 26.5t21 34.5t11 47t3.5 48.5
t0.5 53.5zM684 510v-227q0 -37 3.5 -63t14 -55t34.5 -44t61 -15q48 0 111 24t93.5 41.5t100.5 59.5l55 -127q-102 -60 -190.5 -93.5t-180.5 -33.5q-60 0 -99 17t-85 59q-87 -76 -217 -76q-145 0 -226 102.5t-81 252.5q0 82 21 150.5t53.5 112.5t74.5 74t83 43t79 13
q59 0 141 -20v67q0 32 -0.5 52t-5.5 55t-14 56t-28 37.5t-46 16.5q-32 0 -70 -14t-62 -28.5t-66.5 -43t-57.5 -37.5l-35 140q184 112 295 112q54 0 87 -14.5t83 -52.5q76 67 191 67q29 0 56.5 -5t61.5 -20.5t63.5 -39.5t58.5 -67t49 -98.5t32.5 -137.5t12.5 -181v-59h-451z
" />
    <glyph glyph-name="ccedilla" unicode="&#xe7;" 
d="M963 287l104 -109q-92 -98 -179.5 -149t-201.5 -52l-14 -40q76 -3 127 -43.5t51 -114.5q0 -75 -64 -120.5t-143 -45.5q-96 0 -225 59l45 113q95 -43 162 -43q71 0 71 45q0 29 -30.5 38.5t-118.5 18.5q-27 2 -41 4l51 146q-55 13 -104.5 38t-96 69.5t-80 103.5
t-53.5 144.5t-20 187.5q0 127 28 228.5t73 166t107 107.5t126 61t133 18q241 0 403 -244l-133 -88q-101 203 -270 203q-62 0 -115.5 -23.5t-99.5 -73t-72.5 -137t-26.5 -204.5q0 -99 20 -177.5t51.5 -127.5t74 -81.5t85 -45.5t87.5 -13q82 0 151 49.5t138 131.5z" />
    <glyph glyph-name="egrave" unicode="&#xe8;" 
d="M1061 508h-729q6 -213 90 -307.5t221 -94.5q150 0 342 117l66 -137q-119 -53 -217 -81t-203 -28q-117 0 -206.5 47.5t-142 128.5t-78.5 179t-26 209q0 89 16 170.5t52 156.5t88.5 130t131 87.5t173.5 32.5q75 0 138 -23t105.5 -60t75.5 -87t52 -99t31 -101t16 -89t4 -67
v-84zM330 637h577q-5 143 -81 247.5t-199 104.5q-124 0 -194.5 -89t-102.5 -263zM485 1587l363 -291l-78 -100l-395 264z" />
    <glyph glyph-name="eacute" unicode="&#xe9;" 
d="M1061 508h-729q6 -213 90 -307.5t221 -94.5q150 0 342 117l66 -137q-119 -53 -217 -81t-203 -28q-117 0 -206.5 47.5t-142 128.5t-78.5 179t-26 209q0 89 16 170.5t52 156.5t88.5 130t131 87.5t173.5 32.5q75 0 138 -23t105.5 -60t75.5 -87t52 -99t31 -101t16 -89t4 -67
v-84zM330 637h577q-5 143 -81 247.5t-199 104.5q-124 0 -194.5 -89t-102.5 -263zM784 1587l111 -127l-395 -264l-78 100z" />
    <glyph glyph-name="ecircumflex" unicode="&#xea;" 
d="M1061 508h-729q6 -213 90 -307.5t221 -94.5q150 0 342 117l66 -137q-119 -53 -217 -81t-203 -28q-117 0 -206.5 47.5t-142 128.5t-78.5 179t-26 209q0 89 16 170.5t52 156.5t88.5 130t131 87.5t173.5 32.5q75 0 138 -23t105.5 -60t75.5 -87t52 -99t31 -101t16 -89t4 -67
v-84zM330 637h577q-5 143 -81 247.5t-199 104.5q-124 0 -194.5 -89t-102.5 -263zM614 1401l-284 -211l-82 88l366 313l367 -313l-80 -88z" />
    <glyph glyph-name="edieresis" unicode="&#xeb;" 
d="M1061 508h-729q6 -213 90 -307.5t221 -94.5q150 0 342 117l66 -137q-119 -53 -217 -81t-203 -28q-117 0 -206.5 47.5t-142 128.5t-78.5 179t-26 209q0 89 16 170.5t52 156.5t88.5 130t131 87.5t173.5 32.5q75 0 138 -23t105.5 -60t75.5 -87t52 -99t31 -101t16 -89t4 -67
v-84zM330 637h577q-5 143 -81 247.5t-199 104.5q-124 0 -194.5 -89t-102.5 -263zM289 1389q0 58 41.5 97.5t99.5 39.5t99.5 -39.5t41.5 -97.5t-41.5 -98t-99.5 -40t-99.5 40t-41.5 98zM655 1389q0 58 42 97.5t100 39.5t99.5 -39.5t41.5 -97.5t-41.5 -98t-99.5 -40t-100 40
t-42 98z" />
    <glyph glyph-name="igrave" unicode="&#xec;" 
d="M565 0v967h-311v129h465v-1096h-154zM444 1587l363 -291l-78 -100l-395 264z" />
    <glyph glyph-name="iacute" unicode="&#xed;" 
d="M565 0v967h-311v129h465v-1096h-154zM784 1587l111 -127l-395 -264l-78 100z" />
    <glyph glyph-name="icircumflex" unicode="&#xee;" 
d="M565 0v967h-311v129h465v-1096h-154zM532 1401l-284 -211l-82 88l366 313l367 -313l-80 -88z" />
    <glyph glyph-name="idieresis" unicode="&#xef;" 
d="M565 0v967h-311v129h465v-1096h-154zM289 1389q0 58 41.5 97.5t99.5 39.5t99.5 -39.5t41.5 -97.5t-41.5 -98t-99.5 -40t-99.5 40t-41.5 98zM655 1389q0 58 42 97.5t100 39.5t99.5 -39.5t41.5 -97.5t-41.5 -98t-99.5 -40t-100 40t-42 98z" />
    <glyph glyph-name="eth" unicode="&#xf0;" 
d="M614 106q58 0 104 19t76 54t51 76.5t32 94t15.5 99t4.5 98.5t-4.5 98.5t-15.5 99t-32 94.5t-51 77t-76 54t-104 19q-69 0 -121 -28.5t-81.5 -72t-47.5 -105.5t-24 -117.5t-6 -118.5t6 -118.5t24 -117t47.5 -105t81.5 -72t121 -28.5zM618 1294l-278 -127l-90 70l270 129
q-107 69 -266 109l102 45q146 -19 285 -99l219 99l94 -72l-211 -96q140 -116 224 -296t84 -425q0 -654 -437 -654q-61 0 -118.5 16.5t-116 57.5t-102 103.5t-70.5 164t-27 228.5q0 123 26 222t68.5 163t99.5 107t115.5 61t120.5 18q112 0 226 -102l4 4q-69 158 -222 274z
" />
    <glyph glyph-name="ntilde" unicode="&#xf1;" 
d="M381 457v-457h-154v551q0 337 -49 545h148l34 -201q60 100 160 161.5t213 61.5q125 0 194.5 -99.5t69.5 -246.5v-772h-153v727q0 31 -0.5 48t-3 48.5t-7 51t-14.5 43.5t-24 38t-36 23.5t-50 9.5q-45 0 -90 -18t-88 -59t-76 -101t-53.5 -151.5t-20.5 -202.5zM874 1503
l125 -51q-30 -84 -92 -139.5t-145 -55.5q-47 0 -86 16t-92 48q-1 1 -13.5 9.5t-15.5 10t-14.5 9t-16 9.5t-15.5 7.5t-17.5 7.5t-15.5 5t-17.5 4t-16.5 1q-24 0 -45 -13t-37.5 -38t-25.5 -42.5t-21 -45.5l-127 45q22 48 43.5 83.5t52.5 69.5t72.5 52t91.5 18q34 0 68 -10.5
t52.5 -20.5t58.5 -34q2 -1 36 -21.5t56.5 -30.5t40.5 -10q23 0 41 9t31.5 27.5t21 32.5t18.5 39q3 6 4 9z" />
    <glyph glyph-name="ograve" unicode="&#xf2;" 
d="M614 -23q-61 0 -118.5 16.5t-116 57.5t-102 103.5t-70.5 164t-27 228.5q0 123 25.5 222t67 163t98.5 107t117.5 61t125.5 18q80 0 146 -22.5t110 -59t78 -87.5t53 -102t31 -109.5t15.5 -102.5t3.5 -88q0 -123 -25.5 -221.5t-67.5 -162.5t-99.5 -107t-118 -61t-126.5 -18z
M614 106q58 0 104 19t76 54t51 76.5t32 94t15.5 99t4.5 98.5t-4.5 98.5t-15.5 99t-32 94.5t-51 77t-76 54t-104 19q-69 0 -121 -28.5t-81.5 -72t-47.5 -105.5t-24 -117.5t-6 -118.5t6 -118.5t24 -117t47.5 -105t81.5 -72t121 -28.5zM485 1587l363 -291l-78 -100l-395 264z
" />
    <glyph glyph-name="oacute" unicode="&#xf3;" 
d="M614 -23q-61 0 -118.5 16.5t-116 57.5t-102 103.5t-70.5 164t-27 228.5q0 123 25.5 222t67 163t98.5 107t117.5 61t125.5 18q80 0 146 -22.5t110 -59t78 -87.5t53 -102t31 -109.5t15.5 -102.5t3.5 -88q0 -123 -25.5 -221.5t-67.5 -162.5t-99.5 -107t-118 -61t-126.5 -18z
M614 106q58 0 104 19t76 54t51 76.5t32 94t15.5 99t4.5 98.5t-4.5 98.5t-15.5 99t-32 94.5t-51 77t-76 54t-104 19q-69 0 -121 -28.5t-81.5 -72t-47.5 -105.5t-24 -117.5t-6 -118.5t6 -118.5t24 -117t47.5 -105t81.5 -72t121 -28.5zM784 1587l111 -127l-395 -264l-78 100z
" />
    <glyph glyph-name="ocircumflex" unicode="&#xf4;" 
d="M614 -23q-61 0 -118.5 16.5t-116 57.5t-102 103.5t-70.5 164t-27 228.5q0 123 25.5 222t67 163t98.5 107t117.5 61t125.5 18q80 0 146 -22.5t110 -59t78 -87.5t53 -102t31 -109.5t15.5 -102.5t3.5 -88q0 -123 -25.5 -221.5t-67.5 -162.5t-99.5 -107t-118 -61t-126.5 -18z
M614 106q58 0 104 19t76 54t51 76.5t32 94t15.5 99t4.5 98.5t-4.5 98.5t-15.5 99t-32 94.5t-51 77t-76 54t-104 19q-69 0 -121 -28.5t-81.5 -72t-47.5 -105.5t-24 -117.5t-6 -118.5t6 -118.5t24 -117t47.5 -105t81.5 -72t121 -28.5zM614 1401l-284 -211l-82 88l366 313
l367 -313l-80 -88z" />
    <glyph glyph-name="otilde" unicode="&#xf5;" 
d="M614 -23q-61 0 -118.5 16.5t-116 57.5t-102 103.5t-70.5 164t-27 228.5q0 123 25.5 222t67 163t98.5 107t117.5 61t125.5 18q80 0 146 -22.5t110 -59t78 -87.5t53 -102t31 -109.5t15.5 -102.5t3.5 -88q0 -123 -25.5 -221.5t-67.5 -162.5t-99.5 -107t-118 -61t-126.5 -18z
M614 106q58 0 104 19t76 54t51 76.5t32 94t15.5 99t4.5 98.5t-4.5 98.5t-15.5 99t-32 94.5t-51 77t-76 54t-104 19q-69 0 -121 -28.5t-81.5 -72t-47.5 -105.5t-24 -117.5t-6 -118.5t6 -118.5t24 -117t47.5 -105t81.5 -72t121 -28.5zM895 1503l125 -51q-30 -84 -92.5 -139.5
t-145.5 -55.5q-47 0 -86 16t-92 48q-2 1 -15.5 10t-17 11.5t-16 10t-18.5 10.5t-17.5 8t-19 7t-18 4t-19.5 2q-24 0 -45 -13t-37.5 -38t-25.5 -42.5t-21 -45.5l-127 45q22 48 43.5 83.5t52.5 69.5t72.5 52t91.5 18q34 0 68 -10.5t51.5 -20t58.5 -34.5q2 -1 36 -21.5
t56.5 -30.5t40.5 -10q20 0 37 8.5t26.5 16.5t22.5 30t16 29t15 33z" />
    <glyph glyph-name="odieresis" unicode="&#xf6;" 
d="M614 -23q-61 0 -118.5 16.5t-116 57.5t-102 103.5t-70.5 164t-27 228.5q0 123 25.5 222t67 163t98.5 107t117.5 61t125.5 18q80 0 146 -22.5t110 -59t78 -87.5t53 -102t31 -109.5t15.5 -102.5t3.5 -88q0 -123 -25.5 -221.5t-67.5 -162.5t-99.5 -107t-118 -61t-126.5 -18z
M614 106q58 0 104 19t76 54t51 76.5t32 94t15.5 99t4.5 98.5t-4.5 98.5t-15.5 99t-32 94.5t-51 77t-76 54t-104 19q-69 0 -121 -28.5t-81.5 -72t-47.5 -105.5t-24 -117.5t-6 -118.5t6 -118.5t24 -117t47.5 -105t81.5 -72t121 -28.5zM289 1389q0 58 41.5 97.5t99.5 39.5
t99.5 -39.5t41.5 -97.5t-41.5 -98t-99.5 -40t-99.5 40t-41.5 98zM655 1389q0 58 42 97.5t100 39.5t99.5 -39.5t41.5 -97.5t-41.5 -98t-99.5 -40t-100 40t-42 98z" />
    <glyph glyph-name="divide" unicode="&#xf7;" 
d="M1178 805v-135h-1127v135h1127zM727 430q0 -46 -33.5 -79.5t-79.5 -33.5t-79 33.5t-33 79.5t33 79.5t79 33.5t79.5 -33.5t33.5 -79.5zM727 1044q0 -46 -33.5 -79t-79.5 -33t-79 33t-33 79t33 79.5t79 33.5t79.5 -33.5t33.5 -79.5z" />
    <glyph glyph-name="oslash" unicode="&#xf8;" 
d="M838 1053l71 116l109 -75l-82 -131q117 -148 117 -416q0 -152 -38.5 -266.5t-103 -178.5t-139 -94.5t-156.5 -30.5q-126 0 -235 74l-72 -121l-108 74l86 139q-107 146 -107 404q0 152 38.5 267t103 179t138.5 94.5t156 30.5q122 0 222 -65zM373 287l397 651
q-66 51 -154 51q-282 0 -282 -454q0 -140 39 -248zM854 825l-403 -661q69 -58 165 -58q283 0 283 453q0 149 -45 266z" />
    <glyph glyph-name="ugrave" unicode="&#xf9;" 
d="M850 647v449h154v-531q0 -362 47 -565h-146l-35 211q-57 -96 -158 -165t-202 -69q-93 0 -157.5 50.5t-92 129t-27.5 177.5v762h154v-717q0 -36 1 -56.5t4 -58.5t12 -61t23 -48t38.5 -37t56.5 -12q47 0 92.5 20t88.5 64t75.5 106t52 153t19.5 198zM444 1587l363 -291
l-78 -100l-395 264z" />
    <glyph glyph-name="uacute" unicode="&#xfa;" 
d="M850 647v449h154v-531q0 -362 47 -565h-146l-35 211q-57 -96 -158 -165t-202 -69q-93 0 -157.5 50.5t-92 129t-27.5 177.5v762h154v-717q0 -36 1 -56.5t4 -58.5t12 -61t23 -48t38.5 -37t56.5 -12q47 0 92.5 20t88.5 64t75.5 106t52 153t19.5 198zM784 1587l111 -127
l-395 -264l-78 100z" />
    <glyph glyph-name="ucircumflex" unicode="&#xfb;" 
d="M850 647v449h154v-531q0 -362 47 -565h-146l-35 211q-57 -96 -158 -165t-202 -69q-93 0 -157.5 50.5t-92 129t-27.5 177.5v762h154v-717q0 -36 1 -56.5t4 -58.5t12 -61t23 -48t38.5 -37t56.5 -12q47 0 92.5 20t88.5 64t75.5 106t52 153t19.5 198zM614 1401l-284 -211
l-82 88l366 313l367 -313l-80 -88z" />
    <glyph glyph-name="udieresis" unicode="&#xfc;" 
d="M850 647v449h154v-531q0 -362 47 -565h-146l-35 211q-57 -96 -158 -165t-202 -69q-93 0 -157.5 50.5t-92 129t-27.5 177.5v762h154v-717q0 -36 1 -56.5t4 -58.5t12 -61t23 -48t38.5 -37t56.5 -12q47 0 92.5 20t88.5 64t75.5 106t52 153t19.5 198zM289 1389
q0 58 41.5 97.5t99.5 39.5t99.5 -39.5t41.5 -97.5t-41.5 -98t-99.5 -40t-99.5 40t-41.5 98zM655 1389q0 58 42 97.5t100 39.5t99.5 -39.5t41.5 -97.5t-41.5 -98t-99.5 -40t-100 40t-42 98z" />
    <glyph glyph-name="yacute" unicode="&#xfd;" 
d="M911 1096h164l-405 -1028q-20 -52 -34.5 -86t-40.5 -87t-53.5 -88.5t-62.5 -70.5t-78.5 -52.5t-91.5 -17.5q-101 0 -174 67.5t-104 170.5l129 67q11 -28 17.5 -44.5t21.5 -45t29.5 -44.5t36 -29t44.5 -13q30 0 56.5 17.5t49 52.5t33 56t27.5 59l72 165l-352 951h165
l267 -746zM784 1587l111 -127l-395 -264l-78 100z" />
    <glyph glyph-name="thorn" unicode="&#xfe;" 
d="M387 1520v-504q105 102 240 102q61 0 120 -18t118 -61.5t103 -108t71.5 -165t27.5 -224.5q0 -119 -29.5 -217.5t-76.5 -161.5t-107 -106t-118.5 -61t-114.5 -18q-112 0 -234 64v-461h-154v1940h154zM387 799v-602q113 -91 209 -91q140 0 228.5 116.5t88.5 324.5
q0 102 -20.5 183t-51.5 128t-71.5 78t-76 42t-68.5 11q-86 0 -141.5 -51t-96.5 -139z" />
    <glyph glyph-name="ydieresis" unicode="&#xff;" 
d="M911 1096h164l-405 -1028q-20 -52 -34.5 -86t-40.5 -87t-53.5 -88.5t-62.5 -70.5t-78.5 -52.5t-91.5 -17.5q-101 0 -174 67.5t-104 170.5l129 67q11 -28 17.5 -44.5t21.5 -45t29.5 -44.5t36 -29t44.5 -13q30 0 56.5 17.5t49 52.5t33 56t27.5 59l72 165l-352 951h165
l267 -746zM289 1389q0 58 41.5 97.5t99.5 39.5t99.5 -39.5t41.5 -97.5t-41.5 -98t-99.5 -40t-99.5 40t-41.5 98zM655 1389q0 58 42 97.5t100 39.5t99.5 -39.5t41.5 -97.5t-41.5 -98t-99.5 -40t-100 40t-42 98z" />
    <glyph glyph-name="dcroat" unicode="&#x111;" 
d="M774 295v604q-108 90 -207 90q-63 0 -118.5 -27t-100 -79t-70.5 -138t-26 -196q0 -102 20.5 -182.5t51.5 -128t71.5 -78.5t76 -42.5t69.5 -11.5q83 0 141 52.5t92 136.5zM928 1229v-838q0 -235 55 -395l-145 -19l-33 123q-79 -71 -129.5 -97t-138.5 -26q-50 0 -99.5 13.5
t-99.5 40.5t-93 74t-76 108.5t-52 149.5t-19 192q0 101 20.5 186.5t55.5 145.5t79.5 106t95.5 72.5t99.5 39.5t94.5 13q66 0 118 -15t113 -48v174h-254v119h254v172h154v-172h235v-119h-235z" />
    <glyph glyph-name="Hbar" unicode="&#x126;" 
d="M358 1075v-246h512v246h-512zM870 1204v271h154v-271h160v-129h-160v-1075h-154v700h-512v-700h-153v1075h-164v129h164v271h153v-271h512z" />
    <glyph glyph-name="hbar" unicode="&#x127;" 
d="M395 1520v-195h281v-121h-281v-266q61 82 147 131t183 49q32 0 57 -3.5t56 -15t54 -32t45.5 -57.5t37.5 -87.5t24 -125t9 -168.5v-629h-154v641q0 27 -0.5 44t-2 52t-5 59t-9.5 56t-17 54t-25 42.5t-34.5 30.5t-45.5 10q-81 0 -153 -59t-111 -139q-28 -57 -41 -129.5
t-14 -114t-1 -139.5v-408h-153v1204h-213v121h213v195h153z" />
    <glyph glyph-name="dotlessi" unicode="&#x131;" 
d="M565 0v967h-311v129h465v-1096h-154z" />
    <glyph glyph-name="IJ" unicode="&#x132;" 
d="M399 1475v-129h-114v-1217h114v-129h-379v129h111v1217h-111v129h379zM678 1475h426v-998q0 -506 -342 -506q-162 0 -244 106.5t-82 311.5v184h154v-161q0 -33 0.5 -50t3.5 -55t9 -61.5t19 -54.5t31 -49t47 -31t66 -13q57 0 95.5 31.5t57 89t25 116.5t6.5 136v875h-272
v129z" />
    <glyph glyph-name="ij" unicode="&#x133;" 
d="M37 1096h397v-1096h-153v967h-244v129zM348 1503q54 0 91.5 -37t37.5 -92t-37.5 -92t-91.5 -37t-91.5 37t-37.5 92t37.5 92t91.5 37zM629 1096h401v-1014q0 -197 -93.5 -306.5t-266.5 -109.5q-152 0 -262 113l94 119q75 -103 180 -103q96 0 145.5 67.5t49.5 219.5v885
h-248v129zM940 1503q54 0 91.5 -37t37.5 -92t-37.5 -92t-91.5 -37t-91.5 37t-37.5 92t37.5 92t91.5 37z" />
    <glyph glyph-name="kgreenlandic" unicode="&#x138;" 
d="M604 594l539 -594h-203l-430 504l-70 -70v-434h-153v1118h153v-502q166 166 256 273q13 15 37 44t35 41.5t28 31.5t30 31.5t26 23.5q77 62 203 57v-127q-67 6 -119 -29.5t-123 -130.5q-59 -79 -209 -237z" />
    <glyph glyph-name="Ldot" unicode="&#x13f;" 
d="M471 1475v-1346h639v-129h-793v1475h154zM848 741q0 58 41.5 98t99.5 40t99.5 -40t41.5 -98t-41.5 -97.5t-99.5 -39.5t-99.5 39.5t-41.5 97.5z" />
    <glyph glyph-name="ldot" unicode="&#x140;" 
d="M549 0v1391h-311v129h464v-1520h-153zM1069 772q0 58 41.5 97.5t99.5 39.5t100 -39.5t42 -97.5t-42 -97.5t-100 -39.5t-99.5 39.5t-41.5 97.5z" />
    <glyph glyph-name="Lslash" unicode="&#x141;" 
d="M449 885l372 180v-166l-372 -151v-619h632v-129h-786v684l-232 -104v145l232 94v656h154v-590z" />
    <glyph glyph-name="lslash" unicode="&#x142;" 
d="M702 979l279 127v-152l-279 -127v-827h-153v762l-293 -135v149l293 137v478h-311v129h464v-541z" />
    <glyph glyph-name="napostrophe" unicode="&#x149;" 
d="M61 997v140q81 16 132 65q-58 5 -97 44t-39 97q0 70 46 115t116 45q74 0 122 -55.5t48 -130.5q0 -62 -29.5 -117t-78.5 -94.5t-105 -67t-115 -41.5zM545 457v-457h-154v551q0 337 -49 545h147l35 -201q60 100 160 161.5t213 61.5q125 0 194.5 -99.5t69.5 -246.5v-772
h-153v727q0 35 -1 56.5t-4.5 57t-12 57.5t-23 45.5t-39 34.5t-56.5 11q-45 0 -89.5 -18t-88 -59t-76.5 -101t-53 -151.5t-20 -202.5z" />
    <glyph glyph-name="Eng" unicode="&#x14a;" 
d="M381 614v-614h-154v741q0 452 -49 734h148l34 -273q60 134 160 217.5t213 83.5q84 0 145 -65t90 -168.5t29 -231.5v-932q0 -106 -33 -191t-90 -138.5t-129.5 -82t-154.5 -28.5q-121 0 -248 82l76 113q89 -66 190 -66q106 0 171 82t65 221v879q0 37 -0.5 57.5t-1.5 59.5
t-5 63.5t-10 58t-16 54.5t-24 41t-33.5 29.5t-44.5 9.5q-57 0 -113 -43.5t-105 -128.5t-79.5 -232t-30.5 -332z" />
    <glyph glyph-name="eng" unicode="&#x14b;" 
d="M381 457v-457h-154v551q0 337 -49 545h148l34 -201q60 100 160 161.5t213 61.5q125 0 194.5 -99.5t69.5 -246.5v-666q0 -98 -27.5 -176.5t-70 -126.5t-98.5 -80t-108 -44.5t-103 -12.5q-142 0 -277 103l88 104q95 -78 207 -78q77 0 132 44t79.5 111t24.5 148v629
q0 31 -0.5 48t-3 48.5t-7 51t-14.5 43.5t-24 38t-36 23.5t-50 9.5q-45 0 -90 -18t-88 -59t-76 -101t-53.5 -151.5t-20.5 -202.5z" />
    <glyph glyph-name="OE" unicode="&#x152;" 
d="M1210 1475v-129h-415v-519h282v-129h-282v-569h432v-129h-551q-33 -13 -80 -23q-40 -6 -82 -6q-71 0 -130 16.5t-102.5 43.5t-78 70t-57 86.5t-39 103.5t-25.5 110.5t-14 118t-6 115.5t-1 113q0 232 29 363q85 392 432 392q72 0 154 -28h534zM641 129v1214
q-86 31 -125 31q-50 0 -91 -15t-81 -56.5t-67.5 -109t-44.5 -180t-17 -261.5q0 -161 14.5 -278.5t39.5 -188.5t64.5 -113t82 -57t100.5 -15q54 0 125 29z" />
    <glyph glyph-name="oe" unicode="&#x153;" 
d="M1135 510h-449v-227q0 -33 1 -51t6.5 -46t16.5 -42.5t33 -26t54 -11.5q48 0 111 24t93.5 41.5t100.5 59.5l55 -127q-102 -60 -190.5 -93.5t-180.5 -33.5q-55 0 -95.5 16t-84.5 52q-40 -33 -73.5 -50.5t-71.5 -17.5q-50 0 -100 17t-101.5 59.5t-90 105.5t-63 163.5
t-24.5 224.5t23.5 224.5t61 163.5t87.5 105.5t99.5 60t99.5 17.5q64 0 168 -59q48 32 87 45.5t93 13.5q24 0 50 -4.5t60 -19t64 -37t60 -62t51.5 -91t35 -128t13.5 -168.5v-98zM532 164v794q-39 27 -61 30q-6 1 -12 1q-26 0 -53.5 -11.5t-58.5 -42.5t-55 -78.5t-40 -128
t-16 -181.5q0 -121 22 -212t56 -138t67 -69t63 -22q52 0 88 58zM686 639h295q-1 42 -5.5 84t-17.5 92t-33.5 87t-56.5 62t-82 25q-54 0 -77 -38.5t-23 -131.5v-180z" />
    <glyph glyph-name="Scaron" unicode="&#x160;" 
d="M1028 1319l-92 -111q-57 51 -96.5 81t-102 57.5t-121.5 27.5q-100 0 -168.5 -63t-68.5 -162q0 -35 6 -59t25.5 -57.5t64.5 -70.5t117 -81l117 -72q207 -127 275.5 -208t68.5 -208q0 -196 -119.5 -309t-315.5 -113q-258 0 -446 240l119 94q58 -92 142 -148.5t185 -56.5
q117 0 199 78t82 195q0 35 -1.5 54t-10 45t-25 45t-47 46t-74.5 56t-110 69l-133 80q-49 29 -85 54t-73.5 60.5t-61 71.5t-38.5 84t-15 101q0 168 113 266t285 98q205 0 405 -184zM614 1759l287 211l80 -88l-367 -313l-366 313l80 88z" />
    <glyph glyph-name="scaron" unicode="&#x161;" 
d="M950 991l-67 -125q-82 58 -150 90.5t-143 32.5q-71 0 -124.5 -47.5t-53.5 -118.5q0 -30 14.5 -57.5t35 -46t52 -36.5t54.5 -28t55 -22q46 -17 74.5 -28.5t70 -31t67 -37.5t55 -45t46.5 -56.5t28 -69t11 -84.5q0 -131 -101 -217.5t-233 -86.5q-119 0 -237 52.5t-214 138.5
l84 123q71 -76 168.5 -130.5t188.5 -54.5q81 0 135.5 44t54.5 124q0 40 -13.5 73t-30.5 53.5t-51.5 40.5t-57.5 30t-66 26q-5 2 -8 3q-42 16 -68.5 26.5t-65.5 29.5t-64 36t-54 43t-45.5 53t-27.5 63.5t-11 77.5q0 120 98 204.5t240 84.5q177 0 354 -127zM614 1380l287 211
l80 -88l-367 -313l-366 313l80 88z" />
    <glyph glyph-name="Tbar" unicode="&#x166;" 
d="M1108 1346h-420v-549h268v-121h-268v-676h-153v676h-263v121h263v549h-412v129h985v-129z" />
    <glyph glyph-name="tbar" unicode="&#x167;" 
d="M555 760h391v-129h-391v-289q0 -35 1 -55.5t4.5 -52t13 -51t24 -39t39.5 -29t59 -9.5q146 0 232 193l147 -37q-60 -129 -156.5 -207t-226.5 -78q-70 0 -121 19t-90.5 64.5t-59.5 128t-20 202.5v240h-235v129h235v207h-235v129h235v336h154v-336h391v-129h-391v-207z" />
    <glyph glyph-name="Ydieresis" unicode="&#x178;" 
d="M578 807l282 668h170l-377 -852v-623h-153v623l-377 852h170zM248 1767q0 58 41.5 98t99.5 40t99.5 -40t41.5 -98t-41.5 -97.5t-99.5 -39.5t-99.5 39.5t-41.5 97.5zM614 1767q0 58 42 98t100 40t99.5 -40t41.5 -98t-41.5 -97.5t-99.5 -39.5t-100 39.5t-42 97.5z" />
    <glyph glyph-name="Zcaron" unicode="&#x17d;" 
d="M233 1475h768v-109l-606 -1237h656v-129h-840v111l614 1235h-592v129zM614 1759l287 211l80 -88l-367 -313l-366 313l80 88z" />
    <glyph glyph-name="zcaron" unicode="&#x17e;" 
d="M1016 1096v-115l-629 -852h653v-129h-852v113l633 854h-542v129h737zM614 1380l287 211l80 -88l-367 -313l-366 313l80 88z" />
    <glyph glyph-name="florin" unicode="&#x192;" 
d="M737 1014h226v-129h-242l-96 -774q-25 -201 -98.5 -286t-231.5 -85h-111v129h86q76 0 112.5 17.5t58 71.5t36.5 173l94 754h-229v129h244l16 125q27 210 104 295.5t232 85.5h104v-129h-114q-60 0 -92.5 -25.5t-53 -90.5t-37.5 -196z" />
    <glyph glyph-name="circumflex" unicode="&#x2c6;" 
d="M614 1401l-284 -211l-82 88l366 313l367 -313l-80 -88z" />
    <glyph glyph-name="caron" unicode="&#x2c7;" 
d="M614 1380l287 211l80 -88l-367 -313l-366 313l80 88z" />
    <glyph glyph-name="uni02C9" unicode="&#x2c9;" 
d="M932 1249h-637v129h637v-129z" />
    <glyph glyph-name="breve" unicode="&#x2d8;" 
d="M240 1532h141q13 -160 221 -160q41 0 72 3t63.5 13t54 27.5t37 47t19.5 69.5h141q-7 -149 -104.5 -219t-257.5 -70q-83 0 -147.5 13.5t-118.5 45t-85 89.5t-36 141z" />
    <glyph glyph-name="dotaccent" unicode="&#x2d9;" 
d="M473 1386q0 58 41.5 98t99.5 40t100 -40t42 -98t-42 -97.5t-100 -39.5t-99.5 39.5t-41.5 97.5z" />
    <glyph glyph-name="ring" unicode="&#x2da;" 
d="M414 1411q0 79 57 137t135 58t135.5 -58t57.5 -137t-57.5 -136.5t-135.5 -57.5t-135 57.5t-57 136.5zM543 1411q0 -26 18.5 -45.5t44.5 -19.5t45 19.5t19 45.5t-19 46t-45 20t-44.5 -19.5t-18.5 -46.5z" />
    <glyph glyph-name="ogonek" unicode="&#x2db;" 
d="M750 -213v-131q-115 -45 -211 -45q-70 0 -127.5 19t-97.5 67t-40 119q0 80 52.5 139.5t134.5 95.5h217q-18 -15 -66 -44.5t-85 -54t-68 -61.5t-31 -73q0 -51 28.5 -68.5t86.5 -17.5q34 0 74 9.5t63.5 18t69.5 27.5z" />
    <glyph glyph-name="tilde" unicode="&#x2dc;" 
d="M895 1503l125 -51q-30 -84 -92.5 -139.5t-145.5 -55.5q-47 0 -86 16t-92 48q-2 1 -15.5 10t-17 11.5t-16 10t-18.5 10.5t-17.5 8t-19 7t-18 4t-19.5 2q-24 0 -45 -13t-37.5 -38t-25.5 -42.5t-21 -45.5l-127 45q22 48 43.5 83.5t52.5 69.5t72.5 52t91.5 18q34 0 68 -10.5
t51.5 -20t58.5 -34.5q2 -1 36 -21.5t56.5 -30.5t40.5 -10q20 0 37 8.5t26.5 16.5t22.5 30t16 29t15 33z" />
    <glyph glyph-name="hungarumlaut" unicode="&#x2dd;" 
d="M934 1573l113 -127l-398 -264l-76 100zM547 1587l112 -127l-397 -264l-76 100z" />
    <glyph glyph-name="uni0393" unicode="&#x393;" 
d="M305 1475h735v-129h-581v-1346h-154v1475z" />
    <glyph glyph-name="uni0398" unicode="&#x398;" 
d="M614 -29q-80 0 -159.5 31t-152.5 95.5t-129.5 153.5t-90 215t-33.5 271q0 148 34 275t91 215.5t130.5 152t152.5 93.5t157 30q67 0 134 -22.5t130 -65t118 -108.5t96 -148.5t64.5 -191.5t23.5 -230q0 -173 -49 -320t-129.5 -243t-181.5 -149.5t-206 -53.5zM614 100
q51 0 106 23t110 73.5t98.5 123t70.5 181t27 236.5q0 134 -29 245.5t-73.5 182t-101 119.5t-109 69.5t-99.5 20.5q-56 0 -112.5 -24t-110.5 -75.5t-95.5 -124.5t-67 -180t-25.5 -233q0 -135 28.5 -247t72.5 -182.5t100 -119t108.5 -68.5t101.5 -20zM350 815h527v-129h-527
v129z" />
    <glyph glyph-name="uni03A6" unicode="&#x3a6;" 
d="M535 1503h153v-137q95 -1 177.5 -38t141 -99t100.5 -142.5t62.5 -169t20.5 -178.5q0 -89 -20.5 -178t-62.5 -170.5t-100.5 -144t-141 -100t-177.5 -37.5v-138h-153v135q-94 2 -175.5 39t-139.5 98t-99.5 141t-61.5 168.5t-20 178.5q0 113 32.5 224t92.5 203.5t157 150
t214 57.5v137zM535 227v1018q-87 2 -156 -48t-108 -130t-58.5 -166.5t-19.5 -169.5q0 -81 20.5 -166.5t60 -163.5t108 -126.5t153.5 -47.5zM688 1245v-1016q71 -1 130.5 31.5t98.5 85t67 120.5t40 136t12 133q0 54 -8.5 110.5t-25.5 115t-45.5 109t-66 90.5t-89.5 62.5
t-113 22.5z" />
    <glyph glyph-name="uni03A9" unicode="&#x3a9;" 
d="M672 0v295q90 5 156.5 51t102 119t52 152t16.5 165q0 75 -10.5 151t-37 157t-67 142.5t-106.5 101.5t-149 40q-82 0 -150.5 -37.5t-113.5 -97.5t-76.5 -137t-45.5 -154t-14 -151q0 -72 11.5 -140t39.5 -133.5t68.5 -115t104 -80.5t141.5 -33v-295h-512v129h358v84
q-91 22 -163 84t-114.5 147t-64.5 178.5t-22 188.5q0 101 21.5 199.5t67.5 187.5t110.5 157t157 108t200.5 40q70 0 140 -21.5t139.5 -74t122 -129.5t85.5 -197.5t33 -269.5q0 -89 -18.5 -180t-55.5 -177.5t-103 -151t-151 -87.5v-86h322v-129h-475z" />
    <glyph glyph-name="uni03B1" unicode="&#x3b1;" 
d="M504 106q95 0 174.5 134t79.5 335q0 46 -8.5 99t-28 109.5t-47.5 101.5t-72 74.5t-96 29.5q-32 0 -65 -17.5t-65 -56t-57 -92.5t-40 -133t-15 -172q0 -106 22 -188.5t57.5 -129.5t76.5 -70.5t84 -23.5zM862 788l113 345l139 -37l-194 -533l157 -563h-147l-78 319h-4
q-85 -342 -350 -342q-38 0 -78.5 11t-85 34.5t-83.5 67t-71 102t-50.5 146t-18.5 192.5q0 73 13.5 150.5t44 157t75 141t112.5 100.5t150 39q140 0 229.5 -92.5t126.5 -237.5z" />
    <glyph glyph-name="uni03B4" unicode="&#x3b4;" 
d="M901 494q0 67 -18.5 131.5t-53 119.5t-91.5 89t-128 34t-127.5 -36.5t-89 -94.5t-49 -124t-16.5 -132q0 -49 11 -101t35 -102t56.5 -89.5t79 -64t100.5 -24.5q70 0 128 37.5t92 97t52.5 127t18.5 132.5zM430 1346l444 -445q91 -91 136 -187.5t45 -217.5q0 -97 -31 -190
t-86.5 -168t-141 -121t-186.5 -46q-98 0 -181.5 46t-138 120t-85.5 165.5t-31 184.5q0 104 23.5 187.5t61.5 138.5t92.5 94.5t111 60t121.5 29.5l-289 299v179h647v-129h-512z" />
    <glyph glyph-name="uni03B5" unicode="&#x3b5;" 
d="M713 645v-129q-187 0 -288 -52.5t-101 -178.5q0 -19 9 -42t32 -48.5t56.5 -46.5t88.5 -34.5t121 -13.5q111 0 181 36t130 104l135 -60q-82 -102 -187 -155.5t-253 -53.5q-203 0 -335 90t-132 240q0 100 68.5 173.5t193.5 113.5q-90 41 -141 101.5t-51 135.5
q0 120 114.5 206.5t276.5 86.5q137 0 248 -56t178 -151l-129 -55q-97 133 -281 133q-80 0 -134.5 -16.5t-78.5 -43.5t-32.5 -49.5t-8.5 -45.5q0 -63 46 -108t117.5 -64.5t156.5 -16.5z" />
    <glyph glyph-name="uni03BC" unicode="&#x3bc;" 
d="M840 0v92q-38 -54 -97 -84.5t-125 -30.5q-69 0 -128.5 27.5t-98.5 79.5v-555h-153v1567h153v-637q0 -84 14 -148.5t36 -102t52 -61.5t57.5 -32.5t57.5 -8.5q29 0 57 7.5t61 32t57 63t40.5 107t16.5 157.5v623h153v-1096h-153z" />
    <glyph glyph-name="pi" unicode="&#x3c0;" 
d="M98 1096h1032v-129h-204v-967h-154v967h-315v-967h-154v967h-205v129z" />
    <glyph glyph-name="uni03C3" unicode="&#x3c3;" 
d="M1114 1098v-125l-332 18q100 -78 151.5 -203.5t51.5 -261.5q0 -143 -50.5 -266.5t-151 -203t-230.5 -79.5q-102 0 -187.5 52t-139.5 134.5t-83.5 181t-29.5 196.5q0 78 16.5 155t53.5 149.5t90 127.5t132 88.5t173 34.5zM551 106q71 0 127 44.5t88 113.5t48.5 142.5
t16.5 142.5q0 65 -17.5 135.5t-50.5 135.5t-89 107t-125 42q-71 0 -127.5 -42.5t-89 -108t-49.5 -136.5t-17 -137q0 -96 21.5 -175t54 -126.5t72.5 -80t74.5 -45t62.5 -12.5z" />
    <glyph glyph-name="uni03C4" unicode="&#x3c4;" 
d="M1040 1096v-129h-340v-967h-153v967h-146q-139 0 -211 -37v131q66 35 158 35h692z" />
    <glyph glyph-name="uni03D5" unicode="&#x3d5;" 
d="M694 981v-866q65 15 110 59.5t67 109.5t31 128t9 135t-9 135t-31 128.5t-67 110.5t-110 60zM694 1384v-272q56 -9 107 -31.5t100 -67t84.5 -106t57.5 -154.5t22 -206q0 -137 -31 -243t-84.5 -171.5t-117.5 -101.5t-138 -47v-242h-129v242q-56 8 -106.5 30t-99.5 66
t-84.5 105t-57.5 154.5t-22 207.5q0 111 20.5 202.5t55.5 154t83 107.5t100 69t111 32v272h129zM565 115v866q-217 -46 -217 -434q0 -386 217 -432z" />
    <glyph glyph-name="endash" unicode="&#x2013;" 
d="M975 670h-721v129h721v-129z" />
    <glyph glyph-name="uni2014" unicode="&#x2014;" 
d="M0 442v148h1229v-148h-1229z" />
    <glyph glyph-name="underscoredbl" unicode="&#x2017;" 
d="M1229 -221h-1229v74h1229v-74zM1229 -442h-1229v73h1229v-73z" />
    <glyph glyph-name="quoteleft" unicode="&#x2018;" 
d="M797 1503v-139q-78 -16 -131 -66q58 -5 96.5 -44t38.5 -97q0 -70 -46 -115t-116 -45q-74 0 -122 56t-48 131q0 62 29.5 117t78.5 94.5t105 66.5t115 41z" />
    <glyph glyph-name="quoteright" unicode="&#x2019;" 
d="M475 997v140q79 16 131 65q-58 5 -96.5 44t-38.5 97q0 70 46 115t116 45q74 0 122 -55.5t48 -130.5q0 -62 -29.5 -117t-78.5 -94.5t-105 -67t-115 -41.5z" />
    <glyph glyph-name="quotesinglbase" unicode="&#x201a;" 
d="M453 -229v139q79 16 131 65q-58 5 -96.5 44.5t-38.5 97.5q0 70 45.5 114.5t115.5 44.5q74 0 122 -55.5t48 -130.5q0 -62 -29.5 -117t-78 -94.5t-104.5 -66.5t-115 -41z" />
    <glyph glyph-name="uni201B" unicode="&#x201b;" 
d="M782 1135v-138q-59 14 -115 41t-104.5 66.5t-78 95t-29.5 117.5q0 75 48 130.5t122 55.5q69 0 115 -45t46 -115q0 -58 -39 -98t-96 -43q50 -47 131 -67z" />
    <glyph glyph-name="quotedblleft" unicode="&#x201c;" 
d="M573 1503v-139q-78 -16 -131 -66q58 -5 97 -44t39 -97q0 -70 -46 -115t-116 -45q-74 0 -122 56t-48 131q0 62 29.5 117t78 94.5t104.5 66.5t115 41zM1020 1503v-139q-78 -16 -131 -66q58 -5 96.5 -44t38.5 -97q0 -70 -46 -115t-116 -45q-74 0 -122 56t-48 131
q0 62 29.5 117t78.5 94.5t105 66.5t115 41z" />
    <glyph glyph-name="quotedblright" unicode="&#x201d;" 
d="M250 997v140q79 16 131 65q-58 5 -96.5 44t-38.5 97q0 70 46 115t116 45q74 0 122 -55.5t48 -130.5q0 -62 -29.5 -117t-78.5 -94.5t-105 -67t-115 -41.5zM696 997v140q79 16 131 65q-58 5 -96.5 44t-38.5 97q0 70 46 115t116 45q74 0 122 -55.5t48 -130.5
q0 -62 -29.5 -117t-78.5 -94.5t-105 -67t-115 -41.5z" />
    <glyph glyph-name="quotedblbase" unicode="&#x201e;" 
d="M250 -229v139q79 16 131 65q-58 5 -96.5 44.5t-38.5 97.5q0 70 46 114.5t116 44.5q74 0 122 -55.5t48 -130.5q0 -62 -29.5 -117t-78.5 -94.5t-105 -66.5t-115 -41zM696 -229v139q79 16 131 65q-58 5 -96.5 44.5t-38.5 97.5q0 70 46 114.5t116 44.5q74 0 122 -55.5
t48 -130.5q0 -62 -29.5 -117t-78.5 -94.5t-105 -66.5t-115 -41z" />
    <glyph glyph-name="dagger" unicode="&#x2020;" 
d="M522 1475h185l-15 -406l262 14v-161l-262 14l13 -166l-23 -770h-135l-23 770l13 166l-263 -14v161l263 -14z" />
    <glyph glyph-name="daggerdbl" unicode="&#x2021;" 
d="M539 971l-263 -15v162l263 -14l-15 371h183l-15 -371l262 14v-162l-262 15v-467l262 14v-162l-262 15l15 -371h-183l15 371l-263 -15v162l263 -14v467z" />
    <glyph glyph-name="bullet" unicode="&#x2022;" 
d="M410 786q0 84 60 141.5t144 57.5t144.5 -57.5t60.5 -141.5t-60.5 -141t-144.5 -57t-144 57t-60 141z" />
    <glyph glyph-name="ellipsis" unicode="&#x2026;" 
d="M207 -29q-62 0 -106 42t-44 102q0 61 44.5 102t105.5 41t104 -41t43 -102q0 -60 -43.5 -102t-103.5 -42zM616 -29q-62 0 -105.5 42t-43.5 102q0 61 44 102t105 41t104.5 -41t43.5 -102q0 -60 -44 -102t-104 -42zM1026 -29q-62 0 -105.5 42t-43.5 102q0 61 44 102t105 41
t104.5 -41t43.5 -102q0 -60 -44 -102t-104 -42z" />
    <glyph glyph-name="perthousand" unicode="&#x2030;" 
d="M1096 375q0 104 -47 104q-32 0 -56.5 -35t-37 -85.5t-18 -94.5t-5.5 -74q0 -106 49 -106q31 0 55.5 36t36.5 87.5t17.5 95t5.5 72.5zM639 1503h111l-619 -1532h-111zM297 1286q0 105 -47 105q-32 0 -56.5 -35t-37 -85.5t-18 -94.5t-5.5 -74q0 -107 49 -107q31 0 55.5 36
t36.5 87.5t17.5 95t5.5 72.5zM803 207q0 61 13.5 124.5t41 123.5t78 98.5t115.5 38.5q88 0 131 -63t43 -156q0 -62 -13 -127.5t-40 -129.5t-77.5 -104.5t-117.5 -40.5q-49 0 -84.5 20t-54 55.5t-27 74.5t-8.5 86zM4 1118q0 61 13.5 124.5t41 123.5t78 98.5t115.5 38.5
q88 0 131 -63t43 -156q0 -62 -13 -127.5t-40 -129t-77.5 -104t-117.5 -40.5q-49 0 -84.5 20t-54 55t-27 74t-8.5 86zM340 207q0 61 13.5 124.5t41 123.5t78 98.5t115.5 38.5q88 0 131 -63t43 -156q0 -62 -13 -127.5t-40 -129.5t-77.5 -104.5t-117.5 -40.5q-49 0 -84.5 20
t-54 55.5t-27 74.5t-8.5 86zM633 375q0 104 -47 104q-32 0 -56.5 -35t-37 -85.5t-18 -94.5t-5.5 -74q0 -106 49 -106q31 0 55.5 36t36.5 87.5t17.5 95t5.5 72.5z" />
    <glyph glyph-name="guilsinglleft" unicode="&#x2039;" 
d="M803 1260l96 -99l-459 -432l459 -432l-96 -102l-559 534z" />
    <glyph glyph-name="guilsinglright" unicode="&#x203a;" 
d="M426 1260l561 -531l-561 -534l-96 102l458 432l-458 432z" />
    <glyph glyph-name="exclamdbl" unicode="&#x203c;" 
d="M449 1475l-29 -1026h-137l-35 1026h201zM180 131q0 66 49.5 112t116.5 46t115.5 -45.5t48.5 -112.5t-48.5 -113.5t-115.5 -46.5q-68 0 -117 46.5t-49 113.5zM981 1475l-29 -1026h-137l-35 1026h201zM711 131q0 66 49.5 112t116.5 46t115 -45.5t48 -112.5t-48 -113.5
t-115 -46.5q-68 0 -117 46.5t-49 113.5z" />
    <glyph glyph-name="uni203E" unicode="&#x203e;" 
d="M1090 -213h-951v113h951v-113z" />
    <glyph glyph-name="fraction" unicode="&#x2044;" 
d="M287 1475h119l-676 -1475h-115z" />
    <glyph glyph-name="nsuperior" unicode="&#x207f;" 
d="M481 1106v-275h-102v330q0 201 -33 328h98l23 -121q39 60 105 97.5t139 37.5q82 0 128 -60t46 -149v-463h-103v437q0 22 -0.5 33.5t-2.5 32.5t-8 33t-15 25t-25 19t-37 6q-38 0 -73.5 -17t-68 -51.5t-52 -97t-19.5 -145.5z" />
    <glyph glyph-name="franc" unicode="&#x20a3;" 
d="M674 1475v-129h-514v-512h385v-129h-385v-705h-123v1475h637zM698 985l25 -186q53 100 109.5 153.5t138.5 53.5q54 0 92 -29.5t57.5 -80t28 -104.5t8.5 -116h-113q0 8 -0.5 26.5t-0.5 30.5t-1 31t-3.5 32t-6 29t-9.5 27t-13.5 20.5t-19 14t-25.5 4.5q-33 0 -71.5 -30.5
t-75 -86.5t-61 -151.5t-24.5 -210.5v-412h-112v565q0 229 -31 420h108z" />
    <glyph glyph-name="uni20A7" unicode="&#x20a7;" 
d="M20 0v1475h285q162 0 251 -117t89 -334q0 -225 -107 -335.5t-290 -108.5h-105v-580h-123zM143 709h138q110 0 175.5 81t65.5 232q0 324 -233 324h-146v-637zM1110 713v-86h-256v-410q0 -29 0.5 -44t5.5 -39.5t14 -37.5t27.5 -23t44.5 -10q93 0 152 125l96 -22
q-38 -85 -101 -137t-149 -52q-95 0 -143.5 60t-48.5 213v377h-154v86h154v219h102v-219h256z" />
    <glyph glyph-name="Euro" unicode="&#x20ac;" 
d="M1087 1155h-153q-2 93 -62 156t-153 63q-66 0 -119 -26t-87.5 -67t-59.5 -100t-37.5 -117t-18.5 -126h432l-26 -145h-414q-2 -27 -2 -68q0 -15 2 -25h397l-26 -145h-365q5 -68 16 -127.5t34.5 -121.5t56 -106t85 -72t118.5 -28q112 0 178.5 74t68.5 186h154
q-12 -182 -118.5 -285.5t-289.5 -103.5q-97 0 -173.5 34.5t-125 89.5t-83 133.5t-51 157t-23.5 169.5h-123l26 145h88v29q0 34 3 64h-117l26 145h101q9 90 28 166.5t55 152t86.5 128.5t128 85.5t173.5 32.5q154 0 257.5 -97t112.5 -251z" />
    <glyph glyph-name="afii61289" unicode="&#x2113;" 
d="M1010 305l71 -57q-144 -266 -403 -266q-88 0 -156.5 32t-109.5 88.5t-63 126t-25 150.5v29q-18 -15 -39.5 -32.5t-48.5 -39t-41 -33.5l-48 82q15 12 45.5 36t47.5 38t40.5 34.5t41.5 38.5v590q0 112 19 200.5t50.5 144.5t74.5 92.5t87.5 51.5t93.5 15q87 0 148 -47.5
t88.5 -122.5t27.5 -170q0 -192 -119 -385.5t-341 -402.5l2 -64q6 -174 76.5 -259t175.5 -85q98 0 178 64t127 151zM451 1137v-502q82 86 142 160.5t112 157t79 165t27 162.5q0 242 -166 242q-27 0 -53 -12t-52 -40.5t-45.5 -71.5t-31.5 -110.5t-12 -150.5z" />
    <glyph glyph-name="trademark" unicode="&#x2122;" 
d="M1217 1520v-570h-123v459h-4l-162 -459h-74l-166 459h-2v-459h-123v570h199l129 -336l127 336h199zM494 1520v-111h-175v-459h-135v459h-174v111h484z" />
    <glyph glyph-name="Omega" unicode="&#x2126;" 
d="M672 0v295q90 5 156.5 51t102 119t52 152t16.5 165q0 75 -10.5 151t-37 157t-67 142.5t-106.5 101.5t-149 40q-82 0 -150.5 -37.5t-113.5 -97.5t-76.5 -137t-45.5 -154t-14 -151q0 -72 11.5 -140t39.5 -133.5t68.5 -115t104 -80.5t141.5 -33v-295h-512v129h358v84
q-91 22 -163 84t-114.5 147t-64.5 178.5t-22 188.5q0 101 21.5 199.5t67.5 187.5t110.5 157t157 108t200.5 40q70 0 140 -21.5t139.5 -74t122 -129.5t85.5 -197.5t33 -269.5q0 -89 -18.5 -180t-55.5 -177.5t-103 -151t-151 -87.5v-86h322v-129h-475z" />
    <glyph glyph-name="estimated" unicode="&#x212e;" 
d="M1225 516h-992q-8 0 -8 -8v-299q0 -19 13 -35q74 -76 171.5 -119t204.5 -43q117 0 219 48.5t175 134.5h88q-83 -98 -211 -155.5t-273 -57.5q-166 0 -307 73.5t-223 199.5t-82 275q0 150 82 277t223 200.5t307 73.5q125 0 238 -43.5t195.5 -117t131 -176t48.5 -214.5v-14z
M999 555v301q0 23 -14 37q-75 72 -171 114t-200 42q-215 0 -374 -162q-15 -15 -15 -37v-295q0 -10 8 -10h760q6 0 6 10z" />
    <glyph glyph-name="oneeighth" unicode="&#x215b;" 
d="M768 215q0 -67 43 -105t111 -38q69 0 111 37t42 106q0 68 -42 105.5t-111 37.5q-68 0 -111 -38t-43 -105zM1049 573q0 60 -33.5 93.5t-93.5 33.5q-64 0 -95.5 -37t-31.5 -102q0 -54 37 -85.5t90 -31.5q60 0 93.5 34.5t33.5 94.5zM1071 408q56 -37 81.5 -82t25.5 -111
q0 -110 -72 -169.5t-184 -59.5t-184 59.5t-72 169.5q0 67 24.5 110.5t81.5 82.5q-42 37 -61 74t-19 91q0 99 64.5 156t165.5 57t165 -57t64 -156q0 -54 -19.5 -92t-60.5 -73zM360 1520v-725h140v-86h-385v86h143v600l-149 -45v92zM913 1475h119l-676 -1475h-114z" />
    <glyph glyph-name="threeeighths" unicode="&#x215c;" 
d="M768 215q0 -67 43 -105t111 -38q69 0 111 37t42 106q0 68 -42 105.5t-111 37.5q-68 0 -111 -38t-43 -105zM1049 573q0 60 -33.5 93.5t-93.5 33.5q-64 0 -95.5 -37t-31.5 -102q0 -54 37 -85.5t90 -31.5q60 0 93.5 34.5t33.5 94.5zM1071 408q56 -37 81.5 -82t25.5 -111
q0 -110 -72 -169.5t-184 -59.5t-184 59.5t-72 169.5q0 67 24.5 110.5t81.5 82.5q-42 37 -61 74t-19 91q0 99 64.5 156t165.5 57t165 -57t64 -156q0 -54 -19.5 -92t-60.5 -73zM274 1085l-34 -2v91q66 -5 117 30.5t51 100.5q0 49 -36 80.5t-85 31.5q-46 0 -83.5 -33t-58.5 -79
l-88 49q35 67 96 108t134 41q95 0 159 -57t64 -150q0 -100 -92 -159q61 -28 94 -79.5t33 -119.5q0 -104 -70 -170t-176 -66q-89 0 -146 38t-108 118l92 53q29 -63 64 -93t98 -30t103 38.5t40 101.5q0 76 -46.5 119t-121.5 38zM889 1475h119l-676 -1475h-115z" />
    <glyph glyph-name="fiveeighths" unicode="&#x215d;" 
d="M768 215q0 -67 43 -105t111 -38q69 0 111 37t42 106q0 68 -42 105.5t-111 37.5q-68 0 -111 -38t-43 -105zM1049 573q0 60 -33.5 93.5t-93.5 33.5q-64 0 -95.5 -37t-31.5 -102q0 -54 37 -85.5t90 -31.5q60 0 93.5 34.5t33.5 94.5zM1071 408q56 -37 81.5 -82t25.5 -111
q0 -110 -72 -169.5t-184 -59.5t-184 59.5t-72 169.5q0 67 24.5 110.5t81.5 82.5q-42 37 -61 74t-19 91q0 99 64.5 156t165.5 57t165 -57t64 -156q0 -54 -19.5 -92t-60.5 -73zM489 1475v-86h-272l-18 -230q50 35 106 35q105 0 168.5 -68.5t63.5 -173.5q0 -112 -63.5 -188
t-174.5 -76q-134 0 -219 139l80 58q22 -47 60.5 -79t84.5 -32q60 0 94.5 51t34.5 115q0 67 -31.5 117.5t-95.5 50.5q-34 0 -66 -26t-51 -62l-100 20l33 435h366zM891 1475h119l-676 -1475h-115z" />
    <glyph glyph-name="seveneighths" unicode="&#x215e;" 
d="M1071 408q56 -37 81.5 -82t25.5 -111q0 -110 -72 -169.5t-184 -59.5t-184 59.5t-72 169.5q0 67 24.5 110.5t81.5 82.5q-42 37 -61 74t-19 91q0 99 64.5 156t165.5 57t165 -57t64 -156q0 -54 -19.5 -92t-60.5 -73zM768 215q0 -67 43 -105t111 -38q69 0 111 37t42 106
q0 68 -42 105.5t-111 37.5q-68 0 -111 -38t-43 -105zM1049 573q0 60 -33.5 93.5t-93.5 33.5q-64 0 -95.5 -37t-31.5 -102q0 -54 37 -85.5t90 -31.5q60 0 93.5 34.5t33.5 94.5zM119 1475h459l-308 -773h-110l280 687h-321v86zM831 1475h119l-676 -1475h-114z" />
    <glyph glyph-name="uni2190" unicode="&#x2190;" 
d="M279 782h942v-90h-942q27 -40 63.5 -128.5t36.5 -123.5q0 -13 -8 -22.5t-21 -9.5q-16 0 -43 41q-50 74 -117.5 142t-138.5 109q-43 22 -43 37t43 37q70 41 138 109t118 143q27 41 43 41q13 0 21 -10t8 -23q0 -35 -36.5 -123.5t-63.5 -128.5z" />
    <glyph glyph-name="uni2191" unicode="&#x2191;" 
d="M659 1073v-942h-90v942q-40 -27 -128.5 -63.5t-123.5 -36.5q-13 0 -22.5 7.5t-9.5 20.5q0 16 41 43q75 50 143 118t109 138q22 43 36 43q16 0 37 -43q41 -70 109 -138t143 -118q41 -27 41 -43q0 -13 -10 -20.5t-23 -7.5q-35 0 -123.5 36.5t-128.5 63.5z" />
    <glyph glyph-name="uni2192" unicode="&#x2192;" 
d="M8 782h942q-27 40 -63.5 128.5t-36.5 123.5q0 13 8 23t21 10q16 0 43 -41q50 -75 118 -143t138 -109q43 -22 43 -37t-43 -37q-71 -41 -138.5 -109t-117.5 -142q-27 -41 -43 -41q-13 0 -21 9.5t-8 22.5q0 35 36.5 123.5t63.5 128.5h-942v90z" />
    <glyph glyph-name="uni2193" unicode="&#x2193;" 
d="M659 1343v-942q41 27 129 64t123 37q13 0 23 -8t10 -21q0 -16 -41 -43q-75 -50 -143 -118t-109 -138q-21 -43 -37 -43q-14 0 -36 43q-41 70 -109 138t-143 118q-41 27 -41 43q0 13 9.5 21t22.5 8q35 0 123 -37t129 -64v942h90z" />
    <glyph glyph-name="uni2194" unicode="&#x2194;" 
d="M950 692h-671q27 -40 63.5 -128.5t36.5 -123.5q0 -13 -8 -22.5t-21 -9.5q-16 0 -43 41q-50 74 -117.5 142t-138.5 109q-43 22 -43 37t43 37q70 41 138 109t118 143q27 41 43 41q13 0 21 -10t8 -23q0 -35 -36.5 -123.5t-63.5 -128.5h671q-27 40 -63.5 128.5t-36.5 123.5
q0 13 8 23t21 10q16 0 43 -41q50 -75 118 -143t138 -109q43 -22 43 -37t-43 -37q-71 -41 -138.5 -109t-117.5 -142q-27 -41 -43 -41q-13 0 -21 9.5t-8 22.5q0 35 36.5 123.5t63.5 128.5z" />
    <glyph glyph-name="uni2195" unicode="&#x2195;" 
d="M569 401v672q-40 -27 -128.5 -63.5t-123.5 -36.5q-13 0 -22.5 7.5t-9.5 20.5q0 16 41 43q75 50 143 118t109 138q22 43 36 43q16 0 37 -43q41 -70 109 -138t143 -118q41 -27 41 -43q0 -13 -10 -20.5t-23 -7.5q-35 0 -123.5 36.5t-128.5 63.5v-672q41 27 129 64t123 37
q13 0 23 -8t10 -21q0 -16 -41 -43q-75 -50 -143 -118t-109 -138q-21 -43 -37 -43q-14 0 -36 43q-41 70 -109 138t-143 118q-41 27 -41 43q0 13 9.5 21t22.5 8q35 0 123 -37t129 -64z" />
    <glyph glyph-name="uni21A8" unicode="&#x21a8;" 
d="M569 535v671q-40 -27 -128.5 -63.5t-123.5 -36.5q-13 0 -22.5 8t-9.5 21q0 16 41 43q75 50 143 118t109 138q22 43 36 43q16 0 37 -43q41 -70 109 -138t143 -118q41 -27 41 -43q0 -13 -10 -21t-23 -8q-35 0 -123.5 36.5t-128.5 63.5v-671q40 27 128.5 63.5t123.5 36.5
q13 0 23 -8t10 -21q0 -16 -41 -43q-75 -50 -143 -118t-109 -138q-21 -43 -37 -43q-14 0 -36 43q-41 70 -109 138t-143 118q-41 27 -41 43q0 13 9.5 21t22.5 8q35 0 123.5 -36.5t128.5 -63.5zM944 90v-90h-659v90h659z" />
    <glyph glyph-name="partialdiff" unicode="&#x2202;" 
d="M254 1434l-55 96q150 119 360 119q107 0 203.5 -50t174 -146t123.5 -252t46 -351q0 -181 -36 -337t-104.5 -276t-177 -188.5t-245.5 -68.5q-83 0 -153 28t-118.5 75t-82.5 110t-50 132t-16 142q0 120 38.5 221.5t102.5 169t148 105.5t176 38q74 0 141.5 -24t114.5 -61.5
t76.5 -70.5t46.5 -63q4 27 4 101q0 146 -34.5 270t-92.5 207t-134.5 129.5t-160.5 46.5q-172 0 -295 -102zM553 92q106 0 192 78t136.5 200t68.5 271q-14 39 -43.5 80.5t-71.5 80.5t-101.5 64t-123.5 25q-142 0 -246 -123.5t-104 -296.5q0 -165 80.5 -272t212.5 -107z" />
    <glyph glyph-name="Delta" unicode="&#x2206;" 
d="M12 2v100l527 1420h157l521 -1418v-102h-1205zM152 115h915l-309 852q-128 353 -142 399h-10q-17 -63 -127 -362z" />
    <glyph glyph-name="product" unicode="&#x220f;" 
d="M1239 1356h-207v-1557h-133v1557h-569v-1557h-135v1557h-205v123h1249v-123z" />
    <glyph glyph-name="summation" unicode="&#x2211;" 
d="M391 1346l410 -568l-424 -649h618v-129h-759v147l405 633l-405 551v144h751v-129h-596z" />
    <glyph glyph-name="minus" unicode="&#x2212;" 
d="M1178 805v-135h-1127v135h1127z" />
    <glyph glyph-name="uni2215" unicode="&#x2215;" 
d="M287 1475h119l-676 -1475h-115z" />
    <glyph glyph-name="uni2219" unicode="&#x2219;" 
d="M451 737q0 67 48 112.5t115 45.5t115.5 -45.5t48.5 -112.5t-48.5 -113t-115.5 -46t-115 46t-48 113z" />
    <glyph glyph-name="radical" unicode="&#x221a;" 
d="M4 907h322l139 -510l364 1231h396v-135h-293l-471 -1589l-238 868h-219v135z" />
    <glyph glyph-name="infinity" unicode="&#x221e;" 
d="M614 618q-61 -88 -141 -145t-172 -57q-130 0 -202 93.5t-72 227.5q0 83 31 155t95 119.5t148 47.5q50 0 95 -16t84.5 -47t69 -61.5t64.5 -74.5q69 94 143 146.5t173 52.5q125 0 198.5 -92.5t73.5 -221.5q0 -85 -27.5 -157.5t-89.5 -122t-149 -49.5q-24 0 -46 3t-44 12
t-38 15t-37.5 22.5t-32 24t-33.5 30t-30 29.5t-31.5 34t-29.5 32zM170 737q0 -46 11 -85.5t41.5 -70t76.5 -30.5q70 0 131 55.5t105 130.5q-45 76 -105.5 131.5t-130.5 55.5q-46 0 -76.5 -31t-41.5 -70.5t-11 -85.5zM1059 737q0 46 -11 85.5t-41.5 70.5t-76.5 31
q-70 0 -130.5 -55.5t-105.5 -131.5q44 -75 105 -130.5t131 -55.5q46 0 76.5 30.5t41.5 70t11 85.5z" />
    <glyph glyph-name="uni2229" unicode="&#x2229;" 
d="M1208 0h-143v885q0 102 -38.5 193.5t-101.5 154t-144.5 99t-166.5 36.5t-166 -36.5t-144 -99t-101.5 -154t-38.5 -193.5v-885h-144v887q0 171 77.5 312t214 222.5t302.5 81.5t302.5 -81.5t214 -222.5t77.5 -312v-887z" />
    <glyph glyph-name="integral" unicode="&#x222b;" 
d="M967 1769l-25 -94q-38 25 -82 25q-69 0 -110 -49q-44 -49 -63 -139t-19 -244q0 -163 16 -533t16 -540q0 -283 -96 -426q-34 -50 -87.5 -75.5t-113.5 -25.5q-38 0 -78 11.5t-63 25.5l27 98q47 -26 102 -26q68 0 103 47q81 98 81 373q0 171 -16 546t-16 537
q0 172 26.5 275.5t87.5 166.5q78 78 193 78q66 0 117 -31z" />
    <glyph glyph-name="approxequal" unicode="&#x2248;" 
d="M354 1016q89 0 260 -76t220 -76q71 0 132 62t97 139l106 -78q-54 -107 -141 -182.5t-192 -75.5q-23 0 -52 5.5t-67 18.5t-60 21t-66 26t-50 21q-4 2 -23.5 10.5t-27.5 12t-26 10.5t-29.5 10.5t-27 8t-28.5 6.5t-25 2q-43 0 -78 -13.5t-64 -43.5t-45 -52.5t-44 -66.5
l-107 79q44 74 85 121t106 79t147 32zM397 762q89 0 260 -76t220 -76q74 0 136 46.5t93 113.5l106 -78q-49 -98 -136 -157.5t-197 -59.5q-23 0 -52 5.5t-67 18.5t-60 21t-66 26t-50 21q-4 2 -23.5 10.5t-27.5 12t-26 10.5t-29.5 10.5t-27 8t-28.5 6.5t-25 2q-29 0 -56 -11
t-45 -25t-39.5 -40.5t-32.5 -44t-30.5 -51t-27.5 -45.5l-107 79q29 50 49 80.5t53.5 71.5t65 64t76 40t94.5 17z" />
    <glyph glyph-name="notequal" unicode="&#x2260;" 
d="M571 524l-139 -268l-110 51l112 217h-348v131h418l80 162h-498v133h565q18 38 64.5 125.5t68.5 138.5q93 -45 111 -57l-109 -207h357v-133h-424l-82 -162h506v-131h-572z" />
    <glyph glyph-name="uni2261" unicode="&#x2261;" 
d="M1178 1047v-136h-1127v136h1127zM1178 805v-135h-1127v135h1127zM1178 563v-135h-1127v135h1127z" />
    <glyph glyph-name="lessequal" unicode="&#x2264;" 
d="M975 1475l88 -111l-666 -490l666 -489l-88 -111l-811 600zM180 0v135h869v-135h-869z" />
    <glyph glyph-name="greaterequal" unicode="&#x2265;" 
d="M164 1364l88 111l811 -601l-811 -600l-88 111l665 489zM180 0v135h869v-135h-869z" />
    <glyph glyph-name="uni22C5" unicode="&#x22c5;" 
d="M512 737q0 31 21.5 52.5t52.5 21.5t52 -21.5t21 -52.5t-21 -52t-52 -21t-52.5 21t-21.5 52z" />
    <glyph glyph-name="uni2302" unicode="&#x2302;" 
d="M1208 0h-1188v831l594 347l594 -347v-831zM82 61h1065v740l-533 311l-532 -311v-740z" />
    <glyph glyph-name="uni2304" unicode="&#x2304;" 
d="M211 1393h151l252 -496l252 496h152l-336 -662h-135z" />
    <glyph glyph-name="uni2310" unicode="&#x2310;" 
d="M152 0h-91v565h1106v-90h-1015v-475z" />
    <glyph glyph-name="uni2319" unicode="&#x2319;" 
d="M61 565h91v-475h1015v-90h-1106v565z" />
    <glyph glyph-name="uni2320" unicode="&#x2320;" 
d="M545 -590v551v25q0 72 0.5 115t4 131.5t10 148t20.5 145.5t33 144.5t50 123.5t70 104t93.5 65t119.5 26q114 0 198.5 -92.5t84.5 -208.5q0 -58 -27 -99.5t-82 -41.5q-105 0 -131 194q-3 25 -6 39t-11 36t-23 33t-36 11q-33 0 -63 -24t-51.5 -61.5t-35 -71t-22.5 -66.5
q-19 -73 -31 -155.5t-16.5 -189t-5 -161t-0.5 -174.5v-547h-143z" />
    <glyph glyph-name="uni2321" unicode="&#x2321;" 
d="M688 1622v-551v-25q0 -72 -0.5 -115t-4 -131.5t-10 -148t-20.5 -145.5t-33 -144.5t-50 -123.5t-70 -104t-93.5 -65t-119.5 -26q-114 0 -198.5 92.5t-84.5 208.5q0 58 27 99.5t82 41.5q105 0 131 -194q2 -18 3.5 -25t5 -25t8.5 -27t12.5 -20.5t19 -16.5t26.5 -5
q33 0 63 24t51.5 61.5t35.5 71t23 66.5q19 73 31 155.5t16.5 189t5 161t0.5 174.5v547h143z" />
    <glyph glyph-name="uni2500" unicode="&#x2500;" 
d="M-41 442v148h1311v-148h-1311z" />
    <glyph glyph-name="uni2502" unicode="&#x2502;" 
d="M541 -590v2212h147v-2212h-147z" />
    <glyph glyph-name="uni250C" unicode="&#x250c;" 
d="M541 -590v1180h729v-148h-582v-1032h-147z" />
    <glyph glyph-name="uni2510" unicode="&#x2510;" 
d="M688 590v-1180h-147v1032h-582v148h729z" />
    <glyph glyph-name="uni2514" unicode="&#x2514;" 
d="M541 442v1180h147v-1032h582v-148h-729z" />
    <glyph glyph-name="uni2518" unicode="&#x2518;" 
d="M688 1622v-1180h-729v148h582v1032h147z" />
    <glyph glyph-name="uni251C" unicode="&#x251c;" 
d="M541 -590v2212h147v-1032h582v-148h-582v-1032h-147z" />
    <glyph glyph-name="uni2524" unicode="&#x2524;" 
d="M-41 442v148h582v1032h147v-2212h-147v1032h-582z" />
    <glyph glyph-name="uni252C" unicode="&#x252c;" 
d="M-41 442v148h1311v-148h-582v-1032h-147v1032h-582z" />
    <glyph glyph-name="uni2534" unicode="&#x2534;" 
d="M-41 442v148h582v1032h147v-1032h582v-148h-1311z" />
    <glyph glyph-name="uni253C" unicode="&#x253c;" 
d="M-41 442v148h582v1032h147v-1032h582v-148h-582v-1032h-147v1032h-582z" />
    <glyph glyph-name="uni2550" unicode="&#x2550;" 
d="M-41 295v147h1311v-147h-1311zM-41 590v147h1311v-147h-1311z" />
    <glyph glyph-name="uni2551" unicode="&#x2551;" 
d="M393 -590v2212h148v-2212h-148zM688 -590v2212h148v-2212h-148z" />
    <glyph glyph-name="uni2552" unicode="&#x2552;" 
d="M541 -590v1327h729v-147h-582v-148h582v-147h-582v-885h-147z" />
    <glyph glyph-name="uni2553" unicode="&#x2553;" 
d="M1270 590v-148h-434v-1032h-148v1032h-147v-1032h-148v1180h877z" />
    <glyph glyph-name="uni2554" unicode="&#x2554;" 
d="M393 -590v1327h877v-147h-729v-1180h-148zM688 -590v1032h582v-147h-434v-885h-148z" />
    <glyph glyph-name="uni2555" unicode="&#x2555;" 
d="M688 737v-1327h-147v885h-582v147h582v148h-582v147h729z" />
    <glyph glyph-name="uni2556" unicode="&#x2556;" 
d="M-41 442v148h877v-1180h-148v1032h-147v-1032h-148v1032h-434z" />
    <glyph glyph-name="uni2557" unicode="&#x2557;" 
d="M-41 295v147h582v-1032h-148v885h-434zM-41 590v147h877v-1327h-148v1180h-729z" />
    <glyph glyph-name="uni2558" unicode="&#x2558;" 
d="M541 295v1327h147v-885h582v-147h-582v-148h582v-147h-729z" />
    <glyph glyph-name="uni2559" unicode="&#x2559;" 
d="M393 442v1180h148v-1032h147v1032h148v-1032h434v-148h-877z" />
    <glyph glyph-name="uni255A" unicode="&#x255a;" 
d="M393 295v1327h148v-1180h729v-147h-877zM688 590v1032h148v-885h434v-147h-582z" />
    <glyph glyph-name="uni255B" unicode="&#x255b;" 
d="M688 1622v-1327h-729v147h582v148h-582v147h582v885h147z" />
    <glyph glyph-name="uni255C" unicode="&#x255c;" 
d="M836 1622v-1180h-877v148h434v1032h148v-1032h147v1032h148z" />
    <glyph glyph-name="uni255D" unicode="&#x255d;" 
d="M-41 295v147h729v1180h148v-1327h-877zM-41 590v147h434v885h148v-1032h-582z" />
    <glyph glyph-name="uni255E" unicode="&#x255e;" 
d="M1270 442v-147h-582v-885h-147v2212h147v-885h582v-147h-582v-148h582z" />
    <glyph glyph-name="uni255F" unicode="&#x255f;" 
d="M393 -590v2212h148v-2212h-148zM688 -590v2212h148v-1032h434v-148h-434v-1032h-148z" />
    <glyph glyph-name="uni2560" unicode="&#x2560;" 
d="M393 -590v2212h148v-2212h-148zM688 -590v1032h582v-147h-434v-885h-148zM688 590v1032h148v-885h434v-147h-582z" />
    <glyph glyph-name="uni2561" unicode="&#x2561;" 
d="M-41 295v147h582v148h-582v147h582v885h147v-2212h-147v885h-582z" />
    <glyph glyph-name="uni2562" unicode="&#x2562;" 
d="M-41 442v148h434v1032h148v-2212h-148v1032h-434zM688 -590v2212h148v-2212h-148z" />
    <glyph glyph-name="uni2563" unicode="&#x2563;" 
d="M688 -590v2212h148v-2212h-148zM541 1622v-1032h-582v147h434v885h148zM541 442v-1032h-148v885h-434v147h582z" />
    <glyph glyph-name="uni2564" unicode="&#x2564;" 
d="M-41 295v147h1311v-147h-582v-885h-147v885h-582zM-41 590v147h1311v-147h-1311z" />
    <glyph glyph-name="uni2565" unicode="&#x2565;" 
d="M-41 442v148h1311v-148h-434v-1032h-148v1032h-147v-1032h-148v1032h-434z" />
    <glyph glyph-name="uni2566" unicode="&#x2566;" 
d="M-41 295v147h582v-1032h-148v885h-434zM-41 590v147h1311v-147h-1311zM688 -590v1032h582v-147h-434v-885h-148z" />
    <glyph glyph-name="uni2567" unicode="&#x2567;" 
d="M-41 295v147h1311v-147h-1311zM-41 590v147h582v885h147v-885h582v-147h-1311z" />
    <glyph glyph-name="uni2568" unicode="&#x2568;" 
d="M-41 442v148h434v1032h148v-1032h147v1032h148v-1032h434v-148h-1311z" />
    <glyph glyph-name="uni2569" unicode="&#x2569;" 
d="M-41 295v147h1311v-147h-1311zM-41 590v147h434v885h148v-1032h-582zM688 590v1032h148v-885h434v-147h-582z" />
    <glyph glyph-name="uni256A" unicode="&#x256a;" 
d="M-41 295v147h582v148h-582v147h582v885h147v-885h582v-147h-582v-148h582v-147h-582v-885h-147v885h-582z" />
    <glyph glyph-name="uni256B" unicode="&#x256b;" 
d="M-41 442v148h434v1032h148v-1032h147v1032h148v-1032h434v-148h-434v-1032h-148v1032h-147v-1032h-148v1032h-434z" />
    <glyph glyph-name="uni256C" unicode="&#x256c;" 
d="M-41 295v147h582v-1032h-148v885h-434zM-41 590v147h434v885h148v-1032h-582zM688 -590v1032h582v-147h-434v-885h-148zM688 590v1032h148v-885h434v-147h-582z" />
    <glyph glyph-name="uni2580" unicode="&#x2580;" 
d="M0 516v1106h1229v-1106h-1229z" />
    <glyph glyph-name="uni2584" unicode="&#x2584;" 
d="M0 -590v1106h1229v-1106h-1229z" />
    <glyph glyph-name="uni2588" unicode="&#x2588;" 
d="M0 -590v2212h1229v-2212h-1229z" />
    <glyph glyph-name="uni258C" unicode="&#x258c;" 
d="M0 -590v2212h614v-2212h-614z" />
    <glyph glyph-name="uni2590" unicode="&#x2590;" 
d="M614 -590v2212h615v-2212h-615z" />
    <glyph glyph-name="uni2591" unicode="&#x2591;" 
d="M0 -590v201h205v-201h-205zM410 -590v201h204v-201h-204zM819 -590v201h205v-201h-205zM0 1421v201h205v-201h-205zM410 1421v201h204v-201h-204zM819 1421v201h205v-201h-205zM0 1018v201h205v-201h-205zM410 1018v201h204v-201h-204zM819 1018v201h205v-201h-205z
M0 -186v200h205v-200h-205zM410 -186v200h204v-200h-204zM819 -186v200h205v-200h-205zM0 215v201h205v-201h-205zM410 215v201h204v-201h-204zM819 215v201h205v-201h-205zM0 616v201h205v-201h-205zM410 616v201h204v-201h-204zM819 616v201h205v-201h-205z" />
    <glyph glyph-name="uni2592" unicode="&#x2592;" 
d="M0 -590v199h203v-199h-203zM410 -590v199h202v-199h-202zM819 -590v199h203v-199h-203zM0 1423v199h203v-199h-203zM410 1423v199h202v-199h-202zM819 1423v199h203v-199h-203zM0 1022v199h203v-199h-203zM410 1022v199h202v-199h-202zM819 1022v199h203v-199h-203z
M0 -188v198h203v-198h-203zM410 -188v198h202v-198h-202zM819 -188v198h203v-198h-203zM0 215v199h203v-199h-203zM410 215v199h202v-199h-202zM819 215v199h203v-199h-203zM0 618v199h203v-199h-203zM410 618v199h202v-199h-202zM819 618v199h203v-199h-203zM205 1223v198
h203v-198h-203zM614 1223v198h203v-198h-203zM1024 1223v198h205v-198h-205zM205 819v199h203v-199h-203zM614 819v199h203v-199h-203zM1024 819v199h205v-199h-205zM1024 416v198h205v-198h-205zM614 416v198h203v-198h-203zM205 416v198h203v-198h-203zM205 12v199h203
v-199h-203zM614 12v199h203v-199h-203zM1024 12v199h205v-199h-205zM1024 -389v199h205v-199h-205zM614 -389v199h203v-199h-203zM205 -389v199h203v-199h-203z" />
    <glyph glyph-name="uni2593" unicode="&#x2593;" 
d="M283 -188h-283v198h283v-198zM410 -389h-283v199h283v-199zM410 12h-283v199h283v-199zM283 -590h-283v199h283v-199zM692 -188h-282v198h282v-198zM819 -389h-282v199h282v-199zM819 12h-282v199h282v-199zM692 -590h-282v199h282v-199zM1102 -188h-283v198h283v-198z
M1229 -389h-283v199h283v-199zM1229 12h-283v199h283v-199zM1102 -590h-283v199h283v-199zM410 1223h-283v198h283v-198zM283 1423h-283v199h283v-199zM283 1022h-283v199h283v-199zM819 1223h-282v198h282v-198zM692 1423h-282v199h282v-199zM692 1022h-282v199h282v-199z
M1229 1223h-283v198h283v-198zM1102 1423h-283v199h283v-199zM1102 1022h-283v199h283v-199zM283 215h-283v199h283v-199zM410 416h-283v198h283v-198zM692 215h-282v199h282v-199zM819 416h-282v198h282v-198zM1102 215h-283v199h283v-199zM1229 416h-283v198h283v-198z
M283 618h-283v199h283v-199zM410 819h-283v199h283v-199zM692 618h-282v199h282v-199zM819 819h-282v199h282v-199zM1102 618h-283v199h283v-199zM1229 819h-283v199h283v-199z" />
    <glyph glyph-name="uni25A0" unicode="&#x25a0;" 
d="M205 205v819h819v-819h-819z" />
    <glyph glyph-name="uni25B2" unicode="&#x25b2;" 
d="M94 250l520 971l521 -971h-1041z" />
    <glyph glyph-name="uni25B6" unicode="&#x25b6;" 
d="M129 217v1040l971 -520z" />
    <glyph glyph-name="uni25BC" unicode="&#x25bc;" 
d="M614 250l-520 971h1041z" />
    <glyph glyph-name="uni25C0" unicode="&#x25c0;" 
d="M1100 1257v-1040l-971 520z" />
    <glyph glyph-name="lozenge" unicode="&#x25ca;" 
d="M1114 739l-446 -835h-111l-442 835l446 838h111zM987 735l-330 621q-19 39 -43 104h-4q-15 -46 -43 -104l-325 -613l331 -622q24 -43 39 -105h6q17 58 39 103z" />
    <glyph glyph-name="uni25CB" unicode="&#x25cb;" 
d="M145 516q0 127 63 235t171 171t235 63t235 -63t171 -171t63 -235t-63 -235t-171 -171t-235 -63t-235 63t-171 171t-63 235zM231 516q0 -158 112.5 -270.5t270.5 -112.5t270.5 112.5t112.5 270.5q0 157 -112.5 270t-270.5 113t-270.5 -113t-112.5 -270z" />
    <glyph glyph-name="uni25D8" unicode="&#x25d8;" 
d="M0 -590v2212h1229v-2212h-1229zM362 516q0 -106 73 -179t179 -73q103 0 177.5 73.5t74.5 178.5q0 103 -74.5 177.5t-177.5 74.5t-177.5 -74.5t-74.5 -177.5z" />
    <glyph glyph-name="uni25D9" unicode="&#x25d9;" 
d="M0 -590v2212h1229v-2212h-1229zM145 516q0 -127 63 -235t171 -171t235 -63t235 63t171 171t63 235t-63 235t-171 171t-235 63t-235 -63t-171 -171t-63 -235zM268 516q0 141 102 242.5t244 101.5t244.5 -101.5t102.5 -242.5q0 -142 -102 -243t-245 -101t-244.5 101
t-101.5 243z" />
    <glyph glyph-name="uni263A" unicode="&#x263a;" 
d="M20 676q0 123 46 233t125 189t189.5 125.5t233.5 46.5t233.5 -46.5t189.5 -125.5t125 -189t46 -233t-46 -233t-125 -189t-189.5 -125.5t-233.5 -46.5t-233.5 46.5t-189.5 125.5t-125 189t-46 233zM614 1239q-155 0 -284 -74.5t-203 -204t-74 -284.5t74 -284.5t203 -204
t284 -74.5t284 74.5t203.5 204t74.5 284.5t-74.5 284.5t-203.5 204t-284 74.5zM270 879q0 43 30 72.5t73 29.5t72.5 -29.5t29.5 -72.5t-29.5 -73t-72.5 -30t-73 30t-30 73zM754 879q0 43 29.5 72.5t72.5 29.5t72.5 -29.5t29.5 -72.5t-29.5 -73t-72.5 -30t-72.5 30t-29.5 73z
M614 225q-78 0 -154.5 30.5t-131.5 96.5q-45 53 -37 110q5 32 21 33q11 0 20 -16q101 -184 282 -184q182 0 283 184q16 28 31 9q20 -25 6 -75q-9 -33 -33 -61q-55 -66 -131.5 -96.5t-155.5 -30.5z" />
    <glyph glyph-name="uni263B" unicode="&#x263b;" 
d="M20 676q0 123 46 233t125 189t189.5 125.5t233.5 46.5t233.5 -46.5t189.5 -125.5t125 -189t46 -233t-46 -233t-125 -189t-189.5 -125.5t-233.5 -46.5t-233.5 46.5t-189.5 125.5t-125 189t-46 233zM270 879q0 -43 30 -73t73 -30t72.5 30t29.5 73t-29.5 72.5t-72.5 29.5
t-73 -29.5t-30 -72.5zM754 879q0 -43 29.5 -73t72.5 -30t72.5 30t29.5 73t-29.5 72.5t-72.5 29.5t-72.5 -29.5t-29.5 -72.5zM614 225q79 0 155.5 30.5t131.5 96.5q45 53 37 110q-5 32 -21 33q-11 0 -20 -16q-101 -184 -283 -184q-181 0 -282 184q-16 28 -31 9
q-20 -25 -6 -75q9 -33 33 -61q55 -66 131.5 -96.5t154.5 -30.5z" />
    <glyph glyph-name="uni263C" unicode="&#x263c;" 
d="M1061 1051l-180 -181q58 -66 73 -184h254v-65h-256q-14 -105 -78 -172l181 -181l-47 -47l-179 178q-74 -71 -182 -86v-252h-65v252q-118 17 -183 76l-178 -178l-45 47l178 178q-71 76 -80 185h-254v65h254q-3 116 72 197l-178 178l45 49l180 -180q71 55 189 63v256h65
v-256q101 -3 187 -75l180 178zM340 653q0 -118 73 -196t195 -78q125 0 203 78t78 196q-3 119 -80 197t-199 78q-123 -1 -196.5 -79.5t-73.5 -195.5z" />
    <glyph glyph-name="uni2640" unicode="&#x2640;" 
d="M651 0h-73v350h-259v74h259v223q-132 23 -213.5 117.5t-81.5 218.5q0 136 97 232t234 96q139 0 235.5 -95.5t96.5 -232.5q0 -125 -80.5 -219t-214.5 -117v-223h258v-74h-258v-350zM348 979q0 -112 76.5 -189t187.5 -77q114 0 191.5 76.5t77.5 189.5t-77.5 189.5
t-191.5 76.5q-111 0 -187.5 -77t-76.5 -189z" />
    <glyph glyph-name="uni2642" unicode="&#x2642;" 
d="M625 287q78 79 78 188t-78 187q-79 81 -189 81.5t-188 -79.5q-80 -79 -79.5 -188.5t81.5 -188.5q76 -78 186 -78t189 78zM645 735l348 350l-213 78v4h348v-348h-4l-80 213l-348 -348q77 -111 68 -234t-96 -212q-97 -96 -233.5 -94.5t-233.5 98.5q-98 98 -98.5 233
t96.5 232q88 89 209 98.5t237 -70.5z" />
    <glyph glyph-name="uni2660" unicode="&#x2660;" 
d="M1110 0h-991l8 45q239 7 354 134.5t115 371.5h-4q-45 -102 -127 -163.5t-191 -61.5t-188.5 76.5t-79.5 185.5q0 59 21.5 113.5t61 102t78 84t89.5 80.5q16 13 23 19q68 58 113.5 102.5t92.5 103t78 124t49 141.5h4q18 -76 49 -141.5t78.5 -124t93 -102.5t113.5 -103
q114 -99 151 -138q122 -129 122 -261q0 -109 -80 -185.5t-189 -76.5t-190.5 61.5t-126.5 163.5h-4q0 -244 115 -371.5t354 -134.5z" />
    <glyph glyph-name="uni2662" unicode="&#x2662;" 
d="M614 1458q221 -339 609 -741q-386 -400 -609 -742q-225 345 -608 742q385 399 608 741zM614 23q191 299 568 694q-377 395 -568 694q-193 -303 -567 -694q374 -391 567 -694z" />
    <glyph glyph-name="uni2663" unicode="&#x2663;" 
d="M1030 0h-831l12 43q74 17 127.5 38t106.5 62.5t85.5 99.5t53 150t20.5 213h-4q-17 -51 -46.5 -99.5t-69.5 -90t-91.5 -67t-105.5 -25.5q-86 0 -151.5 49.5t-97.5 124t-32 157.5q0 69 25.5 143t78.5 129.5t119 55.5q81 0 177 -61q-35 69 -50.5 113.5t-15.5 103.5
q0 76 30.5 147.5t95 121.5t148.5 50t148.5 -50t95.5 -121.5t31 -147.5q0 -59 -15.5 -103.5t-50.5 -113.5q96 61 176 61q66 0 119.5 -55.5t79 -129.5t25.5 -143q0 -83 -32 -157.5t-97.5 -124t-151.5 -49.5q-54 0 -105.5 25.5t-91.5 67t-69.5 90t-46.5 99.5h-4
q0 -121 20.5 -213t53 -150t85.5 -99.5t106.5 -62.5t127.5 -38z" />
    <glyph glyph-name="uni2665" unicode="&#x2665;" 
d="M616 -25h-4q-21 88 -58 174.5t-93.5 176.5t-100.5 151.5t-116 157.5q-52 70 -85 119.5t-73 121t-60 141t-20 136.5q0 129 83 217t212 88q115 0 200.5 -89t110.5 -208h4q25 119 111 208t201 89q129 0 212 -88t83 -217q0 -67 -20 -136.5t-60 -141t-73 -121t-85 -119.5
q-73 -97 -116 -157.5t-100 -151t-94.5 -177t-58.5 -174.5z" />
    <glyph glyph-name="uni2666" unicode="&#x2666;" 
d="M614 1458q221 -339 609 -741q-386 -400 -609 -742q-225 345 -608 742q385 399 608 741z" />
    <glyph glyph-name="uni266A" unicode="&#x266a;" 
d="M586 371v1087h90v-129l47 -59l80 -94q104 -126 156.5 -243.5t52.5 -260.5q0 -91 -32 -182.5t-89 -157.5h-60q89 151 89 315q0 79 -25.5 156.5t-83 139.5t-135.5 75v-643q0 -173 -88 -264t-230 -91q-64 0 -102.5 34.5t-38.5 97.5q0 96 78.5 168.5t175.5 72.5q63 0 115 -22
z" />
    <glyph glyph-name="uni266C" unicode="&#x266c;" 
d="M1116 414v573l-633 -190v-494q0 -178 -87.5 -268t-231.5 -90q-64 0 -102.5 33.5t-38.5 95.5q0 98 79 169.5t177 71.5q62 0 114 -22v960l813 230v-1059q0 -178 -87.5 -268t-231.5 -90q-65 0 -103.5 33.5t-38.5 95.5q0 98 79 169.5t177 71.5q63 0 115 -22zM483 958l633 193
v147l-633 -192v-148z" />
    <glyph glyph-name="SM700000" unicode="&#xe000;" 
d="M205 532v410h819v-410h-819z" />
    <glyph glyph-name="uni0044_uni004D" unicode="&#xe001;" 
d="M907 739l203 736h100v-1475h-102v1122h-4l-197 -723l-196 723l-4 -4v-1118h-103v1475h101zM6 0v1475h248q58 0 104 -21.5t85.5 -73t65.5 -135t41 -211.5t15 -297q0 -210 -21 -354t-64 -227.5t-101.5 -119.5t-140.5 -36h-232zM109 1366v-1257h122q46 2 78 14.5t63.5 51
t49.5 105.5t29.5 181.5t11.5 275.5q0 138 -8 242.5t-24.5 172t-36 111.5t-48 66t-55 29.5t-62.5 7.5h-120z" />
    <glyph glyph-name="uniF638" unicode="&#xf638;" 
d="M864 1092l-465 -824q28 -71 85.5 -119.5t129.5 -48.5q44 0 80.5 14t74 55.5t63 110t41.5 185t16 272.5q0 228 -25 355zM356 457l449 798q-75 119 -191 119q-44 0 -81 -14t-74 -55.5t-62 -108.5t-40.5 -181t-14.5 -265q0 -47 5 -141.5t5 -141.5v-10h4zM315 121l-77 -135
l-115 65l119 211q-33 100 -43.5 209.5t-10.5 253.5v27q2 33 0 77t3 96t10.5 107.5t21 112t35.5 109t53.5 98t74.5 79t99.5 53t128.5 19.5q157 0 269 -112l78 139l114 -68l-110 -194q48 -108 62.5 -230t14.5 -288q0 -205 -18 -321q-65 -417 -353 -454q-27 -4 -57 -4
q-88 0 -167.5 40t-131.5 110z" />
    <glyph glyph-name="fi" unicode="&#xfb01;" 
d="M834 969h-410v-969h-154v969h-202v129h202v65q0 78 28 143.5t74.5 107.5t106.5 65.5t125 23.5q32 0 66.5 -5t58 -10t64 -19t56 -20t62 -25t56.5 -23v-170q-24 12 -80 42.5t-92.5 49t-87.5 35t-93 16.5q-55 0 -93.5 -17t-59 -49t-29 -70t-8.5 -87v-53h563v-1098h-153v969z
" />
    <glyph glyph-name="fl" unicode="&#xfb02;" 
d="M418 1098h297v-129h-297v-969h-154v969h-203v129h203v65q0 78 28 143.5t74.5 107.5t106.5 65.5t125 23.5q92 0 185 -30t231 -93v-1380h-154v1288q-11 5 -45.5 22t-51.5 25t-46 19t-53.5 15.5t-49.5 4.5q-102 0 -149 -57.5t-47 -151.5v-67z" />
    <glyph glyph-name="emdash" 
d="M1229 670h-1229v129h1229v-129z" />
  </font>
</defs>
</svg>
