<?xml version="1.0" standalone="no"?>
<!DOCTYPE svg PUBLIC "-//W3C//DTD SVG 1.1//EN" "http://www.w3.org/Graphics/SVG/1.1/DTD/svg11.dtd" >
<svg xmlns="http://www.w3.org/2000/svg" xmlns:xlink="http://www.w3.org/1999/xlink" version="1.1">
<metadata>
Created by FontForge 20170731 at Sun Feb 19 15:18:41 2023
 By Aleksey,,,
Copyright (c) 1987, 1990, 1991, 1995, 1998, 2001 Adobe Systems Incorporated.  All Rights Reserved.
</metadata>
<defs>
<font id="LetterGothicStd-Slanted" horiz-adv-x="1228" >
  <font-face 
    font-family="Letter Gothic Std"
    font-weight="400"
    font-style="oblique"
    font-stretch="normal"
    units-per-em="2048"
    panose-1="2 11 4 9 2 2 2 10 3 4"
    ascent="1520"
    descent="-528"
    x-height="1083"
    cap-height="1475"
    bbox="0 -590 1507 1901"
    underline-thickness="102"
    underline-position="-307"
    slope="-12"
    unicode-range="U+0020-FB02"
  />
<missing-glyph 
d="M270 0v1434h1024v-1434h-1024zM782 809l348 522h-696zM844 717l348 -522v1044zM434 102h696l-348 523zM373 1239v-1044l348 522z" />
    <glyph glyph-name=".notdef" 
d="M270 0v1434h1024v-1434h-1024zM782 809l348 522h-696zM844 717l348 -522v1044zM434 102h696l-348 523zM373 1239v-1044l348 522z" />
    <glyph glyph-name=".null" horiz-adv-x="0" 
 />
    <glyph glyph-name="nonmarkingreturn" 
 />
    <glyph glyph-name="space" unicode=" " 
 />
    <glyph glyph-name="exclam" unicode="!" 
d="M999 1475l-241 -1010h-82l180 1010h143zM494 109q12 57 61.5 98t106.5 41t88.5 -41t19.5 -98t-61.5 -97.5t-106.5 -40.5t-88.5 40.5t-19.5 97.5z" />
    <glyph glyph-name="quotedbl" unicode="&#x22;" 
d="M670 1475h192l-49 -228l-113 -276h-82l3 276zM995 1475h193l-49 -228l-113 -276h-82l2 276z" />
    <glyph glyph-name="numbersign" unicode="#" 
d="M547 1649h90l-332 -1846h-92l125 686h-275l17 91h274l58 321h-275l17 90h274zM674 -197h-92l338 1846h90l-119 -658h276l-18 -90h-275l-57 -321h275l-17 -91h-274z" />
    <glyph glyph-name="dollar" unicode="$" 
d="M1214 1241l-73 -76q-98 113 -211 123l-101 -473q51 -19 90 -41.5t73 -54t51 -69.5t24 -88.5t-8 -110.5q-30 -139 -132 -223.5t-243 -96.5l-43 -194h-96l43 194q-175 3 -291 145l74 72q109 -125 233 -135l113 532q-113 39 -177 123t-38 205q25 119 126 201t222 96l33 150
h96l-33 -150q154 -15 268 -129zM737 838l94 446q-81 -12 -148 -72.5t-85 -144.5q-17 -77 26 -138t113 -91zM809 725l-109 -512q91 4 166 72t95 161q21 99 -21.5 169.5t-130.5 109.5z" />
    <glyph glyph-name="percent" unicode="%" 
d="M504 1116q-14 -65 2.5 -102t77.5 -37q51 0 99.5 35t82.5 87.5t57 106.5t33 101q6 36 3.5 66t-23.5 49.5t-58 19.5q-53 0 -102 -33.5t-82.5 -85.5t-56.5 -105.5t-33 -101.5zM1268 1503h86l-1073 -1503h-86zM418 1133q14 67 46.5 131.5t79 118.5t110.5 87t134 33
q100 0 137.5 -56.5t16.5 -156.5q-35 -165 -146 -270t-229 -105q-100 0 -136 58.5t-13 159.5zM602 195q14 67 47 131.5t80 118.5t111.5 87t134.5 33q100 0 137 -56.5t16 -156.5q-35 -165 -145.5 -270t-228.5 -105q-100 0 -136.5 58.5t-15.5 159.5zM688 178q-29 -139 82 -139
q51 0 99 34.5t81.5 88t56.5 107t33 100.5q12 59 -5.5 97t-71.5 38q-53 0 -102 -33.5t-83 -85.5t-57 -105.5t-33 -101.5z" />
    <glyph glyph-name="ampersand" unicode="&#x26;" 
d="M856 229l-217 488l-78.5 -78.5t-67.5 -73.5t-70 -88t-46 -83.5t-35 -98.5q-24 -108 23 -175t155 -67q196 0 336 176zM727 803l188 -471q29 55 52.5 127.5t35.5 124.5t31 143h103q-40 -165 -79 -276t-97 -205l131 -209l-82 -70l-121 191q-174 -187 -385 -187
q-148 0 -222 86t-44 232q15 72 47 138t84.5 130.5t95.5 109.5t116 116q18 17 27 26q-18 46 -27 71t-22 69t-17.5 76.5t-4.5 74.5t8 82q14 62 40.5 117.5t66 102t96.5 74t124 27.5q98 0 147 -80t25 -188q-5 -26 -14.5 -52t-18 -47t-26.5 -47.5t-27.5 -42t-34 -43.5t-34 -39.5
t-40 -41.5t-38.5 -38t-43 -41.5t-41 -39.5zM844 1421q-74 0 -125.5 -68t-67.5 -149q-10 -47 -12 -88t4.5 -80.5t17 -74t29.5 -82.5q96 105 139 155t74.5 100t38 81.5t6.5 82.5q0 42 -25 82.5t-79 40.5z" />
    <glyph glyph-name="quotesingle" unicode="'" 
d="M831 1475h193l-49 -228l-113 -276h-82l2 276z" />
    <glyph glyph-name="parenleft" unicode="(" 
d="M791 -82l-58 -59q-82 66 -135.5 162t-75.5 205.5t-19.5 226t27.5 235.5q35 162 106 313.5t188 291.5t263 227l31 -62q-198 -128 -318.5 -330t-172.5 -440q-24 -113 -28.5 -218t11.5 -206t61.5 -190.5t119.5 -155.5z" />
    <glyph glyph-name="parenright" unicode=")" 
d="M729 1458l59 62q82 -66 135.5 -162t75 -206t19 -227.5t-28.5 -236.5q-25 -119 -72.5 -235t-115.5 -226t-162.5 -206t-204.5 -162l-33 59q135 87 238 216.5t162.5 265.5t91.5 288q25 113 30 218.5t-11 207t-62 190.5t-121 154z" />
    <glyph glyph-name="asterisk" unicode="*" 
d="M883 1475h88l-86 -404l411 115l9 -86l-424 -115l186 -321l-80 -54l-178 310l-303 -310l-57 54l315 321l-373 115l43 86l363 -115z" />
    <glyph glyph-name="plus" unicode="+" 
d="M1303 782v-90h-500v-499h-90v499h-500v90h500v500h90v-500h500z" />
    <glyph glyph-name="comma" unicode="," 
d="M453 -227l18 86q56 15 106.5 46t79.5 75q-5 0 -20 -5q-4 0 -11 -1t-10 -1q-56 0 -82.5 34.5t-15.5 92.5q12 57 59.5 95t104.5 38q65 0 94 -50t15 -117q-23 -103 -123.5 -182.5t-214.5 -110.5z" />
    <glyph glyph-name="hyphen" unicode="-" 
d="M1004 694h-484l19 82h483z" />
    <glyph glyph-name="period" unicode="." 
d="M500 109q12 57 61.5 98t106.5 41t88.5 -41t19.5 -98t-61.5 -97.5t-106.5 -40.5t-88.5 40.5t-19.5 97.5z" />
    <glyph glyph-name="slash" unicode="/" 
d="M358 -55h-94l606 1585h95z" />
    <glyph glyph-name="zero" unicode="0" 
d="M1178 737q-70 -324 -152 -473q-70 -132 -178 -212.5t-240 -80.5q-127 0 -201 76t-90 201q-23 165 50 489q70 326 149 473q72 133 178.5 213t239.5 80q128 0 201.5 -75.5t89.5 -200.5q22 -163 -47 -490zM1081 737q59 266 49 422q-3 53 -15.5 97.5t-36 83t-64.5 61
t-96 22.5q-58 0 -112 -24.5t-96 -67t-74.5 -90.5t-57.5 -104q-62 -141 -115 -400q-60 -273 -51 -424q3 -52 15.5 -96t36.5 -83t65 -61t96 -22q58 0 112 24.5t96 67.5t74.5 91t57.5 104q63 142 116 399z" />
    <glyph glyph-name="one" unicode="1" 
d="M991 1520l-305 -1438h272l-18 -82h-649l18 82h281l278 1315l-315 -92l20 90z" />
    <glyph glyph-name="two" unicode="2" 
d="M340 82h688l-18 -82h-785q27 128 57 209.5t88.5 165t141.5 157.5t225 179q159 116 212 163q176 152 206 291q25 116 -29 186t-170 70q-133 0 -229 -89t-135 -226h-96q53 179 178 288t301 109q160 0 234 -92.5t40 -251.5q-15 -71 -51 -134.5t-102 -127.5t-107 -97.5
t-129 -99.5q-25 -19 -37 -28q-184 -137 -280 -231.5t-137 -170.5t-66 -188z" />
    <glyph glyph-name="three" unicode="3" 
d="M694 756l19 82q136 0 251 88t144 223q25 113 -41 192.5t-182 79.5q-99 0 -192 -56t-161 -146l-71 45q86 112 203.5 175.5t244.5 63.5q155 0 240 -107.5t53 -260.5q-24 -111 -107 -197.5t-198 -132.5q131 -45 189 -149t28 -248q-40 -189 -187.5 -310t-338.5 -121
q-142 0 -227.5 63.5t-139.5 190.5l96 52q60 -224 283 -224q154 0 267.5 88.5t146.5 241.5q18 95 3 164.5t-61 114.5t-112 66.5t-150 21.5z" />
    <glyph glyph-name="four" unicode="4" 
d="M1159 1503l-217 -1026h209l-18 -82h-209l-84 -395h-97l84 395h-600l15 72l766 1036h151zM846 477l203 959h-5l-694 -959h496z" />
    <glyph glyph-name="five" unicode="5" 
d="M1233 1475l-16 -82h-533l-186 -635l4 -4q140 153 315 153q78 0 141 -29t105 -87t55 -143.5t-10 -198.5q-20 -92 -65.5 -176.5t-110.5 -150.5t-152.5 -105.5t-183.5 -39.5q-212 0 -317 222l81 55q31 -85 101.5 -140t163.5 -55q133 0 242.5 111.5t142.5 269.5
q20 88 13 153.5t-27.5 109.5t-54.5 71.5t-68.5 39t-69.5 11.5q-165 0 -305 -168l-109 23l227 795h617z" />
    <glyph glyph-name="six" unicode="6" 
d="M1028 471q12 56 13.5 107.5t-10 100t-36.5 84t-69.5 56.5t-104.5 21q-52 0 -112 -26.5t-118.5 -75.5t-106.5 -129.5t-68 -176.5q-11 -53 -12 -105t11.5 -100.5t37 -85.5t68.5 -59.5t102 -22.5q83 0 154 36t120 96t81.5 131t49.5 149zM1303 1427l-64 -81q-89 75 -184 75
q-90 0 -178.5 -51t-156.5 -131.5t-124.5 -178t-90.5 -191.5t-46 -171l4 -4q175 228 395 228q71 0 126.5 -26t87 -70t50 -102t16.5 -122t-14 -131q-20 -97 -64.5 -184.5t-108.5 -157.5t-154 -111t-193 -41q-62 0 -112.5 18.5t-92.5 65t-63.5 118.5t-20 185.5t32.5 258.5
q37 175 98.5 322t135 248.5t158 172.5t169 104t166.5 33q60 0 121.5 -21t106.5 -55z" />
    <glyph glyph-name="seven" unicode="7" 
d="M524 1475h774l-880 -1475h-107l848 1393h-651z" />
    <glyph glyph-name="eight" unicode="8" 
d="M342 389q-33 -156 46.5 -243t238.5 -87t275 87t149 243t-46 247t-237 91t-275.5 -91t-150.5 -247zM1153 1116q29 141 -35 223t-203 82q-146 0 -244.5 -84.5t-129.5 -234.5q-29 -133 40 -213t203 -80q139 0 238.5 83t130.5 224zM610 -23q-221 0 -312 110t-52 302
q30 139 115 237t225 144q-88 42 -124.5 139.5t-12.5 206.5q38 176 173 281.5t312 105.5q180 0 266.5 -104t48.5 -283q-24 -111 -98.5 -208t-179.5 -138q119 -45 162.5 -143t13.5 -238q-40 -193 -180 -302.5t-357 -109.5z" />
    <glyph glyph-name="nine" unicode="9" 
d="M238 47l63 82q84 -70 188 -70q75 0 149.5 35.5t135 95t114.5 134.5t93.5 156t65.5 158t36 142q-186 -227 -399 -227q-71 0 -126.5 26t-87.5 69.5t-51 101t-17 121.5t14 130q21 98 66 186.5t110 160t155.5 113.5t192.5 42q213 0 272 -227q41 -164 -18 -424
q-68 -322 -215 -543q-95 -145 -228.5 -238.5t-281.5 -93.5q-136 0 -231 70zM512 1004q-12 -56 -13.5 -108t10.5 -100t37.5 -83.5t70 -56.5t104.5 -21q65 0 134 37t126 94q109 111 145 276q11 53 12 105.5t-11 102t-36.5 87.5t-68.5 61t-102 23q-83 0 -154.5 -36.5t-121 -98
t-82.5 -133t-50 -149.5z" />
    <glyph glyph-name="colon" unicode=":" 
d="M498 109q12 57 61.5 98t106.5 41t88.5 -41t19.5 -98t-61.5 -97.5t-106.5 -40.5t-88.5 40.5t-19.5 97.5zM651 827q12 57 60.5 98.5t105.5 41.5t90 -41.5t21 -98.5t-61.5 -97t-106.5 -40t-89 40t-20 97z" />
    <glyph glyph-name="semicolon" unicode=";" 
d="M453 -227l18 86q56 15 106.5 46t79.5 75q-5 0 -20 -5q-4 0 -11 -1t-10 -1q-56 0 -82.5 34.5t-15.5 92.5q12 57 59.5 95t104.5 38q65 0 94 -50t15 -117q-23 -103 -123.5 -182.5t-214.5 -110.5zM674 827q12 57 60.5 98.5t105.5 41.5t89.5 -41.5t20.5 -98.5t-61.5 -97
t-106.5 -40t-88.5 40t-19.5 97z" />
    <glyph glyph-name="less" unicode="&#x3c;" 
d="M344 737l776 738l51 -66l-696 -672l696 -671l-51 -66z" />
    <glyph glyph-name="equal" unicode="=" 
d="M1303 920v-91h-1090v91h1090zM1303 645v-90h-1090v90h1090z" />
    <glyph glyph-name="greater" unicode="&#x3e;" 
d="M395 1475l776 -738l-776 -737l-51 66l696 671l-696 672z" />
    <glyph glyph-name="question" unicode="?" 
d="M750 459h-97l41 200q11 63 41 109q37 55 189 156q78 54 118 104t56 129q25 119 -26.5 191.5t-168.5 72.5q-106 0 -185.5 -63.5t-105.5 -167.5h-102q44 147 154 230t258 83q162 0 233.5 -95t36.5 -257q-23 -110 -76 -173t-168 -140q-38 -26 -59.5 -41t-41 -36t-27 -30.5
t-17.5 -38.5t-13.5 -44.5t-13.5 -63.5zM504 109q12 57 61.5 98t106.5 41t88.5 -41t19.5 -98t-61.5 -97.5t-106.5 -40.5t-88.5 40.5t-19.5 97.5z" />
    <glyph glyph-name="at" unicode="@" 
d="M1102 225l16 -92q-134 -75 -278.5 -118.5t-276.5 -43.5q-81 0 -153.5 23t-136 71t-102 123.5t-50.5 180.5t18 241q37 171 117.5 331.5t189.5 285.5t248 200.5t283 75.5q112 0 204.5 -42.5t153.5 -122.5t83 -194.5t-9 -258.5q-17 -76 -52 -158t-87 -160.5t-126.5 -129
t-156.5 -50.5q-63 0 -106.5 31.5t-46.5 89.5q-116 -127 -242 -127q-78 0 -114.5 52.5t-18.5 133.5q19 90 73.5 192.5t120.5 166.5q120 118 373 118h66l-121 -319q-25 -65 -35 -113.5t-7.5 -75t15.5 -42.5t28 -20.5t36 -4.5q58 0 112 43t91 108.5t61.5 128.5t36.5 119
q26 119 14.5 210.5t-44.5 156.5t-86 106.5t-109 60.5t-113 19q-114 0 -220.5 -52t-188 -135.5t-149 -190.5t-110.5 -215.5t-65 -213.5q-29 -125 -18.5 -219.5t42.5 -159.5t87.5 -105.5t115.5 -58.5t127 -18q210 0 510 172zM920 825l49 138q-50 -3 -111 -20.5t-100 -43.5
q-61 -41 -123 -143t-78 -176q-8 -45 6.5 -81t54.5 -36q31 0 64.5 15.5t74 52.5t83 112.5t80.5 181.5z" />
    <glyph glyph-name="A" unicode="A" 
d="M942 1534l168 -1534h-109l-36 449h-502l-232 -449h-106zM887 1272l-387 -742h461z" />
    <glyph glyph-name="B" unicode="B" 
d="M358 82h310q48 0 100.5 18t103.5 52.5t91.5 95t56.5 137.5q29 141 -43 241.5t-229 100.5h-254zM666 0h-422l313 1475h361q163 0 243 -97t45 -264q-50 -232 -307 -334q135 -42 192 -142.5t25 -248.5q-35 -165 -158 -277t-292 -112zM512 809h150q185 0 301 83.5t147 227.5
q15 59 9 109t-31 86.5t-83.5 57t-148.5 20.5h-219z" />
    <glyph glyph-name="C" unicode="C" 
d="M1262 1196h-97q17 96 -39.5 160.5t-154.5 64.5q-371 0 -518 -694q-13 -63 -22 -115t-15.5 -124.5t-4 -129t17 -116t42.5 -99t78 -65t119 -25.5q115 0 208.5 75.5t122.5 190.5h97q-50 -163 -170.5 -255.5t-284.5 -92.5q-81 0 -142 26t-97.5 69t-58.5 105t-29 126.5
t-3.5 141.5t13 142t24.5 136q171 786 639 786q136 0 214 -86.5t61 -220.5z" />
    <glyph glyph-name="D" unicode="D" 
d="M252 0l313 1475h369q122 0 199.5 -58.5t107.5 -150.5q57 -168 -20 -529q-27 -131 -64 -239.5t-74.5 -176t-60.5 -101t-43 -56.5q-150 -164 -387 -164h-340zM645 1393l-278 -1311h182q142 0 238 37t169 151q40 61 74 152.5t50.5 155.5t37.5 159q72 349 33 482
q-16 56 -45.5 92.5t-75.5 53.5t-91 22.5t-112 5.5h-182z" />
    <glyph glyph-name="E" unicode="E" 
d="M1343 1475l-16 -82h-625l-127 -594h449l-18 -82h-449l-133 -635h639l-19 -82h-735l314 1475h720z" />
    <glyph glyph-name="F" unicode="F" 
d="M1397 1475l-17 -82h-659l-125 -582h496l-17 -82h-495l-156 -729h-96l313 1475h756z" />
    <glyph glyph-name="G" unicode="G" 
d="M1106 629h-354l18 82h451l-158 -740h-96l49 234h-4q-56 -107 -165 -170.5t-226 -63.5q-73 0 -129 20t-100 70.5t-64 130.5t-15.5 206.5t39.5 291.5q41 191 94 335t110.5 234t126.5 145.5t137 77t147 21.5q163 0 231 -99.5t47 -266.5h-102q29 116 -19 200t-163 84
q-55 0 -105.5 -16.5t-90 -42.5t-75 -67t-62 -82.5t-51 -96.5t-40.5 -100.5t-32 -104t-25 -97.5t-19 -89q-10 -47 -17 -83.5t-15.5 -92.5t-12 -100t-3 -97.5t8.5 -93.5t24.5 -80.5t42.5 -66.5t66 -42t92 -16q50 0 98.5 13.5t100.5 46.5t95.5 83.5t81 131t58.5 182.5z" />
    <glyph glyph-name="H" unicode="H" 
d="M635 1475l-141 -668h583l142 668h96l-314 -1475h-96l154 725h-584l-153 -725h-97l314 1475h96z" />
    <glyph glyph-name="I" unicode="I" 
d="M1180 1475l-17 -82h-205l-278 -1311h205l-19 -82h-506l19 82h205l278 1311h-205l17 82h506z" />
    <glyph glyph-name="J" unicode="J" 
d="M879 1475h374l-215 -1008q-56 -263 -176.5 -379.5t-324.5 -116.5q-185 0 -253 110.5t-16 362.5l33 158h96l-43 -211q-35 -176 12 -257.5t187 -80.5q153 3 247.5 92t127.5 246l213 1002h-279z" />
    <glyph glyph-name="K" unicode="K" 
d="M696 1475l-143 -676q156 2 412 286q166 187 292 396l89 -54q-117 -150 -240 -297q-219 -272 -428 -380l471 -750h-133l-432 717h-49l-152 -717h-96l313 1475h96z" />
    <glyph glyph-name="L" unicode="L" 
d="M756 1475l-295 -1393h647l-18 -82h-744l313 1475h97z" />
    <glyph glyph-name="M" unicode="M" 
d="M756 664l508 811h106l-313 -1475h-96l272 1280h-4l-516 -819l-168 819l-6 -4l-271 -1276h-96l313 1475h107z" />
    <glyph glyph-name="N" unicode="N" 
d="M895 -14l-254 1355l-4 -4l-285 -1337h-96l313 1475h140l233 -1264l4 4l268 1260h97l-316 -1489h-100z" />
    <glyph glyph-name="O" unicode="O" 
d="M608 -29q-75 0 -131.5 18.5t-103.5 70t-68 135t-15.5 221t44.5 321.5q13 62 26.5 115t32.5 117t40 116.5t50 109t61 100t74 84t88.5 67t104.5 42t123 15.5q70 0 125 -17.5t90 -50t59 -74.5t34 -94t13.5 -105.5t-1.5 -112.5t-12.5 -111.5t-18 -106t-18.5 -91.5
q-1 -1 -1 -1.5v-1.5q-39 -183 -91 -320t-108 -221t-124 -135.5t-132.5 -70.5t-140.5 -19zM436 737q-34 -161 -42 -282.5t5.5 -197t47.5 -122t77.5 -64.5t102.5 -18q77 0 142 33t126.5 109.5t113.5 212t93 329.5q34 161 43.5 281.5t-3 196.5t-45.5 123t-76 65t-103 18
q-110 0 -196 -64t-159.5 -217.5t-126.5 -402.5z" />
    <glyph glyph-name="P" unicode="P" 
d="M297 0l313 1475h332q89 0 154 -24.5t101.5 -66t54 -99t17 -119.5t-15.5 -132q-46 -214 -190 -324t-356 -110h-187l-127 -600h-96zM932 1393h-242l-151 -711h172q186 0 295.5 93t144.5 257q19 104 12 173t-43 111t-82 59.5t-106 17.5z" />
    <glyph glyph-name="Q" unicode="Q" 
d="M436 737q-53 -252 -49 -389q9 -295 240 -295q338 0 478 671q2 9 3 13q34 160 42.5 281.5t-5 197t-47 122.5t-77.5 65t-103 18q-69 0 -129 -27.5t-102 -63t-82 -104.5t-61 -114t-47 -133t-33.5 -120.5t-25.5 -113.5l-1.5 -4.5t-0.5 -3.5zM909 88l121 -215h-121l-80 160
q-106 -62 -221 -62q-102 0 -171 40t-109.5 127.5t-39 238t45.5 360.5q44 208 106.5 357.5t140 238t164 129.5t189.5 41q78 0 136.5 -22t103.5 -76.5t65.5 -140.5t14 -219.5t-43.5 -307.5q-20 -95 -40.5 -169.5t-55.5 -169t-87 -174t-118 -136.5z" />
    <glyph glyph-name="R" unicode="R" 
d="M295 0l313 1475h350q183 0 264 -111.5t42 -294.5q-30 -142 -130.5 -255t-242.5 -155l258 -659h-121l-231 637h-271l-135 -637h-96zM688 1393l-143 -674h239q52 0 107.5 20.5t110 61t98 112.5t63.5 164q16 65 10 122t-29 100.5t-75 68.5t-127 25h-254z" />
    <glyph glyph-name="S" unicode="S" 
d="M1282 1337l-74 -71q-67 73 -134.5 114t-153.5 41q-115 0 -209.5 -71.5t-118.5 -186.5q-19 -89 15.5 -155t150.5 -146l106 -74q48 -33 81 -57.5t65.5 -52.5t52 -52t36 -52.5t22.5 -57.5t5.5 -62.5t-8.5 -72.5q-39 -189 -177 -299.5t-329 -110.5q-246 0 -368 217l86 60
q41 -88 120 -141.5t181 -53.5q131 0 241.5 86.5t137.5 216.5q17 67 10.5 118t-56 104t-167.5 133l-121 82q-29 20 -52 37.5t-47 39.5t-40.5 44t-30.5 49t-20.5 55.5t-6.5 63t8 71.5q34 161 162 255.5t293 94.5q99 0 186.5 -45.5t153.5 -120.5z" />
    <glyph glyph-name="T" unicode="T" 
d="M1401 1475l-17 -82h-426l-296 -1393h-97l297 1393h-424l17 82h946z" />
    <glyph glyph-name="U" unicode="U" 
d="M1217 1475h96l-234 -1096q-18 -84 -57 -154t-88 -116t-107 -78t-113 -46t-106 -14q-101 0 -179.5 50.5t-114.5 139.5t-13 195l238 1119h96l-223 -1047q-41 -198 21 -286.5t194 -88.5t227.5 84.5t132.5 257.5z" />
    <glyph glyph-name="V" unicode="V" 
d="M631 68l586 1407h110l-637 -1489h-155l-19 1489h113l-2 -1407h4z" />
    <glyph glyph-name="W" unicode="W" 
d="M813 977l82 -819h4l367 1317h112l-430 -1489h-129l-59 741l-369 -741h-129l201 1489h112l-194 -1317h4z" />
    <glyph glyph-name="X" unicode="X" 
d="M537 1475h114l142 -637l411 637h115l-498 -732l195 -743h-115l-149 653l-424 -653h-115l514 745z" />
    <glyph glyph-name="Y" unicode="Y" 
d="M733 737l467 738h109l-551 -850l-133 -625h-97l134 625l-191 850h109z" />
    <glyph glyph-name="Z" unicode="Z" 
d="M567 1475h727l-16 -82l-913 -1311h684l-19 -82h-799l19 82l919 1311h-618z" />
    <glyph glyph-name="bracketleft" unicode="[" 
d="M692 1520h549l-18 -82h-453l-326 -1536h453l-18 -82h-549z" />
    <glyph glyph-name="backslash" unicode="\" 
d="M870 -55l-606 1585h94l607 -1585h-95z" />
    <glyph glyph-name="bracketright" unicode="]" 
d="M1188 1520l-363 -1700h-549l19 82h453l325 1536h-452l18 82h549z" />
    <glyph glyph-name="asciicircum" unicode="^" 
d="M471 731h-102l336 662h106l330 -662h-103l-280 563z" />
    <glyph glyph-name="underscore" unicode="_" 
d="M1229 -256h-1229v102h1229v-102z" />
    <glyph glyph-name="grave" unicode="`" 
d="M764 1503l268 -266l-57 -61l-305 241z" />
    <glyph glyph-name="a" unicode="a" 
d="M870 279l60 280q-111 66 -221 66q-65 0 -120.5 -26t-94 -70.5t-64.5 -99t-39 -116.5q-22 -100 16 -177t134 -77q91 0 168.5 58.5t160.5 161.5zM952 -10l-90 -13q-13 98 -2 185q-82 -91 -160 -138t-176 -47q-72 0 -125 28.5t-78.5 76t-34 110t8.5 130.5q35 163 145.5 274
t261.5 111q118 0 250 -72q51 205 21 297t-160 92q-64 0 -125.5 -18t-148.5 -54l-4 88q182 66 303 66q150 0 211 -100t18 -281q-92 -386 -106 -442q-28 -118 -9 -293z" />
    <glyph glyph-name="b" unicode="b" 
d="M582 1520h96l-109 -506q134 92 287 92q40 0 81 -11t85.5 -37t77.5 -68t57.5 -104t25 -145.5t-19.5 -191.5q-26 -122 -73.5 -221t-103.5 -163t-121 -107.5t-125 -62t-117 -18.5q-95 0 -161 47t-91 132l-76 -179l-88 13q82 158 133 391zM549 918l-135 -642
q25 -102 75 -159.5t148 -57.5q40 0 84 13.5t96.5 49t98 88t86 139t63.5 194.5q18 82 19.5 151.5t-10 118t-34 86.5t-49.5 61t-59.5 38t-61 20.5t-57.5 5.5q-120 0 -264 -106z" />
    <glyph glyph-name="c" unicode="c" 
d="M1020 229l51 -69q-104 -91 -196.5 -137t-200.5 -46q-50 0 -97 11t-95 36t-82 66.5t-58 103t-24 145t20 191.5q27 127 75.5 228t106 164.5t125.5 106t132 60t128 17.5q229 0 326 -219l-98 -58q-26 89 -88 142t-158 53q-45 0 -91 -11.5t-101 -44t-102 -83.5t-89 -138
t-66 -200q-26 -111 -20 -194t28 -139t62.5 -90.5t85 -49.5t94.5 -15q154 0 332 170z" />
    <glyph glyph-name="d" unicode="d" 
d="M1290 1520l-241 -1139q-50 -230 -35 -391l-92 -13l-2 179q-62 -85 -146.5 -132t-179.5 -47q-57 0 -109.5 19t-100.5 61t-75.5 108.5t-34.5 162t21 221.5q22 104 61.5 191.5t87.5 146.5t101 103t107.5 68.5t101 36t86.5 11.5q150 0 245 -92l109 506h96zM930 276l135 642
q-99 106 -219 106q-42 0 -87 -11.5t-102 -44.5t-106 -84t-93 -139.5t-69 -201.5q-26 -112 -19.5 -194.5t28 -138t60 -89t76.5 -48t78 -14.5q97 0 179 60.5t139 156.5z" />
    <glyph glyph-name="e" unicode="e" 
d="M1014 166l22 -90q-120 -48 -215.5 -73.5t-191.5 -25.5q-92 0 -160 32t-105.5 86t-55.5 127t-15.5 151.5t20.5 163.5t49.5 164.5t81 154t111 129.5t144.5 88t175 33q41 0 78 -8.5t72.5 -28.5t64 -50t49 -76.5t30 -105t5.5 -138t-24 -173.5h-741q-15 -93 -15.5 -166.5
t13.5 -124t36.5 -85.5t56.5 -54.5t70 -28t80 -8.5q163 0 365 107zM424 608h645q15 56 16 114.5t-13 112.5t-42 96t-76 67.5t-110 25.5q-76 0 -149 -38t-127.5 -98.5t-92.5 -134t-51 -145.5z" />
    <glyph glyph-name="f" unicode="f" 
d="M1382 1436l-22 -103q-23 11 -62 32t-59 30t-51.5 17.5t-63.5 8.5q-107 0 -179 -57t-95 -164l-41 -190h358l-18 -82h-358l-197 -928h-96l196 928h-278l18 82h279l26 123q22 101 64.5 175.5t97 115.5t111.5 60t118 19q110 0 252 -67z" />
    <glyph glyph-name="g" unicode="g" 
d="M231 -201l80 60q35 -57 101 -90t141 -33q49 0 98.5 19t100 58.5t91.5 112.5t62 170l29 133q-68 -59 -161.5 -96t-172.5 -37q-75 0 -131.5 29t-89.5 76.5t-49.5 111t-16 131t14.5 136.5q17 78 45 151t72.5 142t100.5 120t131.5 82t160.5 31q83 0 141 -30.5t127 -94.5
l55 125h99q-42 -87 -76.5 -194t-51.5 -180t-42 -197l-95 -451q-20 -92 -60.5 -167t-90 -123t-108 -80.5t-113.5 -46t-107 -13.5q-82 0 -160.5 41.5t-124.5 103.5zM954 344l111 522q-35 71 -101 114.5t-149 43.5q-80 0 -148.5 -40t-115 -105t-77 -136t-46.5 -145
q-16 -85 -16.5 -149.5t16 -111.5t39 -77.5t52.5 -48.5t56 -25.5t50 -7.5q83 0 177 47t152 119z" />
    <glyph glyph-name="h" unicode="h" 
d="M266 0l324 1520h96l-143 -672h4q76 110 188 184t228 74q41 0 79 -16t72.5 -53.5t44.5 -98.5t-6 -150l-168 -788h-96l145 680q73 344 -106 344q-89 0 -184 -66.5t-167 -178t-98 -234.5l-117 -545h-96z" />
    <glyph glyph-name="i" unicode="i" 
d="M592 0l213 1001h-316l17 82h412l-230 -1083h-96zM956 1503q44 0 69.5 -31t16.5 -75t-48 -75.5t-83 -31.5t-68.5 31.5t-15.5 75.5t47 75t82 31z" />
    <glyph glyph-name="j" unicode="j" 
d="M188 57h97q-16 -71 -17.5 -126t12.5 -100.5t53.5 -70t104.5 -24.5q103 0 181.5 68t99.5 167l219 1030h-326l17 82h422l-230 -1081q-31 -147 -145 -247.5t-254 -100.5q-70 0 -120.5 22.5t-78.5 60t-40.5 90t-10 109.5t15.5 121zM1079 1503q44 0 69.5 -31t16.5 -75
t-48 -75.5t-83 -31.5t-68.5 31.5t-15.5 75.5t47 75t82 31z" />
    <glyph glyph-name="k" unicode="k" 
d="M1104 1083h125q-41 -39 -124 -120t-113.5 -110t-88 -82t-105 -93.5t-106.5 -87.5l400 -590h-129l-340 535l-123 -101l-92 -434h-97l324 1520h96l-207 -971q357 281 580 534z" />
    <glyph glyph-name="l" unicode="l" 
d="M578 0l305 1438h-320l19 82h415l-323 -1520h-96z" />
    <glyph glyph-name="m" unicode="m" 
d="M158 0l159 756q41 187 37 350h99l-4 -141q131 141 284 141q63 0 95.5 -34t43.5 -97q131 131 252 131q102 0 144 -61.5t20 -165.5l-186 -879h-96l186 874q31 152 -98 152q-61 0 -122 -40t-106 -99l-188 -887h-96l176 831q5 26 7.5 43t4.5 42.5t-2 42t-12.5 33t-27 24.5
t-44.5 8q-66 0 -135 -46.5t-111 -111.5l-184 -866h-96z" />
    <glyph glyph-name="n" unicode="n" 
d="M438 446l-94 -446h-96l114 543q74 348 76 553h90l-28 -312h4q59 125 193.5 223.5t260.5 98.5q71 0 116 -28.5t62 -78t17 -105.5t-14 -122l-164 -772h-96l153 727q8 37 12 57t8.5 56t3 57t-8 48.5t-20.5 42.5t-39 25.5t-60 10.5q-49 0 -102.5 -19t-112 -63.5t-110 -109
t-96 -164.5t-69.5 -222z" />
    <glyph glyph-name="o" unicode="o" 
d="M625 -23q-41 0 -79 8t-75.5 27t-68 48.5t-53.5 74.5t-34 102t-8 135.5t23 170.5q26 122 71.5 220t98.5 161t116.5 105t124.5 59.5t123 17.5q48 0 91.5 -11.5t86 -36t73 -68.5t49.5 -104t18.5 -148t-23.5 -195q-27 -127 -74 -227.5t-101.5 -162.5t-119 -103t-123 -57
t-116.5 -16zM641 59q64 0 120 20.5t98 58.5t75.5 83.5t58.5 102.5t41.5 109.5t28.5 109.5q15 70 21 132t-1.5 128t-31.5 113t-76 77.5t-129 30.5q-76 0 -140.5 -30.5t-108.5 -77.5t-79.5 -113t-56 -128t-35.5 -132q-12 -58 -18 -110.5t-5 -109.5t15 -102.5t40 -83t72.5 -58
t110.5 -20.5z" />
    <glyph glyph-name="p" unicode="p" 
d="M166 -434l242 1139q48 215 34 389l93 12v-178h4q58 85 143 131.5t180 46.5q57 0 109 -18.5t100 -60t75 -107.5t34.5 -162t-21.5 -223q-26 -124 -77.5 -224t-110.5 -160.5t-127 -101.5t-124 -56.5t-104 -15.5q-151 0 -247 93l-107 -504h-96zM526 807l-137 -641
q100 -107 219 -107q34 0 71 8.5t83 28t89.5 56.5t84.5 88t75 128.5t54 172.5q26 112 19.5 195t-28 138t-60 88.5t-76.5 47.5t-78 14q-99 0 -173.5 -57.5t-142.5 -159.5z" />
    <glyph glyph-name="q" unicode="q" 
d="M877 -434h-97l107 504q-139 -93 -287 -93q-39 0 -80 11t-86 37t-78.5 68t-58 104t-25.5 146t19 192q27 123 74.5 222.5t103.5 163t121.5 106.5t126 61t117.5 18q95 0 159.5 -46.5t87.5 -131.5h4l76 178l88 -12q-77 -143 -131 -389zM907 166l137 641q-27 102 -78 159.5
t-149 57.5q-40 0 -84 -13.5t-96.5 -49t-98 -88t-86 -139t-63.5 -193.5q-18 -99 -19 -173t19.5 -127.5t47.5 -88.5t65 -55.5t71.5 -29t67.5 -8.5q117 0 266 107z" />
    <glyph glyph-name="r" unicode="r" 
d="M537 440l-95 -440h-96l160 750l35 346h92l-29 -303l4 -5q208 318 434 318q64 0 104.5 -29.5t54 -80t13 -104.5t-13.5 -114h-96q6 34 9 54t5.5 53.5t-2.5 54t-15 42t-31.5 32t-53.5 10.5q-35 0 -83.5 -20.5t-107.5 -67t-113 -112t-102 -166t-73 -218.5z" />
    <glyph glyph-name="s" unicode="s" 
d="M1130 991l-57 -80q-137 113 -268 113q-84 0 -161 -56.5t-95 -140.5q-8 -36 1.5 -68.5t27.5 -54t49.5 -42.5t55.5 -32.5t58 -25.5t51 -21.5t48.5 -22.5t48 -25.5t41 -28.5t36.5 -34.5t26 -39.5t18.5 -47.5t4.5 -55.5t-7 -65q-27 -129 -140 -208t-245 -79q-98 0 -204 52
t-167 123l70 77q57 -71 144 -120.5t177 -49.5q96 0 171.5 52.5t96.5 146.5q6 26 6 50t-3 42t-13.5 36t-19 30t-27 25.5t-30 21.5t-36 19.5t-36.5 17t-39 16.5q-26 11 -42 18t-41.5 18.5t-41 21.5t-37 23.5t-34.5 27.5t-28 31.5t-22.5 36.5t-13 41t-5 48t6.5 54
q24 113 136.5 191.5t237.5 78.5q167 0 301 -115z" />
    <glyph glyph-name="t" unicode="t" 
d="M1153 1083l-16 -82h-398l-157 -739q-20 -88 8.5 -145.5t120.5 -57.5q85 0 161 54.5t132 138.5l88 -23q-79 -113 -183 -182.5t-219 -69.5q-266 0 -192 342l145 682h-244l17 82h243l76 349h96l-75 -349h397z" />
    <glyph glyph-name="u" unicode="u" 
d="M1024 645l92 438h96l-112 -534q-72 -338 -74 -549h-90l25 307h-5q-59 -126 -193.5 -228t-258.5 -102q-57 0 -97.5 20t-61.5 53t-29.5 78t-5.5 92t14 99l161 764h97l-152 -718q-33 -154 -9 -230t111 -76q63 0 133 35t140 103t129 184.5t90 263.5z" />
    <glyph glyph-name="v" unicode="v" 
d="M1137 1083h102l-573 -1097h-113l-111 1097h103l94 -952z" />
    <glyph glyph-name="w" unicode="w" 
d="M293 -14l39 1097h106l-49 -936h4l332 658h104l50 -658h4l348 936h104l-424 -1097h-104l-57 700l-353 -700h-104z" />
    <glyph glyph-name="x" unicode="x" 
d="M1223 1083l-432 -497l296 -586h-129l-235 516l-453 -516h-129l543 582l-231 501h112l189 -426l362 426h107z" />
    <glyph glyph-name="y" unicode="y" 
d="M1167 1083h111l-623 -1030q-4 -6 -11 -18q-27 -44 -42.5 -68.5t-47 -70.5t-55 -74t-58.5 -63.5t-66 -55.5t-69.5 -34.5t-76.5 -14.5q-88 0 -141 59t-63 148l90 43q6 -43 18.5 -77.5t42.5 -62.5t72 -28q37 0 72 18.5t67 54.5t51.5 62t46.5 68l121 186l-149 958h106
l117 -831z" />
    <glyph glyph-name="z" unicode="z" 
d="M530 1083h695l-17 -82l-860 -919h690l-18 -82h-811l18 82l867 919h-580z" />
    <glyph glyph-name="braceleft" unicode="{" 
d="M571 117l66 309q15 68 15 115t-29.5 77t-98.5 48l2 4q57 14 94 33t60 50t35 64.5t24 89.5l70 330q33 158 111.5 218t244.5 65l2 -4q-121 -18 -176.5 -79t-81.5 -184l-69 -329q-12 -58 -25.5 -94.5t-38 -70.5t-64 -55t-98.5 -34l-2 -4q71 -18 102.5 -54t30 -87.5
t-15.5 -121.5l-67 -319q-25 -121 5.5 -184t141.5 -76l-6 -4q-171 3 -219 66t-13 231z" />
    <glyph glyph-name="bar" unicode="|" 
d="M713 -590v2212h90v-2212h-90z" />
    <glyph glyph-name="braceright" unicode="}" 
d="M944 1223l-65 -310q-15 -68 -15.5 -114.5t29 -76.5t98.5 -48v-4q-58 -14 -95 -33t-60.5 -50.5t-35.5 -65t-24 -89.5l-69 -330q-33 -158 -111.5 -217.5t-245.5 -64.5l-2 4q121 18 176.5 78.5t81.5 183.5l70 330q24 116 69 173t158 81v4q-71 18 -102 53.5t-30 87t15 121.5
l68 319q25 121 -5.5 184.5t-141.5 76.5l6 4q116 -2 172 -29t71 -92.5t-12 -175.5z" />
    <glyph glyph-name="asciitilde" unicode="~" 
d="M1245 903l66 -47q-51 -95 -132.5 -164t-174.5 -69q-51 0 -151.5 38.5t-198.5 76.5t-142 38q-35 0 -66 -12t-52.5 -28t-45.5 -45.5t-37 -49.5t-34 -55q-2 -4 -3 -5.5l-3 -4.5t-3 -5l-63 47q27 48 53.5 86t64 78t83.5 62t96 22q57 0 132.5 -24t137 -52.5t126.5 -52.5
t103 -24q74 0 141 57.5t103 132.5z" />
    <glyph glyph-name="uni00A0" unicode="&#xa0;" 
 />
    <glyph glyph-name="exclamdown" unicode="&#xa1;" 
d="M543 0l241 1010h82l-180 -1010h-143zM762 1364q10 57 59.5 98t106.5 41t89 -41t21 -98q-12 -57 -62.5 -97t-107.5 -40t-87.5 40t-18.5 97z" />
    <glyph glyph-name="cent" unicode="&#xa2;" 
d="M1282 1108l-104 -61q-49 174 -203 196l-205 -960q130 17 297 168l51 -70q-192 -159 -364 -180l-62 -283h-96l61 283q-80 13 -138.5 49t-91.5 87.5t-48.5 119t-13 140.5t19.5 155q23 109 62 200t99.5 170.5t149.5 132t201 70.5l41 195h96l-41 -195q190 -14 289 -217z
M676 285l203 956q-306 -56 -394 -473q-19 -86 -21 -160t15.5 -142t67 -115.5t129.5 -65.5z" />
    <glyph glyph-name="sterling" unicode="&#xa3;" 
d="M573 791h-235l18 81h213q-19 173 4 285q32 149 158.5 247.5t274.5 98.5q120 0 207.5 -59.5t113.5 -165.5l-100 -31q-22 81 -81 127.5t-147 46.5q-114 0 -209 -75t-122 -203q-9 -39 -10.5 -83.5t0.5 -78t8 -109.5h409l-18 -81h-385q11 -225 -8 -312q-11 -52 -34 -103.5
t-61 -104.5t-66 -88t-77 -91l2 -4q45 19 69 28t63.5 18t76.5 9q93 0 158 -30q8 -3 35 -17t43.5 -19t35.5 -5q62 0 172 80l39 -64q-47 -42 -105.5 -70t-111.5 -28q-59 0 -143 35q-86 36 -150 36q-65 0 -126 -21.5t-138 -62.5l-41 78q140 174 193 259.5t65 150.5
q24 112 10 326z" />
    <glyph glyph-name="currency" unicode="&#xa4;" 
d="M381 1036l-223 219l67 66l221 -219q130 106 304 106q173 0 303 -106l221 219l67 -66l-223 -219q103 -139 103 -299t-103 -299l223 -219l-67 -65l-221 219q-131 -107 -303 -107q-173 0 -304 107l-221 -219l-67 65l223 219q-102 138 -102 299t102 299zM750 346
q166 0 278.5 112.5t112.5 278.5t-112.5 279.5t-278.5 113.5t-279 -113.5t-113 -279.5t113 -278.5t279 -112.5z" />
    <glyph glyph-name="yen" unicode="&#xa5;" 
d="M743 561h248l-16 -82h-248l-102 -479h-97l103 479h-246l16 82h246l15 64l-191 850h115l149 -738l459 738h115l-551 -850z" />
    <glyph glyph-name="brokenbar" unicode="&#xa6;" 
d="M713 1382h90v-716h-90v716zM713 358h90v-716h-90v716z" />
    <glyph glyph-name="section" unicode="&#xa7;" 
d="M973 709l-316 299q-58 -19 -98.5 -63.5t-52.5 -102.5q-15 -78 47 -150l317 -299q56 19 96 64t52 102q17 77 -45 150zM727 385l-100 94q-11 10 -29 26l-31.5 28t-32.5 29.5t-32.5 31.5t-30 33.5t-26.5 35.5t-21.5 37.5t-14 40t-5.5 42t4 44.5q17 76 72 135.5t134 94.5
q-60 77 -39 178q27 127 123.5 197.5t225.5 70.5q149 0 222 -82.5t32 -236.5h-97q28 111 -13 174t-153 63q-85 0 -153 -44t-86 -126q-4 -19 -5 -36.5t2.5 -34t6.5 -29t13.5 -27t16 -23t20 -23l20.5 -20.5t24 -21.5t23 -20.5l104 -94q9 -8 28 -25q103 -88 142 -144
q65 -92 47 -180q-17 -75 -72.5 -134.5t-134.5 -94.5q60 -77 39 -178q-27 -127 -123.5 -197.5t-224.5 -70.5q-151 0 -223 82.5t-29 236.5h94q-30 -111 12.5 -174t155.5 -63q84 0 153 44t87 126q5 22 4.5 42t-3 35.5t-12 33t-16 28t-22 26.5t-23.5 23t-27 24t-26 23z" />
    <glyph glyph-name="dieresis" unicode="&#xa8;" 
d="M596 1335q9 47 49.5 81t87.5 34t74 -34t18 -81q-11 -47 -51.5 -80.5t-87.5 -33.5t-73.5 33.5t-16.5 80.5zM971 1335q9 47 49.5 81t87.5 34t74 -34t18 -81q-11 -47 -51.5 -80.5t-87.5 -33.5t-73.5 33.5t-16.5 80.5z" />
    <glyph glyph-name="copyright" unicode="&#xa9;" 
d="M604 -29q-166 0 -284.5 102.5t-162 279t0.5 386.5q44 209 163 384.5t281 277.5t328 102t284 -102t161 -277.5t-1 -384.5q-44 -210 -162.5 -386.5t-280 -279t-327.5 -102.5zM623 53q144 0 284 93t242.5 251t142.5 342q21 112 18.5 213t-34 186.5t-81 148.5t-123 98.5
t-159.5 35.5q-144 0 -286 -93t-245 -250t-142 -339q-32 -140 -15.5 -264.5t66 -218.5t137 -148.5t195.5 -54.5zM958 600h82q-39 -133 -135.5 -216t-204.5 -83q-98 0 -164 60t-84.5 158.5t5.5 225.5q40 192 158.5 316.5t269.5 124.5q110 0 170.5 -78t48.5 -211h-82
q6 89 -37 148t-115 59q-116 0 -207.5 -104t-121.5 -252q-17 -68 -11 -133.5t26.5 -117t63 -83t99.5 -31.5q72 0 141 62t98 155z" />
    <glyph glyph-name="ordfeminine" unicode="&#xaa;" 
d="M942 1014l33 153q-85 33 -129 33q-71 0 -118.5 -49t-61.5 -123q-11 -56 9.5 -96.5t74.5 -40.5q82 0 192 123zM997 715l-14 -70h-485l14 70h485zM1075 1249l-53 -245q-7 -33 -8.5 -57.5t0 -58.5t0.5 -59l-76 -10l-2 92q-54 -46 -99 -68t-102 -22q-89 0 -129.5 59.5
t-21.5 149.5q23 107 95 173.5t177 66.5q62 0 139 -25q21 101 1 145t-81 44q-71 0 -192 -56l4 92q12 2 49 10.5t55.5 12t47.5 7t53 3.5q89 0 130 -63.5t13 -190.5z" />
    <glyph glyph-name="guillemotleft" unicode="&#xab;" 
d="M1368 1239l45 -61l-563 -449l373 -448l-74 -66l-420 514zM862 1239l45 -61l-563 -449l373 -448l-74 -66l-420 514z" />
    <glyph glyph-name="logicalnot" unicode="&#xac;" 
d="M1212 354v475h-999v91h1090v-566h-91z" />
    <glyph glyph-name="uni00AD" unicode="&#xad;" 
d="M1004 694h-484l19 82h483z" />
    <glyph glyph-name="registered" unicode="&#xae;" 
d="M610 -29q-168 0 -288 102.5t-164 279t0 386.5q44 208 163.5 383.5t283 278t331.5 102.5q167 0 286.5 -102.5t163.5 -278t0 -383.5q-44 -210 -163.5 -386.5t-282.5 -279t-330 -102.5zM629 53q146 0 288 93t245.5 250.5t142.5 342.5q21 112 18.5 213t-34.5 187t-82.5 148.5
t-125 98t-161.5 35.5q-147 0 -290 -92.5t-247.5 -249.5t-142.5 -340q-32 -141 -15 -265.5t67.5 -218t138.5 -148t198 -54.5zM864 705l123 -396h-100l-111 396h-155l-84 -396h-82l182 856h297q122 0 170 -55t22 -172q-48 -226 -262 -233zM700 1083l-61 -297h207
q35 0 63.5 6.5t57 22t49.5 48t31 79.5q5 24 5.5 44t-4.5 34t-12.5 25t-20.5 17.5t-25 11t-29.5 6.5t-31 2.5t-32.5 0.5h-197z" />
    <glyph glyph-name="macron" unicode="&#xaf;" 
d="M1184 1292h-590l18 82h590z" />
    <glyph glyph-name="degree" unicode="&#xb0;" 
d="M362 1124q0 164 116 280t280 116t279.5 -116t115.5 -280q0 -163 -115.5 -279t-279.5 -116t-280 116t-116 279zM449 1124q0 -128 90.5 -218.5t218.5 -90.5t218.5 90.5t90.5 218.5t-91 219t-218 91t-218 -91t-91 -219z" />
    <glyph glyph-name="plusminus" unicode="&#xb1;" 
d="M1303 879v-91h-500v-499h-90v499h-500v91h500v499h90v-499h500zM1303 186v-90h-1090v90h1090z" />
    <glyph glyph-name="twosuperior" unicode="&#xb2;" 
d="M633 758h371l-15 -66h-452q17 85 40 139.5t72 110t135 117.5q7 5 38 27t45.5 32.5t43 33t44.5 39t35.5 38t30.5 42.5t15 42q12 58 -13 91.5t-83 33.5q-68 0 -114.5 -47t-65.5 -119h-82q29 105 101.5 168t176.5 63q94 0 138 -51t24 -143q-6 -30 -24 -60.5t-34 -51t-52 -52
t-50 -42.5t-60 -45t-52 -38q-50 -38 -74.5 -58t-57 -53t-51 -69t-30.5 -82z" />
    <glyph glyph-name="threesuperior" unicode="&#xb3;" 
d="M788 1087l15 66q70 -5 132 38t77 114q13 58 -21.5 95.5t-93.5 37.5q-50 0 -98 -33.5t-80 -81.5l-62 39q110 141 265 141q89 0 140 -59.5t32 -147.5q-23 -108 -148 -172q130 -62 101 -209q-23 -106 -107 -172.5t-190 -66.5q-87 0 -136 36.5t-82 112.5l80 43q16 -63 51 -95
t101 -32q72 0 128 45t71 117q21 95 -27 139.5t-148 44.5z" />
    <glyph glyph-name="acute" unicode="&#xb4;" 
d="M1059 1503l57 -86l-407 -241l-33 61z" />
    <glyph glyph-name="mu" unicode="&#xb5;" 
d="M971 463l127 598h96l-225 -1061h-97l41 190h-4q-54 -88 -132 -150.5t-163 -62.5q-87 0 -144 57.5t-73 143.5h-4l-137 -653h-96l325 1536h97l-133 -631q-20 -87 -15 -150.5t21 -106t45.5 -68t59 -36t61.5 -10.5q33 0 69 10.5t78 39t79 72t70.5 116.5t53.5 166z" />
    <glyph glyph-name="paragraph" unicode="&#xb6;" 
d="M520 -231l195 913q-191 -14 -300 96.5t-69 296.5q7 33 16 62t30 71.5t48 77t72 71t100.5 61.5t135.5 41t174 16h503l-16 -82h-94l-346 -1624h-97l347 1624h-256l-347 -1624h-96z" />
    <glyph glyph-name="periodcentered" unicode="&#xb7;" 
d="M512 737q0 43 29.5 73t72.5 30t73 -30t30 -73t-30 -72.5t-73 -29.5t-72.5 29.5t-29.5 72.5z" />
    <glyph glyph-name="cedilla" unicode="&#xb8;" 
d="M614 27h74l-78 -140q36 -1 66.5 -8.5t55.5 -23t35.5 -43.5t2.5 -66q-14 -67 -78.5 -108t-134.5 -41q-74 0 -182 51l39 67q93 -37 139 -37q36 0 75 19.5t46 52.5q6 26 -12.5 42.5t-42 21t-50.5 4.5q-20 0 -44.5 -2t-28.5 -2z" />
    <glyph glyph-name="onesuperior" unicode="&#xb9;" 
d="M979 1503l-164 -768h148l-13 -65h-381l13 65h151l144 670l-170 -49l14 71z" />
    <glyph glyph-name="ordmasculine" unicode="&#xba;" 
d="M1010 715l-15 -70h-487l14 70h488zM788 821q-130 0 -178.5 92t-15.5 248q14 66 40.5 124.5t67.5 108.5t100.5 79.5t131.5 29.5q88 0 140.5 -45.5t63.5 -121.5t-8 -175q-31 -148 -119.5 -244t-222.5 -96zM803 891q44 0 81.5 16.5t63.5 43t47 62.5t33.5 72t20.5 76
q11 52 12.5 96.5t-9.5 86t-44.5 66t-87.5 24.5q-185 0 -244 -273q-55 -270 127 -270z" />
    <glyph glyph-name="guillemotright" unicode="&#xbb;" 
d="M389 1239l422 -510l-641 -514l-45 66l565 448l-375 449zM897 1239l422 -510l-641 -514l-45 66l565 448l-375 449z" />
    <glyph glyph-name="onequarter" unicode="&#xbc;" 
d="M1231 811l-115 -539h117l-14 -65h-117l-43 -207h-82l43 207h-324l13 51l415 553h107zM1280 1503h82l-993 -1503h-82zM1034 272l92 435h-4l-319 -435h231zM670 1503l-164 -768h147l-12 -65h-381l12 65h152l143 670l-170 -49l15 71z" />
    <glyph glyph-name="onehalf" unicode="&#xbd;" 
d="M670 1503l-164 -768h147l-12 -65h-381l12 65h152l143 670l-170 -49l15 71zM1249 1503h84l-997 -1503h-82zM793 66h370l-14 -66h-453q24 125 73.5 201t174.5 166q7 5 38 27t45.5 32.5t43 33t44.5 39t35.5 38t30.5 42.5t15 42q12 58 -13 91t-83 33q-68 0 -114.5 -47
t-65.5 -118h-82q29 105 101.5 168t176.5 63q94 0 138 -51.5t24 -143.5q-6 -30 -24 -60t-34.5 -51t-51.5 -51.5t-50.5 -43t-59.5 -44.5t-52 -38q-50 -38 -74.5 -58t-57 -53t-51 -69t-30.5 -82z" />
    <glyph glyph-name="threequarters" unicode="&#xbe;" 
d="M1280 1503h82l-993 -1503h-82zM1231 811l-115 -539h117l-14 -65h-117l-43 -207h-82l43 207h-324l13 51l415 553h107zM1034 272l92 435h-4l-319 -435h231zM481 1087l15 66q70 -5 132 38t77 114q13 58 -21.5 95.5t-93.5 37.5q-50 0 -98 -33.5t-80 -81.5l-62 39
q110 141 264 141q89 0 140 -59.5t32 -147.5q-23 -108 -147 -172q129 -62 100 -209q-23 -106 -107 -172.5t-190 -66.5q-87 0 -135.5 36.5t-81.5 112.5l80 43q16 -63 51 -95t101 -32q72 0 127.5 45t70.5 117q21 95 -26.5 139.5t-147.5 44.5z" />
    <glyph glyph-name="questiondown" unicode="&#xbf;" 
d="M795 1016h96l-41 -201q-11 -62 -41 -108q-37 -56 -188 -156q-78 -54 -118.5 -104.5t-56.5 -129.5q-25 -119 27.5 -191.5t169.5 -72.5q105 0 184 63.5t105 168.5h102q-44 -147 -153.5 -230.5t-257.5 -83.5q-162 0 -234 95.5t-37 257.5q23 110 76 172.5t168 140.5
q38 26 59.5 41t41 36t27 30.5t17.5 38.5t13.5 44.5t13.5 63.5zM762 1364q10 57 59.5 98t106.5 41t89 -41t21 -98q-12 -57 -62.5 -97t-107.5 -40t-87.5 40t-18.5 97z" />
    <glyph glyph-name="Agrave" unicode="&#xc0;" 
d="M942 1534l168 -1534h-109l-36 449h-502l-232 -449h-106zM887 1272l-387 -742h461zM825 1894l269 -266l-58 -61l-305 241z" />
    <glyph glyph-name="Aacute" unicode="&#xc1;" 
d="M942 1534l168 -1534h-109l-36 449h-502l-232 -449h-106zM887 1272l-387 -742h461zM1141 1894l57 -86l-407 -241l-33 61z" />
    <glyph glyph-name="Acircumflex" unicode="&#xc2;" 
d="M942 1534l168 -1534h-109l-36 449h-502l-232 -449h-106zM887 1272l-387 -742h461zM989 1774l-332 -215l-36 51l397 291l270 -291l-57 -51z" />
    <glyph glyph-name="Atilde" unicode="&#xc3;" 
d="M942 1534l168 -1534h-109l-36 449h-502l-232 -449h-106zM887 1272l-387 -742h461zM1268 1808l69 -30q-43 -68 -107.5 -114t-133.5 -46q-46 0 -80 15.5t-78 49.5q-3 2 -15 11.5t-16 12.5t-15 10.5t-17 10.5t-17 8t-19.5 7t-19.5 4t-22 2q-86 0 -174 -137l-70 26
q127 193 268 193q16 0 31.5 -3t26.5 -6.5t26.5 -12t22.5 -13t24.5 -16t22.5 -15.5q2 -1 13.5 -9.5t16 -11.5t16 -11t18 -11.5t17.5 -9t19 -8t18 -4.5t19 -2q88 0 156 110z" />
    <glyph glyph-name="Adieresis" unicode="&#xc4;" 
d="M942 1534l168 -1534h-109l-36 449h-502l-232 -449h-106zM887 1272l-387 -742h461zM678 1726q9 47 49.5 81t87.5 34t74 -34t18 -81q-11 -47 -51.5 -80.5t-87.5 -33.5t-73.5 33.5t-16.5 80.5zM1053 1726q9 47 49.5 81t87.5 34t74 -34t18 -81q-11 -47 -51.5 -80.5
t-87.5 -33.5t-73.5 33.5t-16.5 80.5z" />
    <glyph glyph-name="Aring" unicode="&#xc5;" 
d="M942 1534l168 -1534h-109l-36 449h-502l-232 -449h-106zM887 1272l-387 -742h461zM803 1708q13 69 73.5 118.5t129.5 49.5t108 -49.5t25 -118.5q-15 -69 -75.5 -118.5t-129.5 -49.5t-107.5 49.5t-23.5 118.5zM877 1708q-8 -38 13.5 -66t59.5 -28t73 28t42 66
q9 39 -13 66.5t-61 27.5q-38 0 -71.5 -27t-42.5 -67z" />
    <glyph glyph-name="AE" unicode="&#xc6;" 
d="M782 1475h637l-16 -82h-426l-125 -588h297l-19 -82h-296l-136 -641h443l-19 -82h-538l96 455h-297l-213 -455h-104zM698 537l183 856h-54l-403 -856h274z" />
    <glyph glyph-name="Ccedilla" unicode="&#xc7;" 
d="M1262 1196h-97q17 96 -39.5 160.5t-154.5 64.5q-371 0 -518 -694q-13 -63 -22 -115t-15.5 -124.5t-4 -129t17 -116t42.5 -99t78 -65t119 -25.5q115 0 208.5 75.5t122.5 190.5h97q-47 -158 -164 -250.5t-275 -95.5l-47 -86q36 -1 66.5 -8.5t55.5 -23t35.5 -43.5t2.5 -66
q-14 -67 -78.5 -108t-134.5 -41q-74 0 -182 51l39 67q93 -37 139 -37q36 0 75 19.5t46 52.5q6 26 -12.5 42.5t-42 21t-50.5 4.5q-20 0 -44.5 -2t-28.5 -2l90 161q-95 11 -157 65.5t-87.5 129t-30 175t5.5 188.5t31 184q171 786 639 786q136 0 214 -86.5t61 -220.5z" />
    <glyph glyph-name="Egrave" unicode="&#xc8;" 
d="M1343 1475l-16 -82h-625l-127 -594h449l-18 -82h-449l-133 -635h639l-19 -82h-735l314 1475h720zM815 1894l268 -266l-57 -61l-305 241z" />
    <glyph glyph-name="Eacute" unicode="&#xc9;" 
d="M1343 1475l-16 -82h-625l-127 -594h449l-18 -82h-449l-133 -635h639l-19 -82h-735l314 1475h720zM1141 1894l57 -86l-407 -241l-33 61z" />
    <glyph glyph-name="Ecircumflex" unicode="&#xca;" 
d="M1343 1475l-16 -82h-625l-127 -594h449l-18 -82h-449l-133 -635h639l-19 -82h-735l314 1475h720zM999 1774l-331 -215l-37 51l397 291l270 -291l-57 -51z" />
    <glyph glyph-name="Edieresis" unicode="&#xcb;" 
d="M1343 1475l-16 -82h-625l-127 -594h449l-18 -82h-449l-133 -635h639l-19 -82h-735l314 1475h720zM709 1726q9 47 49.5 81t87.5 34t74 -34t18 -81q-11 -47 -51.5 -80.5t-87.5 -33.5t-73.5 33.5t-16.5 80.5zM1083 1726q9 47 50 81t88 34t74 -34t18 -81q-11 -47 -51.5 -80.5
t-87.5 -33.5t-74 33.5t-17 80.5z" />
    <glyph glyph-name="Igrave" unicode="&#xcc;" 
d="M1180 1475l-17 -82h-205l-278 -1311h205l-19 -82h-506l19 82h205l278 1311h-205l17 82h506zM815 1894l268 -266l-57 -61l-305 241z" />
    <glyph glyph-name="Iacute" unicode="&#xcd;" 
d="M1180 1475l-17 -82h-205l-278 -1311h205l-19 -82h-506l19 82h205l278 1311h-205l17 82h506zM1141 1894l57 -86l-407 -241l-33 61z" />
    <glyph glyph-name="Icircumflex" unicode="&#xce;" 
d="M1180 1475l-17 -82h-205l-278 -1311h205l-19 -82h-506l19 82h205l278 1311h-205l17 82h506zM969 1774l-332 -215l-37 51l397 291l271 -291l-58 -51z" />
    <glyph glyph-name="Idieresis" unicode="&#xcf;" 
d="M1180 1475l-17 -82h-205l-278 -1311h205l-19 -82h-506l19 82h205l278 1311h-205l17 82h506zM668 1726q9 47 49.5 81t87.5 34t74 -34t18 -81q-11 -47 -51.5 -80.5t-87.5 -33.5t-73.5 33.5t-16.5 80.5zM1042 1726q9 47 50 81t88 34t74 -34t18 -81q-11 -47 -51.5 -80.5
t-87.5 -33.5t-74 33.5t-17 80.5z" />
    <glyph glyph-name="Eth" unicode="&#xd0;" 
d="M422 807l143 668h369q122 0 199.5 -58.5t107.5 -150.5q57 -168 -20 -529q-27 -131 -64 -239.5t-74.5 -176t-60.5 -101t-43 -56.5q-150 -164 -387 -164h-340l156 725h-207l18 82h203zM504 725l-137 -643h182q142 0 238 37t169 151q40 61 74 152.5t50.5 155.5t37.5 159
q72 349 33 482q-16 56 -45.5 92.5t-75.5 53.5t-91 22.5t-112 5.5h-182l-125 -586h314l-19 -82h-311z" />
    <glyph glyph-name="Ntilde" unicode="&#xd1;" 
d="M895 -14l-254 1355l-4 -4l-285 -1337h-96l313 1475h140l233 -1264l4 4l268 1260h97l-316 -1489h-100zM1257 1808l70 -30q-43 -68 -108 -114t-134 -46q-46 0 -79 15.5t-78 49.5q-3 2 -13.5 10t-14 11t-13.5 10t-15 9.5t-14.5 8t-17 7.5t-16.5 5t-18.5 4t-19.5 1
q-86 0 -174 -137l-69 26q127 193 268 193q16 0 31.5 -3t26.5 -6.5t26.5 -12t22.5 -13t24.5 -16t22.5 -15.5q2 -1 13.5 -9.5t16 -11.5t16 -11t18 -11.5t17.5 -9t19 -8t18 -4.5t19 -2q87 0 155 110z" />
    <glyph glyph-name="Ograve" unicode="&#xd2;" 
d="M608 -29q-75 0 -131.5 18.5t-103.5 70t-68 135t-15.5 221t44.5 321.5q13 62 26.5 115t32.5 117t40 116.5t50 109t61 100t74 84t88.5 67t104.5 42t123 15.5q70 0 125 -17.5t90 -50t59 -74.5t34 -94t13.5 -105.5t-1.5 -112.5t-12.5 -111.5t-18 -106t-18.5 -91.5
q-1 -1 -1 -1.5v-1.5q-39 -183 -91 -320t-108 -221t-124 -135.5t-132.5 -70.5t-140.5 -19zM436 737q-34 -161 -42 -282.5t5.5 -197t47.5 -122t77.5 -64.5t102.5 -18q77 0 142 33t126.5 109.5t113.5 212t93 329.5q34 161 43.5 281.5t-3 196.5t-45.5 123t-76 65t-103 18
q-110 0 -196 -64t-159.5 -217.5t-126.5 -402.5zM815 1894l268 -266l-57 -61l-305 241z" />
    <glyph glyph-name="Oacute" unicode="&#xd3;" 
d="M608 -29q-75 0 -131.5 18.5t-103.5 70t-68 135t-15.5 221t44.5 321.5q13 62 26.5 115t32.5 117t40 116.5t50 109t61 100t74 84t88.5 67t104.5 42t123 15.5q70 0 125 -17.5t90 -50t59 -74.5t34 -94t13.5 -105.5t-1.5 -112.5t-12.5 -111.5t-18 -106t-18.5 -91.5
q-1 -1 -1 -1.5v-1.5q-39 -183 -91 -320t-108 -221t-124 -135.5t-132.5 -70.5t-140.5 -19zM436 737q-34 -161 -42 -282.5t5.5 -197t47.5 -122t77.5 -64.5t102.5 -18q77 0 142 33t126.5 109.5t113.5 212t93 329.5q34 161 43.5 281.5t-3 196.5t-45.5 123t-76 65t-103 18
q-110 0 -196 -64t-159.5 -217.5t-126.5 -402.5zM1130 1894l58 -86l-408 -241l-32 61z" />
    <glyph glyph-name="Ocircumflex" unicode="&#xd4;" 
d="M608 -29q-75 0 -131.5 18.5t-103.5 70t-68 135t-15.5 221t44.5 321.5q13 62 26.5 115t32.5 117t40 116.5t50 109t61 100t74 84t88.5 67t104.5 42t123 15.5q70 0 125 -17.5t90 -50t59 -74.5t34 -94t13.5 -105.5t-1.5 -112.5t-12.5 -111.5t-18 -106t-18.5 -91.5
q-1 -1 -1 -1.5v-1.5q-39 -183 -91 -320t-108 -221t-124 -135.5t-132.5 -70.5t-140.5 -19zM436 737q-34 -161 -42 -282.5t5.5 -197t47.5 -122t77.5 -64.5t102.5 -18q77 0 142 33t126.5 109.5t113.5 212t93 329.5q34 161 43.5 281.5t-3 196.5t-45.5 123t-76 65t-103 18
q-110 0 -196 -64t-159.5 -217.5t-126.5 -402.5zM969 1774l-332 -215l-37 51l397 291l271 -291l-58 -51z" />
    <glyph glyph-name="Otilde" unicode="&#xd5;" 
d="M608 -29q-75 0 -131.5 18.5t-103.5 70t-68 135t-15.5 221t44.5 321.5q13 62 26.5 115t32.5 117t40 116.5t50 109t61 100t74 84t88.5 67t104.5 42t123 15.5q70 0 125 -17.5t90 -50t59 -74.5t34 -94t13.5 -105.5t-1.5 -112.5t-12.5 -111.5t-18 -106t-18.5 -91.5
q-1 -1 -1 -1.5v-1.5q-39 -183 -91 -320t-108 -221t-124 -135.5t-132.5 -70.5t-140.5 -19zM436 737q-34 -161 -42 -282.5t5.5 -197t47.5 -122t77.5 -64.5t102.5 -18q77 0 142 33t126.5 109.5t113.5 212t93 329.5q34 161 43.5 281.5t-3 196.5t-45.5 123t-76 65t-103 18
q-110 0 -196 -64t-159.5 -217.5t-126.5 -402.5zM1268 1808l69 -30q-43 -68 -107.5 -114t-133.5 -46q-46 0 -80 15.5t-78 49.5q-3 2 -15 11.5t-16 12.5t-15 10.5t-17 10.5t-17 8t-19.5 7t-19.5 4t-22 2q-86 0 -174 -137l-70 26q127 193 268 193q16 0 31.5 -3t26.5 -6.5
t26.5 -12t22.5 -13t24.5 -16t22.5 -15.5q2 -1 13.5 -9.5t16 -11.5t16 -11t18 -11.5t17.5 -9t19 -8t18 -4.5t19 -2q88 0 156 110z" />
    <glyph glyph-name="Odieresis" unicode="&#xd6;" 
d="M608 -29q-75 0 -131.5 18.5t-103.5 70t-68 135t-15.5 221t44.5 321.5q13 62 26.5 115t32.5 117t40 116.5t50 109t61 100t74 84t88.5 67t104.5 42t123 15.5q70 0 125 -17.5t90 -50t59 -74.5t34 -94t13.5 -105.5t-1.5 -112.5t-12.5 -111.5t-18 -106t-18.5 -91.5
q-1 -1 -1 -1.5v-1.5q-39 -183 -91 -320t-108 -221t-124 -135.5t-132.5 -70.5t-140.5 -19zM436 737q-34 -161 -42 -282.5t5.5 -197t47.5 -122t77.5 -64.5t102.5 -18q77 0 142 33t126.5 109.5t113.5 212t93 329.5q34 161 43.5 281.5t-3 196.5t-45.5 123t-76 65t-103 18
q-110 0 -196 -64t-159.5 -217.5t-126.5 -402.5zM678 1726q9 47 49.5 81t87.5 34t74 -34t18 -81q-11 -47 -51.5 -80.5t-87.5 -33.5t-73.5 33.5t-16.5 80.5zM1053 1726q9 47 49.5 81t87.5 34t74 -34t18 -81q-11 -47 -51.5 -80.5t-87.5 -33.5t-73.5 33.5t-16.5 80.5z" />
    <glyph glyph-name="multiply" unicode="&#xd7;" 
d="M1303 258l-64 -65l-481 481l-482 -481l-63 65l481 479l-481 482l63 63l482 -481l481 481l64 -63l-482 -482z" />
    <glyph glyph-name="Oslash" unicode="&#xd8;" 
d="M1139 1159l-744 -962q27 -66 83.5 -105t131.5 -39q80 0 148 37t118 99t92 154t71 189t55 218q56 265 45 409zM377 285l745 970q-26 76 -82 121t-139 45q-95 0 -173.5 -50t-123 -109.5t-85.5 -169.5t-54.5 -164.5t-35.5 -161.5q-6 -28 -9 -41q-11 -54 -18 -90t-15.5 -87.5
t-11.5 -91t-3 -85.5t5 -86zM1196 1348l96 127l60 -41l-127 -164q41 -190 -29 -520q-12 -55 -22 -97.5t-28.5 -107.5t-37.5 -115.5t-48.5 -113t-61 -109t-75 -93t-91.5 -76.5t-110 -48.5t-130 -18.5q-86 0 -154.5 35t-109.5 100l-119 -153l-59 39l143 186q-22 79 -22.5 178.5
t11.5 179.5t35 189q13 61 22.5 102t28.5 109.5t37 117t47 111.5t60 107.5t74.5 91t91 75t109.5 46.5t131 18q93 0 166 -40t112 -115z" />
    <glyph glyph-name="Ugrave" unicode="&#xd9;" 
d="M1217 1475h96l-234 -1096q-18 -84 -57 -154t-88 -116t-107 -78t-113 -46t-106 -14q-101 0 -179.5 50.5t-114.5 139.5t-13 195l238 1119h96l-223 -1047q-41 -198 21 -286.5t194 -88.5t227.5 84.5t132.5 257.5zM764 1894l268 -266l-57 -61l-305 241z" />
    <glyph glyph-name="Uacute" unicode="&#xda;" 
d="M1217 1475h96l-234 -1096q-18 -84 -57 -154t-88 -116t-107 -78t-113 -46t-106 -14q-101 0 -179.5 50.5t-114.5 139.5t-13 195l238 1119h96l-223 -1047q-41 -198 21 -286.5t194 -88.5t227.5 84.5t132.5 257.5zM1120 1894l58 -86l-408 -241l-33 61z" />
    <glyph glyph-name="Ucircumflex" unicode="&#xdb;" 
d="M1217 1475h96l-234 -1096q-18 -84 -57 -154t-88 -116t-107 -78t-113 -46t-106 -14q-101 0 -179.5 50.5t-114.5 139.5t-13 195l238 1119h96l-223 -1047q-41 -198 21 -286.5t194 -88.5t227.5 84.5t132.5 257.5zM958 1774l-331 -215l-37 51l397 291l270 -291l-57 -51z" />
    <glyph glyph-name="Udieresis" unicode="&#xdc;" 
d="M1217 1475h96l-234 -1096q-18 -84 -57 -154t-88 -116t-107 -78t-113 -46t-106 -14q-101 0 -179.5 50.5t-114.5 139.5t-13 195l238 1119h96l-223 -1047q-41 -198 21 -286.5t194 -88.5t227.5 84.5t132.5 257.5zM647 1726q9 47 49.5 81t87.5 34t74.5 -34t18.5 -81
q-10 -47 -51.5 -80.5t-88.5 -33.5t-73.5 33.5t-16.5 80.5zM1022 1726q9 47 49.5 81t87.5 34t74 -34t18 -81q-11 -47 -51.5 -80.5t-87.5 -33.5t-73.5 33.5t-16.5 80.5z" />
    <glyph glyph-name="Yacute" unicode="&#xdd;" 
d="M733 737l467 738h109l-551 -850l-133 -625h-97l134 625l-191 850h109zM1100 1894l57 -86l-407 -241l-33 61z" />
    <glyph glyph-name="Thorn" unicode="&#xde;" 
d="M297 0l313 1475h97l-64 -301h236q89 0 154 -24.5t101.5 -66t54 -99t17 -119.5t-15.5 -132q-45 -213 -189.5 -323.5t-357.5 -110.5h-186l-64 -299h-96zM625 1092l-150 -711h172q186 0 295.5 93t144.5 257q19 103 11.5 172.5t-44 111.5t-82.5 59.5t-106 17.5h-241z" />
    <glyph glyph-name="germandbls" unicode="&#xdf;" 
d="M698 745l19 82q134 6 238.5 93.5t131.5 220.5q25 115 -23.5 197.5t-160.5 82.5q-95 0 -162 -64.5t-92 -180.5l-250 -1176h-96l252 1190q10 48 42.5 101.5t80 101.5t114.5 79t138 31q100 0 166 -51.5t87.5 -135t0.5 -183.5q-24 -110 -98 -195t-185 -143
q133 -48 174.5 -150t7.5 -260q-42 -200 -154 -304t-247 -104q-86 0 -152 56l60 69q53 -43 117 -43q96 0 172 88t106 228q19 80 13.5 140t-24.5 101.5t-60.5 68.5t-93 41t-122.5 19z" />
    <glyph glyph-name="agrave" unicode="&#xe0;" 
d="M870 279l60 280q-111 66 -221 66q-65 0 -120.5 -26t-94 -70.5t-64.5 -99t-39 -116.5q-22 -100 16 -177t134 -77q91 0 168.5 58.5t160.5 161.5zM952 -10l-90 -13q-13 98 -2 185q-82 -91 -160 -138t-176 -47q-72 0 -125 28.5t-78.5 76t-34 110t8.5 130.5q35 163 145.5 274
t261.5 111q118 0 250 -72q51 205 21 297t-160 92q-64 0 -125.5 -18t-148.5 -54l-4 88q182 66 303 66q150 0 211 -100t18 -281q-92 -386 -106 -442q-28 -118 -9 -293zM764 1503l268 -266l-57 -61l-305 241z" />
    <glyph glyph-name="aacute" unicode="&#xe1;" 
d="M870 279l60 280q-111 66 -221 66q-65 0 -120.5 -26t-94 -70.5t-64.5 -99t-39 -116.5q-22 -100 16 -177t134 -77q91 0 168.5 58.5t160.5 161.5zM952 -10l-90 -13q-13 98 -2 185q-82 -91 -160 -138t-176 -47q-72 0 -125 28.5t-78.5 76t-34 110t8.5 130.5q35 163 145.5 274
t261.5 111q118 0 250 -72q51 205 21 297t-160 92q-64 0 -125.5 -18t-148.5 -54l-4 88q182 66 303 66q150 0 211 -100t18 -281q-92 -386 -106 -442q-28 -118 -9 -293zM1059 1503l57 -86l-407 -241l-33 61z" />
    <glyph glyph-name="acircumflex" unicode="&#xe2;" 
d="M870 279l60 280q-111 66 -221 66q-65 0 -120.5 -26t-94 -70.5t-64.5 -99t-39 -116.5q-22 -100 16 -177t134 -77q91 0 168.5 58.5t160.5 161.5zM952 -10l-90 -13q-13 98 -2 185q-82 -91 -160 -138t-176 -47q-72 0 -125 28.5t-78.5 76t-34 110t8.5 130.5q35 163 145.5 274
t261.5 111q118 0 250 -72q51 205 21 297t-160 92q-64 0 -125.5 -18t-148.5 -54l-4 88q182 66 303 66q150 0 211 -100t18 -281q-92 -386 -106 -442q-28 -118 -9 -293zM887 1382l-332 -215l-37 52l397 290l271 -290l-58 -52z" />
    <glyph glyph-name="atilde" unicode="&#xe3;" 
d="M870 279l60 280q-111 66 -221 66q-65 0 -120.5 -26t-94 -70.5t-64.5 -99t-39 -116.5q-22 -100 16 -177t134 -77q91 0 168.5 58.5t160.5 161.5zM952 -10l-90 -13q-13 98 -2 185q-82 -91 -160 -138t-176 -47q-72 0 -125 28.5t-78.5 76t-34 110t8.5 130.5q35 163 145.5 274
t261.5 111q118 0 250 -72q51 205 21 297t-160 92q-64 0 -125.5 -18t-148.5 -54l-4 88q182 66 303 66q150 0 211 -100t18 -281q-92 -386 -106 -442q-28 -118 -9 -293zM1196 1417l70 -31q-43 -68 -107.5 -113.5t-134.5 -45.5q-46 0 -80 15.5t-78 49.5q-3 2 -15 11.5t-16 12.5
t-15 10.5t-17 10.5t-17 8t-19.5 7t-19.5 4t-22 2q-86 0 -174 -137l-70 26q127 193 269 193q19 0 35.5 -3t35 -12.5t26 -13t30.5 -19.5t26 -18q2 -1 13.5 -9.5t16 -11.5t16 -11t18 -11.5t17.5 -9t19 -8t18 -4.5t19 -2q88 0 156 110z" />
    <glyph glyph-name="adieresis" unicode="&#xe4;" 
d="M870 279l60 280q-111 66 -221 66q-65 0 -120.5 -26t-94 -70.5t-64.5 -99t-39 -116.5q-22 -100 16 -177t134 -77q91 0 168.5 58.5t160.5 161.5zM952 -10l-90 -13q-13 98 -2 185q-82 -91 -160 -138t-176 -47q-72 0 -125 28.5t-78.5 76t-34 110t8.5 130.5q35 163 145.5 274
t261.5 111q118 0 250 -72q51 205 21 297t-160 92q-64 0 -125.5 -18t-148.5 -54l-4 88q182 66 303 66q150 0 211 -100t18 -281q-92 -386 -106 -442q-28 -118 -9 -293zM596 1335q9 47 49.5 81t87.5 34t74 -34t18 -81q-11 -47 -51.5 -80.5t-87.5 -33.5t-73.5 33.5t-16.5 80.5z
M971 1335q9 47 49.5 81t87.5 34t74 -34t18 -81q-11 -47 -51.5 -80.5t-87.5 -33.5t-73.5 33.5t-16.5 80.5z" />
    <glyph glyph-name="aring" unicode="&#xe5;" 
d="M870 279l60 280q-111 66 -221 66q-65 0 -120.5 -26t-94 -70.5t-64.5 -99t-39 -116.5q-22 -100 16 -177t134 -77q91 0 168.5 58.5t160.5 161.5zM952 -10l-90 -13q-13 98 -2 185q-82 -91 -160 -138t-176 -47q-72 0 -125 28.5t-78.5 76t-34 110t8.5 130.5q35 163 145.5 274
t261.5 111q118 0 250 -72q51 205 21 297t-160 92q-64 0 -125.5 -18t-148.5 -54l-4 88q182 66 303 66q150 0 211 -100t18 -281q-92 -386 -106 -442q-28 -118 -9 -293zM721 1352q13 69 73.5 118.5t129.5 49.5t108 -49.5t25 -118.5q-15 -69 -75.5 -118.5t-129.5 -49.5
t-107.5 49.5t-23.5 118.5zM795 1352q-8 -39 13.5 -67t59.5 -28t73 28.5t42 66.5q9 39 -13 66.5t-61 27.5q-38 0 -71.5 -27t-42.5 -67z" />
    <glyph glyph-name="ae" unicode="&#xe6;" 
d="M793 612h366q11 48 16 99.5t0.5 109t-21.5 101.5t-54.5 73t-93.5 29q-67 0 -106 -46t-62 -153zM631 309l55 262q-65 47 -147 47q-58 0 -107.5 -28.5t-83 -75t-55.5 -97.5t-33 -104q-22 -103 16.5 -178.5t137.5 -75.5q47 0 82.5 14t56.5 35t36 54.5t23 64t17 71.5
q1 7 2 11zM774 530l-55 -262q-25 -109 -4 -159t96 -50q71 0 148.5 31t175.5 84l18 -80q-232 -117 -356 -117q-140 0 -176 95q-109 -95 -244 -95q-71 0 -121 28.5t-72.5 76.5t-29 109.5t9.5 127.5q16 75 50 142t83 121t118 86t148 32t144 -36l32 155q44 205 -88 205
q-41 0 -90.5 -17t-79 -33t-96.5 -54l-4 86q195 102 289 102q112 0 153 -86q97 84 217 84q151 0 205 -154q28 -73 26.5 -191.5t-34.5 -230.5h-463z" />
    <glyph glyph-name="ccedilla" unicode="&#xe7;" 
d="M1020 229l51 -69q-104 -91 -196.5 -137t-200.5 -46q-6 0 -12 3l-52 -93q36 -1 66.5 -8.5t55.5 -23t35.5 -43.5t2.5 -66q-14 -67 -78.5 -108t-134.5 -41q-74 0 -182 51l39 67q93 -37 139 -37q36 0 75 19.5t46 52.5q6 26 -12.5 42.5t-42 21t-50.5 4.5q-20 0 -44.5 -2
t-28.5 -2l96 172q-53 10 -98.5 32.5t-86.5 64.5t-62.5 103t-27 147t20.5 197q27 127 75.5 228t106 164.5t125.5 106t132 60t128 17.5q229 0 326 -219l-98 -58q-26 89 -88 142t-158 53q-45 0 -91 -11.5t-101 -44t-102 -83.5t-89 -138t-66 -200q-26 -111 -20 -194t28 -139
t62.5 -90.5t85 -49.5t94.5 -15q154 0 332 170z" />
    <glyph glyph-name="egrave" unicode="&#xe8;" 
d="M1014 166l22 -90q-120 -48 -215.5 -73.5t-191.5 -25.5q-92 0 -160 32t-105.5 86t-55.5 127t-15.5 151.5t20.5 163.5t49.5 164.5t81 154t111 129.5t144.5 88t175 33q41 0 78 -8.5t72.5 -28.5t64 -50t49 -76.5t30 -105t5.5 -138t-24 -173.5h-741q-15 -93 -15.5 -166.5
t13.5 -124t36.5 -85.5t56.5 -54.5t70 -28t80 -8.5q163 0 365 107zM424 608h645q15 56 16 114.5t-13 112.5t-42 96t-76 67.5t-110 25.5q-76 0 -149 -38t-127.5 -98.5t-92.5 -134t-51 -145.5zM764 1503l268 -266l-57 -61l-305 241z" />
    <glyph glyph-name="eacute" unicode="&#xe9;" 
d="M1014 166l22 -90q-120 -48 -215.5 -73.5t-191.5 -25.5q-92 0 -160 32t-105.5 86t-55.5 127t-15.5 151.5t20.5 163.5t49.5 164.5t81 154t111 129.5t144.5 88t175 33q41 0 78 -8.5t72.5 -28.5t64 -50t49 -76.5t30 -105t5.5 -138t-24 -173.5h-741q-15 -93 -15.5 -166.5
t13.5 -124t36.5 -85.5t56.5 -54.5t70 -28t80 -8.5q163 0 365 107zM424 608h645q15 56 16 114.5t-13 112.5t-42 96t-76 67.5t-110 25.5q-76 0 -149 -38t-127.5 -98.5t-92.5 -134t-51 -145.5zM1100 1503l57 -86l-407 -241l-33 61z" />
    <glyph glyph-name="ecircumflex" unicode="&#xea;" 
d="M1014 166l22 -90q-120 -48 -215.5 -73.5t-191.5 -25.5q-92 0 -160 32t-105.5 86t-55.5 127t-15.5 151.5t20.5 163.5t49.5 164.5t81 154t111 129.5t144.5 88t175 33q41 0 78 -8.5t72.5 -28.5t64 -50t49 -76.5t30 -105t5.5 -138t-24 -173.5h-741q-15 -93 -15.5 -166.5
t13.5 -124t36.5 -85.5t56.5 -54.5t70 -28t80 -8.5q163 0 365 107zM424 608h645q15 56 16 114.5t-13 112.5t-42 96t-76 67.5t-110 25.5q-76 0 -149 -38t-127.5 -98.5t-92.5 -134t-51 -145.5zM907 1382l-332 -215l-36 52l397 290l270 -290l-57 -52z" />
    <glyph glyph-name="edieresis" unicode="&#xeb;" 
d="M1014 166l22 -90q-120 -48 -215.5 -73.5t-191.5 -25.5q-92 0 -160 32t-105.5 86t-55.5 127t-15.5 151.5t20.5 163.5t49.5 164.5t81 154t111 129.5t144.5 88t175 33q41 0 78 -8.5t72.5 -28.5t64 -50t49 -76.5t30 -105t5.5 -138t-24 -173.5h-741q-15 -93 -15.5 -166.5
t13.5 -124t36.5 -85.5t56.5 -54.5t70 -28t80 -8.5q163 0 365 107zM424 608h645q15 56 16 114.5t-13 112.5t-42 96t-76 67.5t-110 25.5q-76 0 -149 -38t-127.5 -98.5t-92.5 -134t-51 -145.5zM596 1335q9 47 49.5 81t87.5 34t74 -34t18 -81q-11 -47 -51.5 -80.5t-87.5 -33.5
t-73.5 33.5t-16.5 80.5zM971 1335q9 47 49.5 81t87.5 34t74 -34t18 -81q-11 -47 -51.5 -80.5t-87.5 -33.5t-73.5 33.5t-16.5 80.5z" />
    <glyph glyph-name="igrave" unicode="&#xec;" 
d="M592 0l213 1001h-316l17 82h412l-230 -1083h-96zM764 1503l268 -266l-57 -61l-305 241z" />
    <glyph glyph-name="iacute" unicode="&#xed;" 
d="M592 0l213 1001h-316l17 82h412l-230 -1083h-96zM1018 1503l57 -86l-407 -241l-33 61z" />
    <glyph glyph-name="icircumflex" unicode="&#xee;" 
d="M592 0l213 1001h-316l17 82h412l-230 -1083h-96zM825 1382l-331 -215l-37 52l397 290l270 -290l-57 -52z" />
    <glyph glyph-name="idieresis" unicode="&#xef;" 
d="M592 0l213 1001h-316l17 82h412l-230 -1083h-96zM596 1335q9 47 49.5 81t87.5 34t74 -34t18 -81q-11 -47 -51.5 -80.5t-87.5 -33.5t-73.5 33.5t-16.5 80.5zM971 1335q9 47 49.5 81t87.5 34t74 -34t18 -81q-11 -47 -51.5 -80.5t-87.5 -33.5t-73.5 33.5t-16.5 80.5z" />
    <glyph glyph-name="eth" unicode="&#xf0;" 
d="M639 59q77 0 141.5 30.5t109 78.5t79.5 114.5t55.5 128.5t34.5 132q12 57 17.5 109.5t5 108.5t-15.5 102t-41 83t-73.5 57.5t-111.5 20.5q-76 0 -140.5 -30.5t-108.5 -77.5t-79 -113t-55.5 -128.5t-34.5 -131.5q-15 -70 -20.5 -132.5t2 -129t31.5 -114t76 -78t128 -30.5z
M928 1315l-328 -144l-49 62l317 141q-101 78 -211 105l78 41q119 -23 228 -109l245 109l45 -64l-231 -102q72 -79 116 -186t56.5 -249t-23.5 -305q-132 -637 -548 -637q-41 0 -79 8t-75.5 27t-68 48.5t-53.5 74.5t-34.5 102t-8.5 135.5t22 170.5q25 122 69.5 220t98 161
t117 105t124.5 59.5t123 17.5q150 0 223 -117l4 4q-36 197 -157 322z" />
    <glyph glyph-name="ntilde" unicode="&#xf1;" 
d="M438 446l-94 -446h-96l114 543q74 348 76 553h90l-28 -312h4q59 125 193.5 223.5t260.5 98.5q71 0 116 -28.5t62 -78t17 -105.5t-14 -122l-164 -772h-96l153 727q8 37 12 57t8.5 56t3 57t-8 48.5t-20.5 42.5t-39 25.5t-60 10.5q-49 0 -102.5 -19t-112 -63.5t-110 -109
t-96 -164.5t-69.5 -222zM1176 1417l69 -31q-43 -68 -107.5 -113.5t-133.5 -45.5q-46 0 -80 15.5t-78 49.5q-3 2 -15 11.5t-16 12.5t-15 10.5t-17 10.5t-17 8t-19.5 7t-19.5 4t-22 2q-87 0 -175 -137l-69 26q127 193 268 193q16 0 31.5 -3t26.5 -6.5t26.5 -12t22.5 -13
t24.5 -16t22.5 -15.5q2 -1 13.5 -9.5t16 -11.5t16 -11t18 -11.5t17.5 -9t19 -8t18 -4.5t19 -2q88 0 156 110z" />
    <glyph glyph-name="ograve" unicode="&#xf2;" 
d="M625 -23q-41 0 -79 8t-75.5 27t-68 48.5t-53.5 74.5t-34 102t-8 135.5t23 170.5q26 122 71.5 220t98.5 161t116.5 105t124.5 59.5t123 17.5q48 0 91.5 -11.5t86 -36t73 -68.5t49.5 -104t18.5 -148t-23.5 -195q-27 -127 -74 -227.5t-101.5 -162.5t-119 -103t-123 -57
t-116.5 -16zM641 59q64 0 120 20.5t98 58.5t75.5 83.5t58.5 102.5t41.5 109.5t28.5 109.5q15 70 21 132t-1.5 128t-31.5 113t-76 77.5t-129 30.5q-76 0 -140.5 -30.5t-108.5 -77.5t-79.5 -113t-56 -128t-35.5 -132q-12 -58 -18 -110.5t-5 -109.5t15 -102.5t40 -83t72.5 -58
t110.5 -20.5zM764 1503l268 -266l-57 -61l-305 241z" />
    <glyph glyph-name="oacute" unicode="&#xf3;" 
d="M625 -23q-41 0 -79 8t-75.5 27t-68 48.5t-53.5 74.5t-34 102t-8 135.5t23 170.5q26 122 71.5 220t98.5 161t116.5 105t124.5 59.5t123 17.5q48 0 91.5 -11.5t86 -36t73 -68.5t49.5 -104t18.5 -148t-23.5 -195q-27 -127 -74 -227.5t-101.5 -162.5t-119 -103t-123 -57
t-116.5 -16zM641 59q64 0 120 20.5t98 58.5t75.5 83.5t58.5 102.5t41.5 109.5t28.5 109.5q15 70 21 132t-1.5 128t-31.5 113t-76 77.5t-129 30.5q-76 0 -140.5 -30.5t-108.5 -77.5t-79.5 -113t-56 -128t-35.5 -132q-12 -58 -18 -110.5t-5 -109.5t15 -102.5t40 -83t72.5 -58
t110.5 -20.5zM1100 1503l57 -86l-407 -241l-33 61z" />
    <glyph glyph-name="ocircumflex" unicode="&#xf4;" 
d="M625 -23q-41 0 -79 8t-75.5 27t-68 48.5t-53.5 74.5t-34 102t-8 135.5t23 170.5q26 122 71.5 220t98.5 161t116.5 105t124.5 59.5t123 17.5q48 0 91.5 -11.5t86 -36t73 -68.5t49.5 -104t18.5 -148t-23.5 -195q-27 -127 -74 -227.5t-101.5 -162.5t-119 -103t-123 -57
t-116.5 -16zM641 59q64 0 120 20.5t98 58.5t75.5 83.5t58.5 102.5t41.5 109.5t28.5 109.5q15 70 21 132t-1.5 128t-31.5 113t-76 77.5t-129 30.5q-76 0 -140.5 -30.5t-108.5 -77.5t-79.5 -113t-56 -128t-35.5 -132q-12 -58 -18 -110.5t-5 -109.5t15 -102.5t40 -83t72.5 -58
t110.5 -20.5zM907 1382l-332 -215l-36 52l397 290l270 -290l-57 -52z" />
    <glyph glyph-name="otilde" unicode="&#xf5;" 
d="M625 -23q-41 0 -79 8t-75.5 27t-68 48.5t-53.5 74.5t-34 102t-8 135.5t23 170.5q26 122 71.5 220t98.5 161t116.5 105t124.5 59.5t123 17.5q48 0 91.5 -11.5t86 -36t73 -68.5t49.5 -104t18.5 -148t-23.5 -195q-27 -127 -74 -227.5t-101.5 -162.5t-119 -103t-123 -57
t-116.5 -16zM641 59q64 0 120 20.5t98 58.5t75.5 83.5t58.5 102.5t41.5 109.5t28.5 109.5q15 70 21 132t-1.5 128t-31.5 113t-76 77.5t-129 30.5q-76 0 -140.5 -30.5t-108.5 -77.5t-79.5 -113t-56 -128t-35.5 -132q-12 -58 -18 -110.5t-5 -109.5t15 -102.5t40 -83t72.5 -58
t110.5 -20.5zM1217 1417l69 -31q-43 -68 -107.5 -113.5t-134.5 -45.5q-46 0 -79 15.5t-78 49.5q-3 2 -13.5 10t-14 11t-13.5 10t-15 9.5t-14.5 8t-17 7.5t-16.5 5t-18.5 4t-19.5 1q-86 0 -174 -137l-69 26q127 193 268 193q16 0 31.5 -3t26.5 -6.5t26.5 -12t22.5 -13
t24.5 -16t22.5 -15.5q2 -1 13.5 -9.5t16 -11.5t16 -11t18 -11.5t17.5 -9t19 -8t18 -4.5t19 -2q88 0 156 110z" />
    <glyph glyph-name="odieresis" unicode="&#xf6;" 
d="M625 -23q-41 0 -79 8t-75.5 27t-68 48.5t-53.5 74.5t-34 102t-8 135.5t23 170.5q26 122 71.5 220t98.5 161t116.5 105t124.5 59.5t123 17.5q48 0 91.5 -11.5t86 -36t73 -68.5t49.5 -104t18.5 -148t-23.5 -195q-27 -127 -74 -227.5t-101.5 -162.5t-119 -103t-123 -57
t-116.5 -16zM641 59q64 0 120 20.5t98 58.5t75.5 83.5t58.5 102.5t41.5 109.5t28.5 109.5q15 70 21 132t-1.5 128t-31.5 113t-76 77.5t-129 30.5q-76 0 -140.5 -30.5t-108.5 -77.5t-79.5 -113t-56 -128t-35.5 -132q-12 -58 -18 -110.5t-5 -109.5t15 -102.5t40 -83t72.5 -58
t110.5 -20.5zM616 1335q9 47 50 81t88 34t74 -34t18 -81q-11 -47 -51.5 -80.5t-87.5 -33.5t-74 33.5t-17 80.5zM991 1335q9 47 49.5 81t87.5 34t74.5 -34t18.5 -81q-10 -47 -51.5 -80.5t-88.5 -33.5t-73.5 33.5t-16.5 80.5z" />
    <glyph glyph-name="divide" unicode="&#xf7;" 
d="M1303 782v-90h-1090v90h1090zM846 420q0 -37 -25.5 -62.5t-62.5 -25.5t-62.5 25.5t-25.5 62.5t25.5 62.5t62.5 25.5t62.5 -25.5t25.5 -62.5zM846 1055q0 -37 -25.5 -62.5t-62.5 -25.5t-62.5 25.5t-25.5 62.5t25.5 62.5t62.5 25.5t62.5 -25.5t25.5 -62.5z" />
    <glyph glyph-name="oslash" unicode="&#xf8;" 
d="M1055 1024l98 123l53 -45l-106 -131q92 -147 30 -428q-26 -123 -71 -222t-98 -162t-116.5 -105t-124 -59.5t-122.5 -17.5q-138 0 -231 93l-101 -127l-53 45l113 137q-83 146 -25 418q26 122 71 220t98.5 161t117.5 105t125.5 59.5t124.5 17.5q132 0 217 -82zM395 209
l602 743q-61 72 -178 72q-77 0 -141.5 -30.5t-109 -77.5t-80 -113t-56 -128t-35.5 -132q-45 -208 -2 -334zM1034 891l-606 -750q56 -82 186 -82q76 0 140.5 30.5t108.5 78t79.5 114t56 129t35.5 132.5q48 226 0 348z" />
    <glyph glyph-name="ugrave" unicode="&#xf9;" 
d="M1024 645l92 438h96l-112 -534q-72 -338 -74 -549h-90l25 307h-5q-59 -126 -193.5 -228t-258.5 -102q-57 0 -97.5 20t-61.5 53t-29.5 78t-5.5 92t14 99l161 764h97l-152 -718q-33 -154 -9 -230t111 -76q63 0 133 35t140 103t129 184.5t90 263.5zM764 1503l268 -266
l-57 -61l-305 241z" />
    <glyph glyph-name="uacute" unicode="&#xfa;" 
d="M1024 645l92 438h96l-112 -534q-72 -338 -74 -549h-90l25 307h-5q-59 -126 -193.5 -228t-258.5 -102q-57 0 -97.5 20t-61.5 53t-29.5 78t-5.5 92t14 99l161 764h97l-152 -718q-33 -154 -9 -230t111 -76q63 0 133 35t140 103t129 184.5t90 263.5zM1059 1503l57 -86
l-407 -241l-33 61z" />
    <glyph glyph-name="ucircumflex" unicode="&#xfb;" 
d="M1024 645l92 438h96l-112 -534q-72 -338 -74 -549h-90l25 307h-5q-59 -126 -193.5 -228t-258.5 -102q-57 0 -97.5 20t-61.5 53t-29.5 78t-5.5 92t14 99l161 764h97l-152 -718q-33 -154 -9 -230t111 -76q63 0 133 35t140 103t129 184.5t90 263.5zM907 1382l-332 -215
l-36 52l397 290l270 -290l-57 -52z" />
    <glyph glyph-name="udieresis" unicode="&#xfc;" 
d="M1024 645l92 438h96l-112 -534q-72 -338 -74 -549h-90l25 307h-5q-59 -126 -193.5 -228t-258.5 -102q-57 0 -97.5 20t-61.5 53t-29.5 78t-5.5 92t14 99l161 764h97l-152 -718q-33 -154 -9 -230t111 -76q63 0 133 35t140 103t129 184.5t90 263.5zM596 1335q9 47 49.5 81
t87.5 34t74 -34t18 -81q-11 -47 -51.5 -80.5t-87.5 -33.5t-73.5 33.5t-16.5 80.5zM971 1335q9 47 49.5 81t87.5 34t74 -34t18 -81q-11 -47 -51.5 -80.5t-87.5 -33.5t-73.5 33.5t-16.5 80.5z" />
    <glyph glyph-name="yacute" unicode="&#xfd;" 
d="M1167 1083h111l-623 -1030q-4 -6 -11 -18q-27 -44 -42.5 -68.5t-47 -70.5t-55 -74t-58.5 -63.5t-66 -55.5t-69.5 -34.5t-76.5 -14.5q-88 0 -141 59t-63 148l90 43q6 -43 18.5 -77.5t42.5 -62.5t72 -28q37 0 72 18.5t67 54.5t51.5 62t46.5 68l121 186l-149 958h106
l117 -831zM1059 1503l57 -86l-407 -241l-33 61z" />
    <glyph glyph-name="thorn" unicode="&#xfe;" 
d="M166 -434l414 1954h96l-119 -564l4 -4q78 81 144.5 117.5t156.5 36.5q57 0 109 -18.5t100 -60t75 -107.5t34.5 -162t-21.5 -223q-26 -124 -77.5 -224t-110.5 -160.5t-127 -101.5t-124 -56.5t-104 -15.5q-151 0 -247 93l-107 -504h-96zM526 807l-137 -641
q100 -107 219 -107q34 0 71 8.5t83 28t89.5 56.5t84.5 88t75 128.5t54 172.5q26 112 19.5 195t-28 138t-60 88.5t-76.5 47.5t-78 14q-99 0 -173.5 -57.5t-142.5 -159.5z" />
    <glyph glyph-name="ydieresis" unicode="&#xff;" 
d="M1167 1083h111l-623 -1030q-4 -6 -11 -18q-27 -44 -42.5 -68.5t-47 -70.5t-55 -74t-58.5 -63.5t-66 -55.5t-69.5 -34.5t-76.5 -14.5q-88 0 -141 59t-63 148l90 43q6 -43 18.5 -77.5t42.5 -62.5t72 -28q37 0 72 18.5t67 54.5t51.5 62t46.5 68l121 186l-149 958h106
l117 -831zM596 1335q9 47 49.5 81t87.5 34t74 -34t18 -81q-11 -47 -51.5 -80.5t-87.5 -33.5t-73.5 33.5t-16.5 80.5zM971 1335q9 47 49.5 81t87.5 34t74 -34t18 -81q-11 -47 -51.5 -80.5t-87.5 -33.5t-73.5 33.5t-16.5 80.5z" />
    <glyph glyph-name="dcroat" unicode="&#x111;" 
d="M930 276l135 642q-99 106 -219 106q-42 0 -87 -11.5t-102 -44.5t-106 -84t-93 -139.5t-69 -201.5q-26 -112 -19.5 -194.5t28 -138t60 -89t76.5 -48t78 -14.5q97 0 179 60.5t139 156.5zM1085 1014l50 229h-267l19 82h266l41 195h96l-41 -195h242l-18 -82h-242l-182 -862
q-50 -230 -35 -391l-92 -13l-2 179q-62 -85 -146.5 -132t-179.5 -47q-57 0 -109.5 19t-100.5 61t-75.5 108.5t-34.5 162t21 221.5q22 104 61.5 191.5t87.5 146.5t101 103t107.5 68.5t101 36t86.5 11.5q150 0 245 -92z" />
    <glyph glyph-name="Hbar" unicode="&#x126;" 
d="M1077 807l62 293h-584l-61 -293h583zM635 1475l-62 -293h584l62 293h96l-62 -293h185l-19 -82h-184l-234 -1100h-96l154 725h-584l-153 -725h-97l234 1100h-185l19 82h184l62 293h96z" />
    <glyph glyph-name="hbar" unicode="&#x127;" 
d="M915 1221h-292l-80 -373h4q76 110 188 184t228 74q41 0 79 -16t72.5 -53.5t44.5 -98.5t-6 -150l-168 -788h-96l145 680q73 344 -106 344q-89 0 -184 -66.5t-167 -178t-98 -234.5l-117 -545h-96l260 1221h-225l16 82h226l47 217h96l-47 -217h293z" />
    <glyph glyph-name="dotlessi" unicode="&#x131;" 
d="M592 0l213 1001h-316l17 82h412l-230 -1083h-96z" />
    <glyph glyph-name="IJ" unicode="&#x132;" 
d="M680 1475l-16 -82h-119l-279 -1311h119l-18 -82h-330l18 82h115l279 1311h-115l16 82h330zM1393 1475l-228 -1069q-92 -435 -434 -435q-168 0 -231 97t-27 272l55 262h97l-52 -242q-36 -167 6 -239t158 -72q57 0 103.5 13.5t79.5 40.5t57 57.5t41.5 75.5t28.5 82.5
t22 89.5l211 985h-274l16 82h371z" />
    <glyph glyph-name="ij" unicode="&#x133;" 
d="M285 1083h342l-230 -1083h-96l213 1001h-246zM662 1503q44 0 69.5 -31t16.5 -75t-48 -75.5t-84 -31.5q-44 0 -68.5 31.5t-15.5 75.5t47.5 75t82.5 31zM889 1083h346l-217 -1024q-86 -405 -422 -405q-139 0 -207 92l74 76q23 -39 68 -62.5t96 -23.5t93 15t81.5 50
t70.5 99.5t50 156.5l200 944h-250zM1266 1503q44 0 69.5 -31t16.5 -75t-48 -75.5t-83 -31.5t-68.5 31.5t-15.5 75.5t47 75t82 31z" />
    <glyph glyph-name="kgreenlandic" unicode="&#x138;" 
d="M1266 1106l-19 -86q-24 2 -49 -5.5t-45 -18.5t-48.5 -35t-46 -40t-52 -50.5t-52.5 -51.5q-45 -44 -82 -76t-87 -73.5t-93 -79.5l400 -590h-129l-340 535l-123 -101l-92 -434h-97l236 1106h96l-119 -557q246 196 426 373q99 99 167 140t149 44z" />
    <glyph glyph-name="Ldot" unicode="&#x13f;" 
d="M756 1475l-295 -1393h647l-18 -82h-744l313 1475h97zM1075 737q9 47 49.5 81t87.5 34t74.5 -34t18.5 -81q-10 -47 -51.5 -80.5t-88.5 -33.5t-73.5 33.5t-16.5 80.5z" />
    <glyph glyph-name="ldot" unicode="&#x140;" 
d="M578 0l305 1438h-320l19 82h415l-323 -1520h-96zM1157 737q9 47 49.5 81t87.5 34t74 -34t18 -81q-11 -47 -51.5 -80.5t-87.5 -33.5t-73.5 33.5t-16.5 80.5z" />
    <glyph glyph-name="Lslash" unicode="&#x141;" 
d="M596 846l418 178l-21 -102l-415 -156l-144 -684h645l-18 -82h-742l154 723l-260 -107l20 95l259 96l141 668h96z" />
    <glyph glyph-name="lslash" unicode="&#x142;" 
d="M877 944l313 133l-23 -100l-311 -129l-180 -848h-96l172 807l-332 -141l20 96l332 141l113 535h-322l19 82h417z" />
    <glyph glyph-name="napostrophe" unicode="&#x149;" 
d="M313 1042l19 86q56 15 106.5 46t79.5 75q-5 -1 -19.5 -3.5t-21.5 -2.5q-57 0 -83.5 35t-14.5 92t59.5 95t104.5 38q65 0 93.5 -50.5t14.5 -117.5q-22 -103 -122.5 -182.5t-215.5 -110.5zM561 446l-94 -446h-96l114 543q74 349 74 549h90l-26 -308h4q59 125 193.5 223.5
t260.5 98.5q71 0 116 -28.5t62 -78t17 -105.5t-14 -122l-164 -772h-97l154 727q8 37 12 57t8.5 56t3 57t-8 48.5t-20.5 42.5t-39 25.5t-60 10.5q-49 0 -102.5 -19t-112 -63.5t-110 -109t-96 -164.5t-69.5 -222z" />
    <glyph glyph-name="Eng" unicode="&#x14a;" 
d="M473 606l-129 -606h-96l158 737q98 467 112 738h90l-47 -408h4q66 169 208.5 302.5t268.5 133.5q71 0 114 -38.5t56 -106t9 -143.5t-23 -166l-223 -1049q-31 -146 -145.5 -246t-254.5 -100q-165 0 -223 125l80 51q38 -94 160 -94q105 0 183.5 72.5t103.5 191.5l211 989
q41 198 38 284q-7 147 -114 148q-48 0 -104 -29t-118.5 -93.5t-120 -157t-110.5 -231.5t-88 -304z" />
    <glyph glyph-name="eng" unicode="&#x14b;" 
d="M438 446l-94 -446h-96l114 543q74 349 74 549h90l-26 -308h4q59 125 193.5 223.5t260.5 98.5q71 0 116 -28.5t62 -78t17 -105.5t-14 -122l-164 -772q-31 -146 -145.5 -246t-254.5 -100q-165 0 -223 125l80 51q38 -94 160 -94q105 0 183.5 72.5t103.5 191.5l153 727
q8 37 12 57t8.5 56t3 57t-8 48.5t-20.5 42.5t-39 25.5t-60 10.5q-49 0 -102.5 -19t-112 -63.5t-110 -109t-96 -164.5t-69.5 -222z" />
    <glyph glyph-name="OE" unicode="&#x152;" 
d="M1507 1475l-16 -82h-426l-125 -588h297l-18 -82h-297l-136 -641h443l-19 -82h-538q-39 -13 -82 -23q-40 -6 -84 -6q-69 0 -122.5 17t-90 44.5t-60.5 71.5t-36.5 88t-15.5 105t-0.5 111t12 117.5t18.5 113.5t22 109q38 178 90 312t109 217.5t126.5 135t137 71t146.5 19.5
q67 0 143 -28h522zM690 88l275 1294q-80 39 -148 39q-66 0 -123.5 -23.5t-100.5 -60.5t-80.5 -94t-63 -112t-48.5 -127.5t-37 -127t-28 -122.5q-49 -233 -54 -348q-16 -353 244 -353q77 0 164 35z" />
    <glyph glyph-name="oe" unicode="&#x153;" 
d="M766 530l-55 -262q-23 -109 0.5 -159t99.5 -50q71 0 148.5 31t175.5 84l18 -80q-232 -117 -356 -117q-64 0 -104 19.5t-72 66.5q-38 -38 -86.5 -62t-92.5 -24q-45 0 -87 19t-79.5 61t-58.5 108t-24 160t24 218q30 140 85 251.5t120 178t132 101t130 34.5q83 0 160 -70
q85 68 196 68q21 0 40 -2t51.5 -14.5t56 -34t46.5 -64.5t32 -102t3 -151.5t-32 -207.5h-471zM586 135l180 844q-11 45 -84 45q-50 0 -100 -24t-101 -76.5t-95 -150t-73 -230.5q-26 -130 -24 -221.5t28 -150t61 -85.5t75 -27q71 0 133 76zM784 612h375q11 48 16 99.5t0.5 109
t-21.5 101.5t-54.5 73t-93.5 29q-69 0 -111.5 -46.5t-65.5 -152.5z" />
    <glyph glyph-name="Scaron" unicode="&#x160;" 
d="M1282 1337l-74 -71q-67 73 -134.5 114t-153.5 41q-115 0 -209.5 -71.5t-118.5 -186.5q-19 -89 15.5 -155t150.5 -146l106 -74q48 -33 81 -57.5t65.5 -52.5t52 -52t36 -52.5t22.5 -57.5t5.5 -62.5t-8.5 -72.5q-39 -189 -177 -299.5t-329 -110.5q-246 0 -368 217l86 60
q41 -88 120 -141.5t181 -53.5q131 0 241.5 86.5t137.5 216.5q17 67 10.5 118t-56 104t-167.5 133l-121 82q-29 20 -52 37.5t-47 39.5t-40.5 44t-30.5 49t-20.5 55.5t-6.5 63t8 71.5q34 161 162 255.5t293 94.5q99 0 186.5 -45.5t153.5 -120.5zM930 1681l332 213l36 -51
l-395 -289l-272 289l57 51z" />
    <glyph glyph-name="scaron" unicode="&#x161;" 
d="M1130 991l-57 -80q-137 113 -268 113q-84 0 -161 -56.5t-95 -140.5q-8 -36 1.5 -68.5t27.5 -54t49.5 -42.5t55.5 -32.5t58 -25.5t51 -21.5t48.5 -22.5t48 -25.5t41 -28.5t36.5 -34.5t26 -39.5t18.5 -47.5t4.5 -55.5t-7 -65q-27 -129 -140 -208t-245 -79q-98 0 -204 52
t-167 123l70 77q57 -71 144 -120.5t177 -49.5q96 0 171.5 52.5t96.5 146.5q6 26 6 50t-3 42t-13.5 36t-19 30t-27 25.5t-30 21.5t-36 19.5t-36.5 17t-39 16.5q-26 11 -42 18t-41.5 18.5t-41 21.5t-37 23.5t-34.5 27.5t-28 31.5t-22.5 36.5t-13 41t-5 48t6.5 54
q24 113 136.5 191.5t237.5 78.5q167 0 301 -115zM868 1290l332 213l37 -51l-395 -289l-273 289l58 51z" />
    <glyph glyph-name="Tbar" unicode="&#x166;" 
d="M1384 1393h-426l-131 -615h281l-18 -82h-281l-147 -696h-97l148 696h-279l19 82h278l131 615h-424l17 82h946z" />
    <glyph glyph-name="tbar" unicode="&#x167;" 
d="M1137 1001h-398l-55 -260h397l-18 -82h-397l-84 -397q-20 -88 8.5 -145.5t120.5 -57.5q85 0 161 54.5t132 138.5l88 -23q-79 -113 -183 -182.5t-219 -69.5q-263 0 -192 342l71 340h-243l18 82h244l55 260h-244l17 82h243l76 349h96l-75 -349h397z" />
    <glyph glyph-name="Ydieresis" unicode="&#x178;" 
d="M733 737l467 738h109l-551 -850l-133 -625h-97l134 625l-191 850h109zM637 1726q9 47 49.5 81t87.5 34t74 -34t18 -81q-11 -47 -51.5 -80.5t-87.5 -33.5t-73.5 33.5t-16.5 80.5zM1012 1726q9 47 49.5 81t87.5 34t74 -34t18 -81q-11 -47 -51.5 -80.5t-87.5 -33.5
t-73.5 33.5t-16.5 80.5z" />
    <glyph glyph-name="Zcaron" unicode="&#x17d;" 
d="M567 1475h727l-16 -82l-913 -1311h684l-19 -82h-799l19 82l919 1311h-618zM920 1681l331 213l37 -51l-395 -289l-272 289l57 51z" />
    <glyph glyph-name="zcaron" unicode="&#x17e;" 
d="M530 1083h695l-17 -82l-860 -919h690l-18 -82h-811l18 82l867 919h-580zM868 1290l332 213l37 -51l-395 -289l-273 289l58 51z" />
    <glyph glyph-name="florin" unicode="&#x192;" 
d="M926 1006h229l-16 -82h-242l-283 -828q-27 -80 -49.5 -130.5t-56.5 -99t-75.5 -74t-101.5 -41t-141 -15.5h-40l16 82h39q65 0 111 11.5t75.5 30.5t53 57.5t38.5 76.5t37 104q0 2 0.5 3t1 3t1 3.5t1.5 3.5l271 813h-232l17 82h245l52 149q37 108 78.5 180.5t90.5 112.5
t101.5 56t120.5 16h75l-18 -82h-86q-38 0 -71 -9.5t-56.5 -23.5t-44.5 -39.5t-34 -46.5t-26.5 -56.5t-21 -58t-18.5 -61.5z" />
    <glyph glyph-name="circumflex" unicode="&#x2c6;" 
d="M907 1382l-332 -215l-36 52l397 290l270 -290l-57 -52z" />
    <glyph glyph-name="caron" unicode="&#x2c7;" 
d="M889 1290l332 213l36 -51l-395 -289l-272 289l57 51z" />
    <glyph glyph-name="uni02C9" unicode="&#x2c9;" 
d="M1184 1292h-590l18 82h590z" />
    <glyph glyph-name="breve" unicode="&#x2d8;" 
d="M571 1458h91q-3 -39 8 -69t32 -48t52.5 -29.5t64 -15.5t70.5 -4q242 0 297 166h90q-43 -130 -146 -189t-243 -59q-87 0 -148.5 15.5t-94 38.5t-50 59t-21 65.5t-2.5 69.5z" />
    <glyph glyph-name="dotaccent" unicode="&#x2d9;" 
d="M782 1333q11 47 52 81t88 34t73.5 -34t16.5 -81q-9 -47 -50.5 -80.5t-89.5 -33.5q-47 0 -73 33.5t-17 80.5z" />
    <glyph glyph-name="ring" unicode="&#x2da;" 
d="M721 1352q13 69 73.5 118.5t129.5 49.5t108 -49.5t25 -118.5q-15 -69 -75.5 -118.5t-129.5 -49.5t-107.5 49.5t-23.5 118.5zM795 1352q-8 -39 13.5 -67t59.5 -28t73 28.5t42 66.5q9 39 -13 66.5t-61 27.5q-38 0 -71.5 -27t-42.5 -67z" />
    <glyph glyph-name="ogonek" unicode="&#x2db;" 
d="M662 -289l-17 -76q-45 -16 -68.5 -23.5t-59 -14.5t-68.5 -7q-100 0 -158.5 48t-38.5 143q16 73 75 129t138 90h117q-10 -10 -25 -21t-22.5 -15.5t-31 -17.5t-24.5 -14q-45 -27 -83 -66.5t-46 -80.5q-14 -64 18.5 -88.5t104.5 -24.5q83 0 189 39z" />
    <glyph glyph-name="tilde" unicode="&#x2dc;" 
d="M1217 1417l69 -31q-43 -68 -107.5 -113.5t-134.5 -45.5q-46 0 -79 15.5t-78 49.5q-3 2 -13.5 10t-14 11t-13.5 10t-15 9.5t-14.5 8t-17 7.5t-16.5 5t-18.5 4t-19.5 1q-86 0 -174 -137l-69 26q127 193 268 193q16 0 31.5 -3t26.5 -6.5t26.5 -12t22.5 -13t24.5 -16
t22.5 -15.5q2 -1 13.5 -9.5t16 -11.5t16 -11t18 -11.5t17.5 -9t19 -8t18 -4.5t19 -2q88 0 156 110z" />
    <glyph glyph-name="hungarumlaut" unicode="&#x2dd;" 
d="M1255 1503l58 -86l-408 -241l-33 61zM862 1503l58 -86l-408 -241l-33 61z" />
    <glyph glyph-name="uni0393" unicode="&#x393;" 
d="M641 1475h692l-20 -97h-596l-293 -1378h-96z" />
    <glyph glyph-name="uni0398" unicode="&#x398;" 
d="M608 -29q-97 0 -181 49t-144.5 145.5t-78 240t20.5 331.5q32 149 93 276.5t135 216t158.5 151.5t166.5 92.5t156 29.5q97 0 181.5 -49.5t145 -146t78.5 -240t-20 -330.5q-32 -149 -92.5 -276.5t-134.5 -216t-159 -151.5t-167.5 -92.5t-157.5 -29.5zM918 1421
q-61 0 -128 -25t-138 -79.5t-133 -132.5t-115 -194t-82 -253q-32 -148 -25 -261t36.5 -193t79.5 -131.5t104 -75t110 -23.5t121 24.5t137 79t136 132t118.5 194t83.5 254.5q33 151 24.5 265t-39 193.5t-82 129.5t-104 73t-104.5 23zM485 803h596l-20 -103h-596z" />
    <glyph glyph-name="uni03A6" unicode="&#x3a6;" 
d="M887 1503h96l-27 -127q81 0 147.5 -26.5t111.5 -72.5t76 -108t44 -133t11.5 -146.5t-17.5 -150.5q-19 -90 -58.5 -181t-100 -174.5t-133 -147.5t-164.5 -101.5t-189 -36.5l-27 -127h-96l27 127q-82 0 -149 26.5t-112.5 72t-76 106t-43.5 131t-11.5 146t17.5 151.5
q19 91 58.5 181.5t99 174.5t132.5 148.5t166 102.5t191 36zM606 180l236 1112q-84 8 -162 -25t-137 -91t-108 -135.5t-79.5 -156.5t-46.5 -155q-16 -74 -17 -151t16.5 -151t52.5 -130.5t98 -89t147 -27.5zM938 1294l-236 -1112q82 -5 158.5 27.5t135.5 89t108 131t80 151.5
t47 152q14 63 17.5 128.5t-3.5 130.5t-29.5 121t-57.5 98.5t-91.5 64.5t-128.5 18z" />
    <glyph glyph-name="uni03A9" unicode="&#x3a9;" 
d="M700 0l56 256q76 8 142.5 44.5t115 89.5t87.5 121.5t63.5 135.5t39.5 137q14 67 20 135.5t3.5 142t-21.5 136.5t-51.5 114t-89.5 80t-133 29q-89 0 -172.5 -40t-147 -104.5t-116 -147.5t-86 -166.5t-50.5 -163.5q-16 -74 -19 -146t10.5 -142t44 -124t88.5 -89.5
t137 -41.5l-56 -256h-465l19 82h368l27 131q-73 15 -127.5 59t-84.5 104t-44 134.5t-11 150.5t19 152q21 99 62 195.5t103.5 186.5t139.5 158t176 109t205 41q132 0 212 -56.5t124 -172.5q37 -97 41 -222t-22 -239q-15 -71 -41.5 -144t-68 -148.5t-92.5 -136.5t-119 -107.5
t-144 -63.5l-27 -131h332l-19 -82h-428z" />
    <glyph glyph-name="uni03B1" unicode="&#x3b1;" 
d="M719 1024q-109 0 -222 -141t-163 -373q-25 -109 -20 -187.5t22.5 -129.5t51 -81t64 -41.5t62.5 -11.5q58 0 115.5 37t102 94t82.5 127t62 134.5t35 117.5q12 53 15 112t-6.5 120.5t-31.5 110.5t-65.5 80.5t-103.5 31.5zM1004 670l235 444l80 -24l-305 -533l35 -555h-88
l-13 424h-4q-22 -52 -38.5 -88t-43.5 -87t-52 -86t-60.5 -73t-72.5 -61.5t-85 -38.5t-100 -15q-30 0 -60.5 7t-63.5 25t-60 45t-49 70.5t-33 98.5t-8 132t22 167q26 120 72.5 220.5t99.5 166t113 111.5t113 66t99 20q69 0 120.5 -26t80 -69t46.5 -99.5t18.5 -118
t-3.5 -123.5h5z" />
    <glyph glyph-name="uni03B4" unicode="&#x3b4;" 
d="M1038 485q10 59 12 117t-14.5 112t-44.5 95t-77.5 65.5t-112.5 24.5q-77 0 -150 -41t-129 -110q-96 -115 -129 -277q-10 -55 -11.5 -112.5t15.5 -112.5t44 -98t74.5 -69t107.5 -26q78 0 151 40.5t125 105t88 138.5t51 148zM872 963l-272 364l31 148h602l-16 -82h-558
l388 -506q68 -91 90 -183.5t-2 -218.5q-19 -93 -67 -183.5t-115.5 -164.5t-159.5 -120t-189 -46q-63 0 -116 21.5t-90 58t-63 86t-38 105.5t-12 115.5t12 117.5q22 105 67 193t97.5 144.5t112.5 95.5t112.5 56t97.5 17q56 0 82 -23z" />
    <glyph glyph-name="uni03B5" unicode="&#x3b5;" 
d="M872 625l-18 -82q-114 0 -206 -25.5t-159.5 -85t-87.5 -149.5t62 -157t235 -67q213 0 361 144l78 -37q-101 -94 -209.5 -141.5t-249.5 -47.5q-191 0 -295.5 89.5t-73.5 228.5q23 107 119.5 184t245.5 111q-98 34 -149 97.5t-33 146.5q23 113 148 192.5t280 79.5
q95 0 172 -25.5t114 -68.5l-90 -41q-63 53 -207 53q-134 0 -220 -56t-99 -116q-21 -100 62 -163.5t220 -63.5z" />
    <glyph glyph-name="uni03BC" unicode="&#x3bc;" 
d="M971 463l127 598h96l-225 -1061h-97l41 190h-4q-54 -88 -132 -150.5t-163 -62.5q-87 0 -144 57.5t-73 143.5h-4l-137 -653h-96l325 1536h97l-133 -631q-20 -87 -15 -150.5t21 -106t45.5 -68t59 -36t61.5 -10.5q33 0 69 10.5t78 39t79 72t70.5 116.5t53.5 166z" />
    <glyph glyph-name="pi" unicode="&#x3c0;" 
d="M334 1083h1020l-21 -96h-225l-209 -987h-96l209 987h-377l-209 -987h-96l209 987h-226z" />
    <glyph glyph-name="uni03C3" unicode="&#x3c3;" 
d="M1321 1063l-14 -72l-443 23l-4 -4q61 -12 106.5 -49t71 -88t37 -113t9.5 -125.5t-15 -126.5q-24 -112 -74 -205.5t-108 -152t-123 -99t-119 -57.5t-96 -17q-66 0 -121 23.5t-91.5 64.5t-61.5 94.5t-35.5 114.5t-9.5 124t14 124q25 110 83.5 220t141.5 186q36 33 73 57
t77.5 38t72.5 23t79.5 12.5t75.5 4t83 0.5h391zM977 528q12 56 13.5 117t-11.5 121t-39 108t-73.5 77.5t-110.5 29.5q-38 0 -82 -14.5t-94.5 -49.5t-95 -85.5t-83 -130t-59.5 -175.5q-26 -113 -16 -194.5t34.5 -134.5t64.5 -83.5t74 -42.5t64 -12q33 0 75 14.5t93 50t97 87
t86.5 134.5t62.5 183z" />
    <glyph glyph-name="uni03C4" unicode="&#x3c4;" 
d="M1249 1083l-20 -96h-348l-209 -987h-97l209 987h-233q-69 0 -139 -20l18 88q63 19 94.5 23.5t77.5 4.5h647z" />
    <glyph glyph-name="uni03D5" unicode="&#x3d5;" 
d="M594 61l205 961q-66 -8 -122.5 -42t-95.5 -81t-71 -110t-51 -122t-33 -124q-14 -66 -20 -125t-1.5 -122.5t23.5 -110.5t61 -81.5t105 -42.5zM895 1022l-205 -961q66 8 122.5 42t95.5 81t71 111t51 123t33 125t20 125t1.5 122t-23.5 110t-61 80.5t-105 41.5zM969 1372
l-56 -266q42 -5 80 -20.5t74.5 -43t62 -72t40.5 -103.5t12.5 -142t-23.5 -182q-25 -118 -67.5 -213.5t-91.5 -157t-107 -105t-111.5 -64t-107.5 -26.5l-49 -225h-97l50 225q-52 6 -97 27t-86 63t-62 105.5t-26 156t23 214.5q24 114 65.5 207t90 155.5t106 106.5t113 66
t112.5 28l55 266h97z" />
    <glyph glyph-name="endash" unicode="&#x2013;" 
d="M1122 694h-721l19 82h721z" />
    <glyph glyph-name="uni2014" unicode="&#x2014;" 
d="M123 442v148h1229v-148h-1229z" />
    <glyph glyph-name="underscoredbl" unicode="&#x2017;" 
d="M1229 -221h-1229v74h1229v-74zM1229 -442h-1229v73h1229v-73z" />
    <glyph glyph-name="quoteleft" unicode="&#x2018;" 
d="M1092 1503l-19 -86q-130 -35 -184 -121q5 1 18.5 4t20.5 3q57 0 83.5 -35t14.5 -92q-12 -58 -60 -96t-104 -38q-64 0 -92 50.5t-14 117.5q22 103 121.5 182.5t214.5 110.5z" />
    <glyph glyph-name="quoteright" unicode="&#x2019;" 
d="M723 1042l18 86q131 35 187 121q-5 -1 -19.5 -3.5t-21.5 -2.5q-57 0 -84 35t-15 92t59.5 95t104.5 38q65 0 94 -50.5t15 -117.5q-22 -103 -122.5 -182.5t-215.5 -110.5z" />
    <glyph glyph-name="quotesinglbase" unicode="&#x201a;" 
d="M455 -223l18 86q130 35 184 121q-8 0 -20 -4q-3 0 -9.5 -1.5t-9.5 -1.5q-57 0 -83.5 35t-14.5 92q12 58 60 96t104 38q64 0 92.5 -50.5t14.5 -117.5q-22 -103 -121.5 -182.5t-214.5 -110.5z" />
    <glyph glyph-name="uni201B" unicode="&#x201b;" 
d="M1126 1128l-18 -86q-47 14 -88.5 41t-73.5 64t-46 86t-3 102q14 67 64 117.5t114 50.5q56 0 87.5 -37.5t19.5 -95.5q-12 -57 -53.5 -92t-98.5 -35q-1 0 -37 6q8 -44 45.5 -75t87.5 -46z" />
    <glyph glyph-name="quotedblleft" unicode="&#x201c;" 
d="M862 1503l-18 -86q-57 -15 -107.5 -46t-77.5 -75q5 1 18.5 4t20.5 3q57 0 84 -35t15 -92q-12 -58 -60 -96t-104 -38q-64 0 -92.5 50.5t-14.5 117.5q22 103 121.5 182.5t214.5 110.5zM1319 1503l-19 -86q-130 -35 -184 -121q5 1 18.5 4t20.5 3q57 0 83.5 -35t14.5 -92
q-12 -58 -59.5 -96t-103.5 -38q-64 0 -92.5 50.5t-14.5 117.5q22 103 121.5 182.5t214.5 110.5z" />
    <glyph glyph-name="quotedblright" unicode="&#x201d;" 
d="M494 1042l18 86q56 15 106.5 46t79.5 75q-5 -1 -19.5 -3.5t-21.5 -2.5q-57 0 -83.5 35t-14.5 92t59.5 95t104.5 38q65 0 93.5 -50.5t14.5 -117.5q-22 -103 -122 -182.5t-215 -110.5zM950 1042l19 86q56 15 106.5 46t79.5 75q-5 -1 -19.5 -3.5t-21.5 -2.5q-57 0 -83.5 35
t-14.5 92t59.5 95t104.5 38q64 0 93 -50.5t15 -117.5q-22 -103 -122.5 -182.5t-215.5 -110.5z" />
    <glyph glyph-name="quotedblbase" unicode="&#x201e;" 
d="M225 -223l19 86q130 35 184 121q-8 0 -20 -4q-3 0 -9.5 -1.5t-9.5 -1.5q-57 0 -83.5 35t-14.5 92q12 58 60 96t104 38q64 0 92 -50.5t14 -117.5q-22 -103 -121.5 -182.5t-214.5 -110.5zM682 -223l18 86q57 15 107.5 46t77.5 75q-9 0 -21 -4q-3 0 -9 -1.5t-9 -1.5
q-57 0 -83.5 35t-14.5 92q12 58 59.5 96t103.5 38q64 0 92.5 -50.5t14.5 -117.5q-22 -103 -121.5 -182.5t-214.5 -110.5z" />
    <glyph glyph-name="dagger" unicode="&#x2020;" 
d="M840 770l-185 -770h-82l144 770l57 203l-274 -17l24 111l267 -14l73 422h127l-106 -422l274 14l-24 -111l-267 17z" />
    <glyph glyph-name="daggerdbl" unicode="&#x2021;" 
d="M784 1008l-276 -15l24 111l267 -17l65 388h133l-98 -388l275 17l-25 -111l-268 15l-117 -543l276 16l-24 -110l-266 14l-66 -385h-133l98 385l-274 -14l24 110l269 -16z" />
    <glyph glyph-name="bullet" unicode="&#x2022;" 
d="M362 516q0 103 74.5 177.5t177.5 74.5t177.5 -74.5t74.5 -177.5q0 -105 -74.5 -178.5t-177.5 -73.5q-106 0 -179 73t-73 179z" />
    <glyph glyph-name="ellipsis" unicode="&#x2026;" 
d="M98 98q10 52 56.5 90.5t99.5 38.5q52 0 81.5 -38t18.5 -91q-10 -52 -56 -89.5t-99 -37.5q-52 0 -82 37t-19 90zM506 98q10 52 56.5 90.5t99.5 38.5q52 0 81.5 -38t18.5 -91q-10 -52 -56.5 -89.5t-99.5 -37.5q-52 0 -81.5 37t-18.5 90zM913 98q10 52 56.5 90.5t99.5 38.5
q52 0 81.5 -38t18.5 -91q-10 -52 -56 -89.5t-99 -37.5q-52 0 -82 37t-19 90z" />
    <glyph glyph-name="perthousand" unicode="&#x2030;" 
d="M403 1116q-32 -139 56 -139q44 0 85.5 38t70 94t47 107.5t26.5 90.5q5 29 7 59t-14 53t-48 23q-45 0 -86 -36.5t-69.5 -92t-47 -106t-27.5 -91.5zM1083 1503h86l-1073 -1503h-86zM317 1133q12 60 40 122t69 119t99.5 93t123.5 36q85 0 116 -56t11 -144
q-13 -62 -41 -125.5t-69 -124.5t-100.5 -99.5t-125.5 -38.5q-62 0 -95.5 31.5t-36 80t8.5 106.5zM842 195q10 47 29 96.5t49.5 98.5t68 88t86.5 63t101 24q85 0 115 -55.5t12 -144.5q-13 -62 -41 -125.5t-69 -124.5t-100.5 -99.5t-125.5 -38.5q-91 0 -118.5 61.5t-6.5 156.5
zM928 178q-6 -28 -7.5 -48.5t2 -43t19 -35t43.5 -12.5q44 0 85 38t69.5 94.5t46.5 107t26 90.5q5 29 7 59t-14 53t-48 23q-45 0 -86 -36.5t-69.5 -92t-46.5 -106t-27 -91.5zM373 195q10 47 29 96.5t49.5 98.5t68 88t86.5 63t101 24q85 0 115 -55.5t12 -144.5
q-13 -62 -41 -125.5t-69 -124.5t-100.5 -99.5t-125.5 -38.5q-91 0 -118.5 61.5t-6.5 156.5zM459 178q-6 -28 -7.5 -48.5t2 -43t19 -35t43.5 -12.5q44 0 85 38t69.5 94.5t46.5 107t26 90.5q5 29 7 59t-14 53t-48 23q-45 0 -86 -36.5t-69.5 -92t-46.5 -106t-27 -91.5z" />
    <glyph glyph-name="guilsinglleft" unicode="&#x2039;" 
d="M1069 1239l45 -61l-563 -449l373 -448l-74 -66l-420 514z" />
    <glyph glyph-name="guilsinglright" unicode="&#x203a;" 
d="M688 1239l422 -510l-641 -514l-45 66l565 448l-375 449z" />
    <glyph glyph-name="exclamdbl" unicode="&#x203c;" 
d="M764 1475l-242 -1010h-82l181 1010h143zM258 109q12 57 61.5 98t106.5 41t89 -41t20 -98t-61.5 -97.5t-106.5 -40.5t-89 40.5t-20 97.5zM1235 1475l-242 -1010h-82l181 1010h143zM729 109q12 57 61.5 98t106.5 41t89 -41t20 -98t-61.5 -97.5t-106.5 -40.5t-89 40.5
t-20 97.5z" />
    <glyph glyph-name="uni203E" unicode="&#x203e;" 
d="M1044 1491h-614v74h614v-74z" />
    <glyph glyph-name="fraction" unicode="&#x2044;" 
d="M1235 1503h84l-1000 -1503h-77z" />
    <glyph glyph-name="nsuperior" unicode="&#x207f;" 
d="M700 1108l-57 -268h-82l70 325q44 193 41 330h67l-12 -184h4q35 74 121.5 133t167.5 59q89 0 118.5 -58t12.5 -142l-98 -463h-82l92 436q1 6 5 22.5t5 23.5t3.5 21.5t2 21.5t-1 18.5t-4.5 17t-10 13.5t-15 11.5t-22 6t-29 2.5q-41 0 -82 -16.5t-83.5 -51.5t-77.5 -101.5
t-54 -156.5z" />
    <glyph glyph-name="franc" unicode="&#x20a3;" 
d="M987 1475l-16 -82h-537l-125 -582h373l-16 -82h-373l-156 -729h-96l313 1475h633zM762 397l-84 -397h-86l143 674l31 313h82l-23 -274l4 -4q186 286 390 286q58 0 94 -26.5t48 -71.5t11.5 -94t-12.5 -103h-86q5 28 7 41.5t5 41.5t1.5 43t-6 36t-15 32t-28 19.5t-42.5 8.5
q-32 0 -76 -18.5t-97.5 -60.5t-102.5 -101t-92.5 -149.5t-65.5 -195.5z" />
    <glyph glyph-name="uni20A7" unicode="&#x20a7;" 
d="M170 0l313 1475h207q89 0 154 -24.5t101.5 -66t54 -99t17 -119.5t-15.5 -132q-46 -214 -190 -324t-356 -110h-62l-127 -600h-96zM563 1393l-151 -711h47q186 0 295.5 93t144.5 257q19 104 12 173t-43 111t-82 59.5t-106 17.5h-117zM842 705h151l49 227h97l-49 -227h280
l-12 -64h-281l-102 -475q-10 -46 10 -79.5t76 -33.5q108 0 194 105l66 -15q-46 -72 -120 -119t-159 -47q-41 0 -72.5 10.5t-57.5 36t-31.5 69t6.5 110.5l94 438h-152z" />
    <glyph glyph-name="Euro" unicode="&#x20ac;" 
d="M1362 1366l-68 -90l-8 16t-25.5 36t-46 45.5t-69.5 35.5t-94 16q-73 0 -138.5 -33.5t-113.5 -87.5t-88 -126t-65.5 -144t-41.5 -147h479l-53 -82h-444q-3 -16 -10.5 -47.5t-10.5 -48.5h402l-54 -82h-362q-13 -64 -20.5 -111t-12.5 -111t-1 -110t19.5 -94.5t43.5 -79.5
t76.5 -50.5t113.5 -19.5q44 0 89.5 13t78 29.5t62.5 37t42.5 31t18.5 16.5l-25 -112q-18 -16 -49.5 -34.5t-98.5 -39.5t-138 -21q-79 0 -138.5 20t-96.5 53t-58.5 84.5t-29.5 104.5t-5 124t11.5 131.5t23.5 138.5h-154l53 82h115q3 17 10.5 48.5t10.5 47.5h-152l55 82h115
q16 71 40.5 143t72 160.5t106.5 155t147.5 112t190.5 45.5q60 0 111.5 -13.5t82 -30.5t55.5 -39.5t33 -33.5t13 -20z" />
    <glyph glyph-name="afii61289" unicode="&#x2113;" 
d="M1096 276l47 -38q-192 -254 -436 -254q-88 0 -148.5 34.5t-86.5 91.5t-33 131.5t12 155.5q1 5 4 15.5t4 15.5q-28 -19 -160 -111l-23 62q171 121 203 147l129 611q24 113 61.5 200.5t79 141t90 87.5t91 47t84.5 13q123 0 168 -92t14 -234q-42 -198 -205 -394t-436 -412
l-12 -56q-21 -105 -15 -177.5t37 -118.5t73.5 -66.5t96.5 -20.5q104 0 200.5 66.5t160.5 154.5zM696 1153l-121 -561q111 95 192 172.5t158.5 167t126.5 179.5t68 179q26 122 -3.5 192t-125.5 70q-37 0 -76.5 -21.5t-81 -66t-78.5 -125t-59 -186.5z" />
    <glyph glyph-name="trademark" unicode="&#x2122;" 
d="M1491 1503l-123 -577h-82l107 495h-4l-304 -495h-53l-84 495h-4l-106 -495h-82l123 577h139l80 -407l258 407h135zM809 1503l-16 -82h-193l-106 -495h-82l106 495h-194l16 82h469z" />
    <glyph glyph-name="Omega" unicode="&#x2126;" 
d="M700 0l56 256q76 8 142.5 44.5t115 89.5t87.5 121.5t63.5 135.5t39.5 137q14 67 20 135.5t3.5 142t-21.5 136.5t-51.5 114t-89.5 80t-133 29q-89 0 -172.5 -40t-147 -104.5t-116 -147.5t-86 -166.5t-50.5 -163.5q-16 -74 -19 -146t10.5 -142t44 -124t88.5 -89.5
t137 -41.5l-56 -256h-465l19 82h368l27 131q-73 15 -127.5 59t-84.5 104t-44 134.5t-11 150.5t19 152q21 99 62 195.5t103.5 186.5t139.5 158t176 109t205 41q132 0 212 -56.5t124 -172.5q37 -97 41 -222t-22 -239q-15 -71 -41.5 -144t-68 -148.5t-92.5 -136.5t-119 -107.5
t-144 -63.5l-27 -131h332l-19 -82h-428z" />
    <glyph glyph-name="estimated" unicode="&#x212e;" 
d="M1362 522h-1004q-8 0 -8 -8v-303q0 -15 12 -35q161 -164 381 -164q118 0 221.5 49t178.5 136h88q-85 -100 -213.5 -157.5t-276.5 -57.5q-126 0 -240.5 44t-197 118t-131.5 177t-49 216t49 216t131.5 178t197 119t240.5 44q169 0 312 -74.5t226 -203t83 -279.5v-15z
M1135 561v305q0 21 -17 35q-74 74 -171.5 117t-203.5 43q-107 0 -204 -44t-172 -120q-17 -17 -17 -39v-297q0 -10 8 -10h770q7 0 7 10z" />
    <glyph glyph-name="oneeighth" unicode="&#x215b;" 
d="M791 215q-17 -78 22.5 -121t118.5 -43t136.5 43t74.5 121t-22 122t-117 44q-79 0 -137.5 -44t-75.5 -122zM1198 596q15 70 -17.5 109.5t-103.5 39.5q-74 0 -119 -42.5t-61 -118.5q-13 -63 21 -100.5t96 -37.5q69 0 119 40.5t65 109.5zM885 420q-49 37 -65 75t-3 101
q21 100 99 157.5t178 57.5q101 0 154 -57.5t32 -157.5q-13 -62 -44.5 -99t-96.5 -79q62 -40 82.5 -83.5t3.5 -119.5q-22 -110 -106.5 -169.5t-198.5 -59.5t-173.5 59.5t-37.5 169.5q17 77 56.5 121t119.5 84zM670 1503l-164 -768h147l-12 -65h-381l12 65h152l143 670
l-170 -49l15 71zM1235 1503h82l-993 -1503h-82z" />
    <glyph glyph-name="threeeighths" unicode="&#x215c;" 
d="M791 215q-17 -78 22.5 -121t118.5 -43t136.5 43t74.5 121t-22 122t-117 44q-79 0 -137.5 -44t-75.5 -122zM1198 596q15 70 -17.5 109.5t-103.5 39.5q-74 0 -119 -42.5t-61 -118.5q-13 -63 21 -100.5t96 -37.5q69 0 119 40.5t65 109.5zM885 420q-49 37 -65 75t-3 101
q21 100 99 157.5t178 57.5q101 0 154 -57.5t32 -157.5q-13 -62 -44.5 -99t-96.5 -79q62 -40 82.5 -83.5t3.5 -119.5q-22 -110 -106.5 -169.5t-198.5 -59.5t-173.5 59.5t-37.5 169.5q17 77 56.5 121t119.5 84zM481 1087l15 66q70 -5 132 38t77 114q13 58 -21.5 95.5
t-93.5 37.5q-50 0 -98 -33.5t-80 -81.5l-62 39q110 141 264 141q89 0 140 -59.5t32 -147.5q-23 -108 -147 -172q129 -62 100 -209q-23 -106 -107 -172.5t-190 -66.5q-87 0 -135.5 36.5t-81.5 112.5l80 43q16 -63 51 -95t101 -32q72 0 127.5 45t70.5 117q21 95 -26.5 139.5
t-147.5 44.5zM1235 1503h82l-993 -1503h-82z" />
    <glyph glyph-name="fiveeighths" unicode="&#x215d;" 
d="M791 215q-17 -78 22.5 -121t118.5 -43t136.5 43t74.5 121t-22 122t-117 44q-79 0 -137.5 -44t-75.5 -122zM1198 596q15 70 -17.5 109.5t-103.5 39.5q-74 0 -119 -42.5t-61 -118.5q-13 -63 21 -100.5t96 -37.5q69 0 119 40.5t65 109.5zM885 420q-49 37 -65 75t-3 101
q21 100 99 157.5t178 57.5q101 0 154 -57.5t32 -157.5q-13 -62 -44.5 -99t-96.5 -79q62 -40 82.5 -83.5t3.5 -119.5q-22 -110 -106.5 -169.5t-198.5 -59.5t-173.5 59.5t-37.5 169.5q17 77 56.5 121t119.5 84zM805 1503l-14 -65h-287l-84 -287q69 53 153 53q99 0 144 -73
t22 -173q-24 -114 -103 -191t-190 -77q-122 0 -188 131l74 47q14 -49 48.5 -80.5t84.5 -31.5q69 0 122 58.5t68 129.5q8 48 5 91.5t-32 73.5t-79 30q-39 0 -79 -26.5t-71 -65.5l-82 16l127 440h361zM1235 1503h84l-1000 -1503h-77z" />
    <glyph glyph-name="seveneighths" unicode="&#x215e;" 
d="M791 215q-17 -78 22.5 -121t118.5 -43t136.5 43t74.5 121t-22 122t-117 44q-79 0 -137.5 -44t-75.5 -122zM1198 596q15 70 -17.5 109.5t-103.5 39.5q-74 0 -119 -42.5t-61 -118.5q-13 -63 21 -100.5t96 -37.5q69 0 119 40.5t65 109.5zM885 420q-49 37 -65 75t-3 101
q21 100 99 157.5t178 57.5q101 0 154 -57.5t32 -157.5q-13 -62 -44.5 -99t-96.5 -79q62 -40 82.5 -83.5t3.5 -119.5q-22 -110 -106.5 -169.5t-198.5 -59.5t-173.5 59.5t-37.5 169.5q17 77 56.5 121t119.5 84zM438 1503h453l-485 -796h-89l453 731h-346zM1161 1503h82
l-993 -1503h-82z" />
    <glyph glyph-name="uni2190" unicode="&#x2190;" 
d="M401 782h942v-90h-942q27 -41 64 -129t37 -123q0 -13 -8 -22.5t-21 -9.5q-16 0 -43 41q-50 74 -117.5 142t-138.5 109q-43 22 -43 37t43 37q70 41 138 109t118 143q27 41 43 41q13 0 21 -10t8 -23q0 -35 -37 -123t-64 -129z" />
    <glyph glyph-name="uni2191" unicode="&#x2191;" 
d="M782 1073v-942h-90v942q-40 -27 -128.5 -63.5t-123.5 -36.5q-13 0 -22.5 7.5t-9.5 20.5q0 16 41 43q74 50 142 117.5t109 138.5q22 43 37 43t37 -43q41 -70 109 -138t143 -118q41 -27 41 -43q0 -13 -10 -20.5t-23 -7.5q-35 0 -123.5 36.5t-128.5 63.5z" />
    <glyph glyph-name="uni2192" unicode="&#x2192;" 
d="M131 782h942q-27 40 -63.5 128.5t-36.5 123.5q0 13 7.5 23t20.5 10q16 0 43 -41q50 -75 118 -143t138 -109q43 -22 43 -37t-43 -37q-71 -41 -138.5 -109t-117.5 -142q-27 -41 -43 -41q-13 0 -20.5 9.5t-7.5 22.5q0 35 36.5 123.5t63.5 128.5h-942v90z" />
    <glyph glyph-name="uni2193" unicode="&#x2193;" 
d="M782 1343v-942q41 27 129 64t123 37q13 0 23 -8t10 -21q0 -16 -41 -43q-75 -50 -143 -118t-109 -138q-22 -43 -37 -43t-37 43q-41 71 -109 138.5t-142 117.5q-41 27 -41 43q0 13 9.5 21t22.5 8q35 0 123 -37t129 -64v942h90z" />
    <glyph glyph-name="uni2194" unicode="&#x2194;" 
d="M1073 692h-672q27 -41 64 -129t37 -123q0 -13 -8 -22.5t-21 -9.5q-16 0 -43 41q-50 74 -117.5 142t-138.5 109q-43 22 -43 37t43 37q70 41 138 109t118 143q27 41 43 41q13 0 21 -10t8 -23q0 -35 -37 -123t-64 -129h672q-27 40 -63.5 128.5t-36.5 123.5q0 13 7.5 23
t20.5 10q16 0 43 -41q50 -75 118 -143t138 -109q43 -22 43 -37t-43 -37q-71 -41 -138.5 -109t-117.5 -142q-27 -41 -43 -41q-13 0 -20.5 9.5t-7.5 22.5q0 35 36.5 123.5t63.5 128.5z" />
    <glyph glyph-name="uni2195" unicode="&#x2195;" 
d="M692 401v672q-40 -27 -128.5 -63.5t-123.5 -36.5q-13 0 -22.5 7.5t-9.5 20.5q0 16 41 43q74 50 142 117.5t109 138.5q22 43 37 43t37 -43q41 -70 109 -138t143 -118q41 -27 41 -43q0 -13 -10 -20.5t-23 -7.5q-35 0 -123.5 36.5t-128.5 63.5v-672q41 27 129 64t123 37
q13 0 23 -8t10 -21q0 -16 -41 -43q-75 -50 -143 -118t-109 -138q-22 -43 -37 -43t-37 43q-41 71 -109 138.5t-142 117.5q-41 27 -41 43q0 13 9.5 21t22.5 8q35 0 123 -37t129 -64z" />
    <glyph glyph-name="uni21A8" unicode="&#x21a8;" 
d="M692 535v671q-40 -27 -128.5 -63.5t-123.5 -36.5q-13 0 -22.5 8t-9.5 21q0 16 41 43q74 50 142 117.5t109 138.5q22 43 37 43t37 -43q41 -70 109 -138t143 -118q41 -27 41 -43q0 -13 -10 -21t-23 -8q-35 0 -123.5 36.5t-128.5 63.5v-671q40 27 128.5 63.5t123.5 36.5
q13 0 23 -8t10 -21q0 -16 -41 -43q-75 -50 -143 -118t-109 -138q-22 -43 -37 -43t-37 43q-41 71 -109 138.5t-142 117.5q-41 27 -41 43q0 13 9.5 21t22.5 8q35 0 123.5 -36.5t128.5 -63.5zM1067 90v-90h-659v90h659z" />
    <glyph glyph-name="partialdiff" unicode="&#x2202;" 
d="M387 1468l-43 60q147 117 344 117q80 0 155 -30t142 -94.5t117 -156.5t79 -225t29 -291q0 -176 -33.5 -330t-98 -275.5t-171 -192t-241.5 -70.5q-80 0 -147 27t-113.5 72.5t-79 107.5t-47.5 131t-15 143q0 118 38.5 218.5t102.5 167.5t147.5 104.5t172.5 37.5
q78 0 149.5 -26t120 -66t79.5 -76t46 -67h2q4 31 4 110q0 163 -37.5 299.5t-99.5 224.5t-141 136.5t-164 48.5q-166 0 -297 -105zM670 51h4q116 0 210 82.5t149 214.5t73 295q-15 44 -48 90t-79.5 88.5t-112 69.5t-135.5 27q-154 0 -266.5 -131t-112.5 -318
q0 -182 87.5 -300t230.5 -118z" />
    <glyph glyph-name="Delta" unicode="&#x2206;" 
d="M20 2l15 80l856 1442h96l240 -1442l-17 -80h-1190zM123 76h1010l-152 934q-54 340 -61 407h-11q-43 -91 -209 -370z" />
    <glyph glyph-name="product" unicode="&#x220f;" 
d="M1378 1399h-215v-1600h-84v1600h-633v-1600h-84v1600h-215v80h1231v-80z" />
    <glyph glyph-name="summation" unicode="&#x2211;" 
d="M461 1393l436 -615l-448 -696h647v-82h-717v119l414 663l-414 578v115h711v-82h-629z" />
    <glyph glyph-name="minus" unicode="&#x2212;" 
d="M1303 782v-90h-1090v90h1090z" />
    <glyph glyph-name="uni2215" unicode="&#x2215;" 
d="M1235 1503h84l-1000 -1503h-77z" />
    <glyph glyph-name="uni2219" unicode="&#x2219;" 
d="M758 737q10 57 59.5 98.5t106.5 41.5t89 -41.5t21 -98.5q-12 -57 -62.5 -97t-107.5 -40t-87.5 40t-18.5 97z" />
    <glyph glyph-name="radical" unicode="&#x221a;" 
d="M201 887h291l161 -611l398 1356h366v-90h-301l-463 -1565l-235 820h-217v90z" />
    <glyph glyph-name="infinity" unicode="&#x221e;" 
d="M758 655q-35 -54 -66.5 -92.5t-74.5 -76t-94.5 -57t-110.5 -19.5q-89 0 -150.5 48.5t-88 120.5t-26.5 158t26.5 158t88 121t150.5 49q59 0 110.5 -19.5t94.5 -57.5t74.5 -76.5t66.5 -92.5q35 54 66.5 92.5t74.5 76.5t94.5 57.5t110.5 19.5q67 0 119 -28t83 -75t46.5 -104
t15.5 -121q0 -86 -26 -158t-87.5 -120.5t-150.5 -48.5q-59 0 -110.5 19.5t-94.5 57t-74.5 76t-66.5 92.5zM238 735q0 -61 15 -113t56 -91t103 -39q43 0 86 22t84.5 64t65.5 72t59 77q-139 240 -289 240q-60 0 -102.5 -35.5t-60 -86.5t-17.5 -110zM1278 743q0 59 -17.5 110
t-60 86.5t-102.5 35.5q-150 0 -289 -240q35 -47 59 -77t65.5 -72t84.5 -64t86 -22q62 0 103 39t56 91t15 113z" />
    <glyph glyph-name="uni2229" unicode="&#x2229;" 
d="M1331 0h-90v909q0 137 -72.5 256.5t-188.5 188.5t-243 69t-243 -69t-188.5 -188.5t-72.5 -256.5v-909h-90v887q0 171 77.5 312t214 222.5t302.5 81.5t302.5 -81.5t214 -222.5t77.5 -312v-887z" />
    <glyph glyph-name="integral" unicode="&#x222b;" 
d="M1077 1757l-24 -61q-12 10 -37 18t-47 8q-69 0 -111 -47q-47 -51 -66.5 -141.5t-19.5 -251.5t14.5 -547t14.5 -547q0 -295 -103 -428q-29 -38 -74.5 -58.5t-97.5 -20.5q-34 0 -72 11.5t-57 24.5l25 64q52 -29 104 -29q66 0 105 51q86 104 86 390q0 162 -14.5 550.5
t-14.5 546.5q0 169 25 269.5t84 158.5q74 74 170 74q29 0 61.5 -11t48.5 -24z" />
    <glyph glyph-name="approxequal" unicode="&#x2248;" 
d="M1315 764l65 -47q-51 -96 -132.5 -165t-174.5 -69q-51 0 -151.5 38.5t-198 77t-141.5 38.5q-35 0 -66 -12t-52.5 -28t-45.5 -45.5t-37 -49.5t-34 -55q-2 -4 -3 -5.5l-3 -4.5t-3 -5l-64 47q27 48 53.5 86t64 78t83.5 62t96 22q57 0 133 -24t137 -53t126.5 -53t103.5 -24
q74 0 141 57.5t103 133.5zM1272 1042l65 -47q-51 -95 -132.5 -164t-174.5 -69q-51 0 -151.5 38t-198 76.5t-141.5 38.5q-35 0 -66.5 -12.5t-52 -27t-46 -46.5t-36.5 -48.5t-35 -56.5q-5 -9 -8 -13l-64 47q27 48 53.5 86t64 78t83.5 62t96 22q57 0 133 -24t137 -53t126.5 -53
t103.5 -24q74 0 141 57.5t103 132.5z" />
    <glyph glyph-name="notequal" unicode="&#x2260;" 
d="M690 545l-141 -271l-76 41l125 230h-362v88h409l113 215h-522v88h569q20 46 68.5 134.5t68.5 131.5q42 -20 72 -41l-117 -225h385v-88h-432l-115 -215h547v-88h-592z" />
    <glyph glyph-name="uni2261" unicode="&#x2261;" 
d="M1282 1057v-90h-1089v90h1089zM1282 782v-90h-1089v90h1089zM1282 508v-90h-1089v90h1089z" />
    <glyph glyph-name="lessequal" unicode="&#x2264;" 
d="M344 885l774 590l53 -72l-684 -518l684 -518l-53 -72zM344 0v90h827v-90h-827z" />
    <glyph glyph-name="greaterequal" unicode="&#x2265;" 
d="M397 1475l774 -590l-774 -590l-53 72l684 518l-684 518zM344 0v90h827v-90h-827z" />
    <glyph glyph-name="uni22C5" unicode="&#x22c5;" 
d="M635 737q0 31 21.5 52.5t52.5 21.5t52 -21.5t21 -52.5t-21 -52t-52 -21t-52.5 21t-21.5 52z" />
    <glyph glyph-name="uni2302" unicode="&#x2302;" 
d="M1331 0h-1188v831l594 347l594 -347v-831zM205 61h1065v740l-533 311l-532 -311v-740z" />
    <glyph glyph-name="uni2304" unicode="&#x2304;" 
d="M348 1393h103l286 -564l281 564h102l-329 -662h-107z" />
    <glyph glyph-name="uni2310" unicode="&#x2310;" 
d="M274 0h-90v565h1106v-90h-1016v-475z" />
    <glyph glyph-name="uni2319" unicode="&#x2319;" 
d="M184 565h90v-475h1016v-90h-1106v565z" />
    <glyph glyph-name="uni2320" unicode="&#x2320;" 
d="M694 -590v541q0 273 8 389q48 650 371 651q115 0 197 -87.5t82 -196.5q0 -48 -19.5 -83.5t-64.5 -35.5q-40 0 -62 33t-30.5 80t-18 94.5t-35 80.5t-71.5 33q-21 0 -39 -4t-41 -17t-45.5 -42.5t-42.5 -73.5q-41 -94 -70 -248t-29 -266v-848h-90z" />
    <glyph glyph-name="uni2321" unicode="&#x2321;" 
d="M784 1622v-541q0 -270 -8 -381q-44 -659 -370 -659q-115 0 -197 88t-82 197q0 48 19.5 83t64.5 35q40 0 62 -33t30.5 -80t18 -94.5t35 -80.5t71.5 -33q21 0 39 4t41 17t45.5 42.5t42.5 73.5q40 93 69 247t29 267v848h90z" />
    <glyph glyph-name="uni2500" unicode="&#x2500;" 
d="M82 442v148h1311v-148h-1311z" />
    <glyph glyph-name="uni2502" unicode="&#x2502;" 
d="M664 -590v2212h147v-2212h-147z" />
    <glyph glyph-name="uni250C" unicode="&#x250c;" 
d="M664 -590v1180h729v-148h-582v-1032h-147z" />
    <glyph glyph-name="uni2510" unicode="&#x2510;" 
d="M811 590v-1180h-147v1032h-582v148h729z" />
    <glyph glyph-name="uni2514" unicode="&#x2514;" 
d="M664 442v1180h147v-1032h582v-148h-729z" />
    <glyph glyph-name="uni2518" unicode="&#x2518;" 
d="M811 1622v-1180h-729v148h582v1032h147z" />
    <glyph glyph-name="uni251C" unicode="&#x251c;" 
d="M664 -590v2212h147v-1032h582v-148h-582v-1032h-147z" />
    <glyph glyph-name="uni2524" unicode="&#x2524;" 
d="M82 442v148h582v1032h147v-2212h-147v1032h-582z" />
    <glyph glyph-name="uni252C" unicode="&#x252c;" 
d="M82 442v148h1311v-148h-582v-1032h-147v1032h-582z" />
    <glyph glyph-name="uni2534" unicode="&#x2534;" 
d="M82 442v148h582v1032h147v-1032h582v-148h-1311z" />
    <glyph glyph-name="uni253C" unicode="&#x253c;" 
d="M82 442v148h582v1032h147v-1032h582v-148h-582v-1032h-147v1032h-582z" />
    <glyph glyph-name="uni2550" unicode="&#x2550;" 
d="M82 295v147h1311v-147h-1311zM82 590v147h1311v-147h-1311z" />
    <glyph glyph-name="uni2551" unicode="&#x2551;" 
d="M516 -590v2212h148v-2212h-148zM811 -590v2212h147v-2212h-147z" />
    <glyph glyph-name="uni2552" unicode="&#x2552;" 
d="M664 -590v1327h729v-147h-582v-148h582v-147h-582v-885h-147z" />
    <glyph glyph-name="uni2553" unicode="&#x2553;" 
d="M1393 590v-148h-435v-1032h-147v1032h-147v-1032h-148v1180h877z" />
    <glyph glyph-name="uni2554" unicode="&#x2554;" 
d="M516 -590v1327h877v-147h-729v-1180h-148zM811 -590v1032h582v-147h-435v-885h-147z" />
    <glyph glyph-name="uni2555" unicode="&#x2555;" 
d="M811 737v-1327h-147v885h-582v147h582v148h-582v147h729z" />
    <glyph glyph-name="uni2556" unicode="&#x2556;" 
d="M82 442v148h876v-1180h-147v1032h-147v-1032h-148v1032h-434z" />
    <glyph glyph-name="uni2557" unicode="&#x2557;" 
d="M82 295v147h582v-1032h-148v885h-434zM82 590v147h876v-1327h-147v1180h-729z" />
    <glyph glyph-name="uni2558" unicode="&#x2558;" 
d="M664 295v1327h147v-885h582v-147h-582v-148h582v-147h-729z" />
    <glyph glyph-name="uni2559" unicode="&#x2559;" 
d="M516 442v1180h148v-1032h147v1032h147v-1032h435v-148h-877z" />
    <glyph glyph-name="uni255A" unicode="&#x255a;" 
d="M516 295v1327h148v-1180h729v-147h-877zM811 590v1032h147v-885h435v-147h-582z" />
    <glyph glyph-name="uni255B" unicode="&#x255b;" 
d="M811 1622v-1327h-729v147h582v148h-582v147h582v885h147z" />
    <glyph glyph-name="uni255C" unicode="&#x255c;" 
d="M958 1622v-1180h-876v148h434v1032h148v-1032h147v1032h147z" />
    <glyph glyph-name="uni255D" unicode="&#x255d;" 
d="M82 295v147h729v1180h147v-1327h-876zM82 590v147h434v885h148v-1032h-582z" />
    <glyph glyph-name="uni255E" unicode="&#x255e;" 
d="M1393 442v-147h-582v-885h-147v2212h147v-885h582v-147h-582v-148h582z" />
    <glyph glyph-name="uni255F" unicode="&#x255f;" 
d="M516 -590v2212h148v-2212h-148zM811 -590v2212h147v-1032h435v-148h-435v-1032h-147z" />
    <glyph glyph-name="uni2560" unicode="&#x2560;" 
d="M516 -590v2212h148v-2212h-148zM811 -590v1032h582v-147h-435v-885h-147zM811 590v1032h147v-885h435v-147h-582z" />
    <glyph glyph-name="uni2561" unicode="&#x2561;" 
d="M82 295v147h582v148h-582v147h582v885h147v-2212h-147v885h-582z" />
    <glyph glyph-name="uni2562" unicode="&#x2562;" 
d="M82 442v148h434v1032h148v-2212h-148v1032h-434zM811 -590v2212h147v-2212h-147z" />
    <glyph glyph-name="uni2563" unicode="&#x2563;" 
d="M811 -590v2212h147v-2212h-147zM664 1622v-1032h-582v147h434v885h148zM664 442v-1032h-148v885h-434v147h582z" />
    <glyph glyph-name="uni2564" unicode="&#x2564;" 
d="M82 295v147h1311v-147h-582v-885h-147v885h-582zM82 590v147h1311v-147h-1311z" />
    <glyph glyph-name="uni2565" unicode="&#x2565;" 
d="M82 442v148h1311v-148h-435v-1032h-147v1032h-147v-1032h-148v1032h-434z" />
    <glyph glyph-name="uni2566" unicode="&#x2566;" 
d="M82 295v147h582v-1032h-148v885h-434zM82 590v147h1311v-147h-1311zM811 -590v1032h582v-147h-435v-885h-147z" />
    <glyph glyph-name="uni2567" unicode="&#x2567;" 
d="M82 295v147h1311v-147h-1311zM82 590v147h582v885h147v-885h582v-147h-1311z" />
    <glyph glyph-name="uni2568" unicode="&#x2568;" 
d="M82 442v148h434v1032h148v-1032h147v1032h147v-1032h435v-148h-1311z" />
    <glyph glyph-name="uni2569" unicode="&#x2569;" 
d="M82 295v147h1311v-147h-1311zM82 590v147h434v885h148v-1032h-582zM811 590v1032h147v-885h435v-147h-582z" />
    <glyph glyph-name="uni256A" unicode="&#x256a;" 
d="M82 295v147h582v148h-582v147h582v885h147v-885h582v-147h-582v-148h582v-147h-582v-885h-147v885h-582z" />
    <glyph glyph-name="uni256B" unicode="&#x256b;" 
d="M82 442v148h434v1032h148v-1032h147v1032h147v-1032h435v-148h-435v-1032h-147v1032h-147v-1032h-148v1032h-434z" />
    <glyph glyph-name="uni256C" unicode="&#x256c;" 
d="M82 295v147h582v-1032h-148v885h-434zM82 590v147h434v885h148v-1032h-582zM811 -590v1032h582v-147h-435v-885h-147zM811 590v1032h147v-885h435v-147h-582z" />
    <glyph glyph-name="uni2580" unicode="&#x2580;" 
d="M123 516v1106h1229v-1106h-1229z" />
    <glyph glyph-name="uni2584" unicode="&#x2584;" 
d="M123 -590v1106h1229v-1106h-1229z" />
    <glyph glyph-name="uni2588" unicode="&#x2588;" 
d="M123 -590v2212h1229v-2212h-1229z" />
    <glyph glyph-name="uni258C" unicode="&#x258c;" 
d="M123 -590v2212h614v-2212h-614z" />
    <glyph glyph-name="uni2590" unicode="&#x2590;" 
d="M737 -590v2212h615v-2212h-615z" />
    <glyph glyph-name="uni2591" unicode="&#x2591;" 
d="M123 -590v201h205v-201h-205zM532 -590v201h205v-201h-205zM942 -590v201h205v-201h-205zM123 1421v201h205v-201h-205zM532 1421v201h205v-201h-205zM942 1421v201h205v-201h-205zM123 1018v201h205v-201h-205zM532 1018v201h205v-201h-205zM942 1018v201h205v-201h-205
zM123 -186v200h205v-200h-205zM532 -186v200h205v-200h-205zM942 -186v200h205v-200h-205zM123 215v201h205v-201h-205zM532 215v201h205v-201h-205zM942 215v201h205v-201h-205zM123 616v201h205v-201h-205zM532 616v201h205v-201h-205zM942 616v201h205v-201h-205z" />
    <glyph glyph-name="uni2592" unicode="&#x2592;" 
d="M123 -590v199h203v-199h-203zM532 -590v199h203v-199h-203zM942 -590v199h203v-199h-203zM123 1423v199h203v-199h-203zM532 1423v199h203v-199h-203zM942 1423v199h203v-199h-203zM123 1022v199h203v-199h-203zM532 1022v199h203v-199h-203zM942 1022v199h203v-199h-203
zM123 -188v198h203v-198h-203zM532 -188v198h203v-198h-203zM942 -188v198h203v-198h-203zM123 215v199h203v-199h-203zM532 215v199h203v-199h-203zM942 215v199h203v-199h-203zM123 618v199h203v-199h-203zM532 618v199h203v-199h-203zM942 618v199h203v-199h-203z
M328 1223v198h202v-198h-202zM737 1223v198h203v-198h-203zM1147 1223v198h205v-198h-205zM328 819v199h202v-199h-202zM737 819v199h203v-199h-203zM1147 819v199h205v-199h-205zM1147 416v198h205v-198h-205zM737 416v198h203v-198h-203zM328 416v198h202v-198h-202z
M328 12v199h202v-199h-202zM737 12v199h203v-199h-203zM1147 12v199h205v-199h-205zM1147 -389v199h205v-199h-205zM737 -389v199h203v-199h-203zM328 -389v199h202v-199h-202z" />
    <glyph glyph-name="uni2593" unicode="&#x2593;" 
d="M406 -188h-283v198h283v-198zM532 -389h-282v199h282v-199zM532 12h-282v199h282v-199zM406 -590h-283v199h283v-199zM815 -188h-283v198h283v-198zM942 -389h-283v199h283v-199zM942 12h-283v199h283v-199zM815 -590h-283v199h283v-199zM1225 -188h-283v198h283v-198z
M1352 -389h-283v199h283v-199zM1352 12h-283v199h283v-199zM1225 -590h-283v199h283v-199zM532 1223h-282v198h282v-198zM406 1423h-283v199h283v-199zM406 1022h-283v199h283v-199zM942 1223h-283v198h283v-198zM815 1423h-283v199h283v-199zM815 1022h-283v199h283v-199z
M1352 1223h-283v198h283v-198zM1225 1423h-283v199h283v-199zM1225 1022h-283v199h283v-199zM406 215h-283v199h283v-199zM532 416h-282v198h282v-198zM815 215h-283v199h283v-199zM942 416h-283v198h283v-198zM1225 215h-283v199h283v-199zM1352 416h-283v198h283v-198z
M406 618h-283v199h283v-199zM532 819h-282v199h282v-199zM815 618h-283v199h283v-199zM942 819h-283v199h283v-199zM1225 618h-283v199h283v-199zM1352 819h-283v199h283v-199z" />
    <glyph glyph-name="uni25A0" unicode="&#x25a0;" 
d="M328 205v819h819v-819h-819z" />
    <glyph glyph-name="uni25B2" unicode="&#x25b2;" 
d="M217 250l520 971l520 -971h-1040z" />
    <glyph glyph-name="uni25B6" unicode="&#x25b6;" 
d="M252 217v1040l971 -520z" />
    <glyph glyph-name="uni25BC" unicode="&#x25bc;" 
d="M737 250l-520 971h1040z" />
    <glyph glyph-name="uni25C0" unicode="&#x25c0;" 
d="M1223 1257v-1040l-971 520z" />
    <glyph glyph-name="lozenge" unicode="&#x25ca;" 
d="M1243 739l-448 -833h-72l-451 833l449 836h72zM1159 737l-358 660q-14 26 -43 98h-4q-11 -33 -43 -98l-355 -654l359 -663q30 -53 41 -96h6q6 23 39 96z" />
    <glyph glyph-name="uni25CB" unicode="&#x25cb;" 
d="M268 516q0 127 63 235t171 171t235 63t235 -63t171 -171t63 -235t-63 -235t-171 -171t-235 -63t-235 63t-171 171t-63 235zM354 516q0 -158 112.5 -270.5t270.5 -112.5t270.5 112.5t112.5 270.5q0 157 -112.5 270t-270.5 113t-270.5 -113t-112.5 -270z" />
    <glyph glyph-name="uni25D8" unicode="&#x25d8;" 
d="M123 -590v2212h1229v-2212h-1229zM485 516q0 -106 73 -179t179 -73q103 0 177.5 73.5t74.5 178.5q0 103 -74.5 177.5t-177.5 74.5t-177.5 -74.5t-74.5 -177.5z" />
    <glyph glyph-name="uni25D9" unicode="&#x25d9;" 
d="M123 -590v2212h1229v-2212h-1229zM268 516q0 -127 63 -235t171 -171t235 -63t235 63t171 171t63 235t-63 235t-171 171t-235 63t-235 -63t-171 -171t-63 -235zM354 516q0 157 112.5 270t270.5 113t270.5 -113t112.5 -270q0 -158 -112.5 -270.5t-270.5 -112.5
t-270.5 112.5t-112.5 270.5z" />
    <glyph glyph-name="uni263A" unicode="&#x263a;" 
d="M143 676q0 123 46 233t125 189t189.5 125.5t233.5 46.5t233.5 -46.5t189.5 -125.5t125 -189t46 -233t-46 -233t-125 -189t-189.5 -125.5t-233.5 -46.5t-233.5 46.5t-189.5 125.5t-125 189t-46 233zM737 1239q-155 0 -284 -74.5t-203 -204t-74 -284.5t74 -284.5t203 -204
t284 -74.5t284 74.5t203 204t74 284.5t-74 284.5t-203 204t-284 74.5zM393 879q0 43 30 72.5t73 29.5t72.5 -29.5t29.5 -72.5t-29.5 -73t-72.5 -30t-73 30t-30 73zM877 879q0 43 29.5 72.5t72.5 29.5t72.5 -29.5t29.5 -72.5t-29.5 -73t-72.5 -30t-72.5 30t-29.5 73zM737 225
q-78 0 -154.5 30.5t-131.5 96.5q-45 53 -37 110q5 32 21 33q11 0 20 -16q101 -184 282 -184q182 0 283 184q16 28 31 9q20 -25 6 -75q-9 -33 -33 -61q-55 -66 -131.5 -96.5t-155.5 -30.5z" />
    <glyph glyph-name="uni263B" unicode="&#x263b;" 
d="M143 676q0 123 46 233t125 189t189.5 125.5t233.5 46.5t233.5 -46.5t189.5 -125.5t125 -189t46 -233t-46 -233t-125 -189t-189.5 -125.5t-233.5 -46.5t-233.5 46.5t-189.5 125.5t-125 189t-46 233zM393 879q0 -43 30 -73t73 -30t72.5 30t29.5 73t-29.5 72.5t-72.5 29.5
t-73 -29.5t-30 -72.5zM877 879q0 -43 29.5 -73t72.5 -30t72.5 30t29.5 73t-29.5 72.5t-72.5 29.5t-72.5 -29.5t-29.5 -72.5zM737 225q79 0 155.5 30.5t131.5 96.5q45 53 37 110q-5 32 -21 33q-11 0 -20 -16q-101 -184 -283 -184q-181 0 -282 184q-16 28 -31 9
q-20 -25 -6 -75q9 -33 33 -61q55 -66 131.5 -96.5t154.5 -30.5z" />
    <glyph glyph-name="uni263C" unicode="&#x263c;" 
d="M1184 1051l-180 -181q58 -66 73 -184h254v-65h-256q-14 -105 -78 -172l181 -181l-48 -47l-178 178q-74 -71 -182 -86v-252h-65v252q-118 17 -183 76l-178 -178l-45 47l178 178q-71 76 -80 185h-254v65h254q-3 116 72 197l-178 178l45 49l180 -180q71 55 189 63v256h65
v-256q100 -3 186 -75l181 178zM463 653q0 -118 73 -196t195 -78q126 0 204.5 78.5t76.5 195.5q-2 119 -79 197t-200 78q-123 -1 -196.5 -79.5t-73.5 -195.5z" />
    <glyph glyph-name="uni2640" unicode="&#x2640;" 
d="M774 0h-74v350h-258v74h258v223q-132 23 -213 117t-81 219q0 136 97 232t234 96q139 0 235.5 -95.5t96.5 -232.5q0 -125 -80.5 -219t-214.5 -117v-223h258v-74h-258v-350zM471 979q0 -112 76.5 -189t187.5 -77q114 0 191.5 76.5t77.5 189.5t-77.5 189.5t-191.5 76.5
q-111 0 -187.5 -77t-76.5 -189z" />
    <glyph glyph-name="uni2642" unicode="&#x2642;" 
d="M748 287q79 80 78.5 188.5t-78.5 186.5q-79 81 -189 81.5t-188 -79.5q-80 -79 -79.5 -187.5t81.5 -189.5q78 -78 186.5 -78.5t188.5 78.5zM768 735l348 350l-213 78v4h348v-348h-4l-80 213l-348 -348q77 -111 68 -234t-96 -212q-97 -96 -233.5 -94.5t-233.5 98.5
q-98 98 -98.5 233t96.5 232q88 89 209 98.5t237 -70.5z" />
    <glyph glyph-name="uni2660" unicode="&#x2660;" 
d="M1233 0h-991l8 45q239 7 354 134.5t115 371.5h-4q-45 -102 -127 -163.5t-191 -61.5t-188.5 76.5t-79.5 185.5q0 35 8.5 68.5t20 61t33.5 58.5t39.5 52t48 50.5t49.5 45.5t52 45l21 18q68 59 113.5 103t93 102.5t78.5 124t49 141.5h4q18 -76 49 -141.5t78.5 -124
t93 -102.5t113.5 -103q114 -99 151 -138q122 -129 122 -261q0 -109 -80 -185.5t-189 -76.5t-190.5 61.5t-126.5 163.5h-4q0 -244 115 -371.5t354 -134.5z" />
    <glyph glyph-name="uni2662" unicode="&#x2662;" 
d="M737 1458q221 -339 609 -741q-386 -400 -609 -742q-225 345 -608 742q385 399 608 741zM737 23q191 299 568 694q-377 395 -568 694q-193 -303 -567 -694q374 -391 567 -694z" />
    <glyph glyph-name="uni2663" unicode="&#x2663;" 
d="M1153 0h-831l12 43q74 17 127.5 38t106.5 62.5t85.5 99.5t53 150t20.5 213h-4q-17 -51 -46.5 -99.5t-69.5 -90t-91.5 -67t-105.5 -25.5q-86 0 -151.5 49.5t-97.5 124t-32 157.5q0 69 25.5 143t78.5 129.5t119 55.5q80 0 176 -61q-35 68 -50 113t-15 104q0 76 30.5 147.5
t95 121.5t148.5 50t148.5 -50t95.5 -121.5t31 -147.5q0 -59 -15.5 -103.5t-50.5 -113.5q96 61 176 61q66 0 119.5 -55.5t79 -129.5t25.5 -143q0 -83 -32 -157.5t-97.5 -124t-151.5 -49.5q-54 0 -105.5 25.5t-91.5 67t-69.5 90t-46.5 99.5h-4q0 -121 20.5 -213t53 -150
t85.5 -99.5t106.5 -62.5t127.5 -38z" />
    <glyph glyph-name="uni2665" unicode="&#x2665;" 
d="M739 -25h-4q-21 88 -58 173.5t-95.5 178.5t-98.5 150t-116 158q-51 67 -85.5 119t-73.5 122t-59 140t-20 137q0 129 83 217t212 88q115 0 200.5 -89t110.5 -208h4q25 119 111 208t201 89q129 0 212 -88t83 -217q0 -67 -20 -137t-59 -140t-73.5 -122t-85.5 -119
q-77 -103 -116.5 -158.5t-98.5 -149t-96 -179t-58 -173.5z" />
    <glyph glyph-name="uni2666" unicode="&#x2666;" 
d="M737 1458q221 -339 609 -741q-386 -400 -609 -742q-225 345 -608 742q385 399 608 741z" />
    <glyph glyph-name="uni266A" unicode="&#x266a;" 
d="M696 371v1087h90v-129l48 -59l79 -94q104 -123 156.5 -241.5t52.5 -262.5q0 -91 -32 -182.5t-89 -157.5h-59q88 149 88 315q0 79 -25.5 156.5t-83 139.5t-135.5 75v-643q0 -173 -88 -264t-229 -91q-64 0 -102.5 34.5t-38.5 97.5q0 96 78.5 168.5t175.5 72.5q62 0 114 -22
z" />
    <glyph glyph-name="uni266C" unicode="&#x266c;" 
d="M1116 414v573l-633 -190v-494q0 -178 -87.5 -268t-231.5 -90q-64 0 -102.5 33.5t-38.5 95.5q0 98 79 169.5t177 71.5q62 0 114 -22v960l813 230v-1059q0 -178 -87.5 -268t-231.5 -90q-65 0 -103.5 33.5t-38.5 95.5q0 98 79 169.5t177 71.5q63 0 115 -22zM483 958l633 193
v147l-633 -192v-148z" />
    <glyph glyph-name="SM700000" unicode="&#xe000;" 
d="M205 532v410h819v-410h-819z" />
    <glyph glyph-name="uni0044_uni004D" unicode="&#xe001;" 
d="M23 0l262 1229h239q80 0 129 -49t64 -125q30 -144 -33 -441q-31 -142 -72 -254.5t-65 -155.5t-43 -67q-102 -137 -260 -137h-221zM348 1147l-225 -1065h78q39 0 62 1.5t56 9t56 22t49 42.5t49 68q69 122 129 389q58 269 35 402q-7 37 -22 63t-31.5 39t-46.5 20t-51 8
t-60 1h-78zM629 0l262 1229h108l45 -635l316 635h108l-262 -1229h-82l228 1067h-4l-349 -684l-57 684l-6 -4l-225 -1063h-82z" />
    <glyph glyph-name="uniF638" unicode="&#xf638;" 
d="M408 360l704 914q-23 67 -72.5 107t-121.5 40q-53 0 -99 -16t-97 -61.5t-94 -119.5t-86.5 -197.5t-78.5 -289.5q-53 -245 -55 -377zM1130 1180l-714 -926q14 -87 68.5 -144t142.5 -57q77 0 142.5 39.5t111 101t85 155.5t65 183.5t50.5 204.5q62 293 49 443zM338 154
l-119 -158l-59 41l157 205q-7 46 -6.5 99.5t3.5 92.5t14.5 105.5t17 94.5t21.5 103q12 58 21 97t27.5 106t35.5 114.5t45 110.5t57 107t70 90.5t86 75t103 47t122 18.5q169 0 250 -137l119 154l57 -41l-146 -191l-2 -2q15 -59 18 -125t-5.5 -140.5t-18 -131.5t-26.5 -139
q-19 -89 -38 -162.5t-47.5 -156t-60 -147t-75.5 -125t-94 -100.5t-116 -64t-141 -24q-98 0 -167.5 48.5t-102.5 134.5z" />
    <glyph glyph-name="fi" unicode="&#xfb01;" 
d="M616 1083h578l-229 -1083h-97l213 1001h-481l-213 -1001h-96l213 1001h-205l16 82h205l17 72q25 114 89.5 195t141.5 117t158 36q19 0 38 -1.5t39.5 -6t35 -7t37.5 -11t33 -11.5t35.5 -14.5t31.5 -14t35 -16t32 -14.5l-22 -111q-15 8 -67 39t-78 44.5t-71.5 27.5
t-86.5 14q-114 0 -185 -66t-98 -188z" />
    <glyph glyph-name="fl" unicode="&#xfb02;" 
d="M899 0l281 1323q-7 4 -34 18.5t-37.5 20t-35 17.5t-40 17.5t-37 13t-41.5 10.5t-40 3q-112 3 -183.5 -64.5t-98.5 -191.5l-19 -84h304l-17 -79h-303l-213 -1004h-96l213 1004h-205l18 81h205l15 72q17 86 58.5 154.5t95.5 110t114.5 62.5t120.5 19q81 -3 153.5 -27.5
t212.5 -89.5l-295 -1386h-96z" />
    <glyph glyph-name="emdash" 
d="M1376 694h-1229l19 82h1229z" />
  </font>
</defs>
</svg>
