<svg xmlns="http://www.w3.org/2000/svg" viewBox="0 0 64 80" x="0px" y="0px"><path d="M51.515,32.187c-2.927,5.614-10.138,16.447-23.977,21.2a28.488,28.488,0,0,1-8.4,1.27c-5.913,0-13.442-1.994-17.341-11a.5.5,0,0,1,.139-.585.491.491,0,0,1,.6-.02,18.827,18.827,0,0,0,9.643,2.659c5.128,0,9.95-2.143,14.324-6.369a22.294,22.294,0,0,0,6.27-8.958,25.059,25.059,0,0,0,.7-2.8,9.508,9.508,0,0,1,1.181-3.363,6.735,6.735,0,0,0,.843.347,9.563,9.563,0,0,0,3.224.536,12.121,12.121,0,0,0,2.391-.248,2.3,2.3,0,0,1-.437,1.309,2.234,2.234,0,0,1-1.488.734,1.52,1.52,0,0,0-1.408,1.171,1.479,1.479,0,0,0,.8,1.656,8.2,8.2,0,0,0,3.631.9A7.809,7.809,0,0,0,47.418,28.5a8.017,8.017,0,0,0,3.77,3.581C51.3,32.117,51.406,32.157,51.515,32.187Z"/><path d="M62.412,10.848a7.25,7.25,0,0,0-4.753-1.987,6.2,6.2,0,0,0-1.34.149c-4.5,1.006-7.638,6.836-8.462,8.519a10.048,10.048,0,0,0-8.851,1.007c-3.919,2.917-6.339,1.429-6.439,1.359a.51.51,0,0,0-.634.07.5.5,0,0,0-.05.635,7.873,7.873,0,0,0,3.938,3.035,10.054,10.054,0,0,0,6.21-.049,4.041,4.041,0,0,1-.575,3.194,3.22,3.22,0,0,1-2.232,1.111.509.509,0,0,0-.476.387.494.494,0,0,0,.268.556,6.846,6.846,0,0,0,8.62-1.975c1.191,2.312,2.49,3.75,3.9,4.286a3.8,3.8,0,0,0,1.319.248c2.47,0,4.206-2.609,4.3-2.738a.466.466,0,0,0,.039-.456.5.5,0,0,0-.347-.3c-2.42-.526-2.579-1.458-2.827-3.006a7.758,7.758,0,0,0-2.421-4.91,12.431,12.431,0,0,0-1.966-1.554c.69-1.408,3.491-6.673,7.123-7.484a4.139,4.139,0,0,1,.889-.1,5.355,5.355,0,0,1,3.473,1.5.992.992,0,1,0,1.3-1.5Z"/><text x="0" y="79" fill="#000000" font-size="5px" font-weight="bold" font-family="'Helvetica Neue', Helvetica, Arial-Unicode, Arial, Sans-serif">Created by DinosoftLabs</text><text x="0" y="84" fill="#000000" font-size="5px" font-weight="bold" font-family="'Helvetica Neue', Helvetica, Arial-Unicode, Arial, Sans-serif">from the Noun Project</text></svg>